SplineFontDB: 3.0
FontName: Gidugu
FullName: Gidugu
FamilyName: Gidugu
OS2FamilyName: "Gidugu"
OS2StyleName: "regular"
Weight: Regular
Copyright: This font is copyright of SiliconAndhra, USA.
Version: 1.0
FONDName: Gidugu
ItalicAngle: 0
UnderlinePosition: -1100
UnderlineWidth: 60
Ascent: 899
Descent: 225
InvalidEm: 1
UFOAscent: 875
UFODescent: -250
LayerCount: 2
Layer: 0 0 "Back" 1
Layer: 1 0 "Fore" 0
FSType: 0
OS2Version: 0
OS2_WeightWidthSlopeOnly: 0
OS2_UseTypoMetrics: 0
CreationTime: 1416986937
ModificationTime: 1416986937
PfmFamily: 16
TTFWeight: 400
TTFWidth: 5
LineGap: 0
VLineGap: 0
Panose: 0 0 0 0 0 0 0 0 0 0
OS2TypoAscent: 875
OS2TypoAOffset: 0
OS2TypoDescent: -250
OS2TypoDOffset: 0
OS2TypoLinegap: 20
OS2WinAscent: 900
OS2WinAOffset: 0
OS2WinDescent: 750
OS2WinDOffset: 0
HheadAscent: 885
HheadAOffset: 0
HheadDescent: -260
HheadDOffset: 0
OS2SubXSize: 700
OS2SubYSize: 650
OS2SubXOff: 0
OS2SubYOff: 140
OS2SupXSize: 700
OS2SupYSize: 650
OS2SupXOff: 0
OS2SupYOff: 477
OS2StrikeYSize: 50
OS2StrikeYPos: 250
OS2CapHeight: 596
OS2XHeight: 410
OS2Vendor: 'pyrs'
Lookup: 258 0 0 "'kern' Horizontal Kerning in Telugu2 lookup 0" { "'kern' Horizontal Kerning in Telugu2 lookup 0 subtable"  } ['kern' ('tel2' <'dflt' > ) ]
Lookup: 258 0 0 "'kern' Horizontal Kerning lookup 0" { "'kern' Horizontal Kerning lookup 0 subtable"  } ['kern' ('DFLT' <'dflt' > ) ]
DEI: 91125
GroupKern: "VaOttu" "VaEE" -5
GroupKern: "PaOttu" "RMatra" 76
GroupKern: "Kaottu" "RMatra" 28
GroupKern: "Ta" "VaOttu" 71
LangName: 1033 "" "" "" "" "" "Version 0.30 October 28, 2012" "" "" "SiliconAndhra, USA." "Purushoth Kumar Guthula"
PickledDataWithLists: "(dp1
."
Encoding: Custom
Compacted: 1
UnicodeInterp: none
NameList: AGL For New Fonts
DisplaySize: -72
AntiAlias: 1
FitToEm: 1
WinInfo: 32 8 2
BeginPrivate: 7
BlueFuzz 1 1
BlueScale 8 0.039625
BlueShift 1 7
BlueValues 5 [0 0]
ForceBold 5 false
StemSnapH 7 [48 44]
StemSnapV 9 [131 101]
EndPrivate
BeginChars: 708 708

StartChar: exclam
Encoding: 1 33 1
GlifName: exclam
Width: 331
VWidth: 0
Flags: W
LayerCount: 2
Back
Fore
SplineSet
199 0 m 256
NamedP: "hr00"
 219 0 236 5 250 16 c 256
 264 27 271 40 271 55 c 256
 271 70 264 83 250 93 c 256
 236 104 219 109 199 109 c 256
 179 109 161 104 146 93 c 256
 132 83 125 70 125 55 c 256
 125 40 132 27 146 16 c 256
 161 5 179 0 199 0 c 256
NamedP: "hr00"
199 158 m 256
 204 158 208 161 213 168 c 256
 218 175 222 183 223 194 c 258
 271 589 l 258
 274 610 273 628 268 644 c 256
 262 660 253 668 241 668 c 258
 180 668 l 258
 167 668 156 660 149 644 c 256
 142 628 142 610 144 589 c 258
 180 194 l 257
 182 183 185 175 188 168 c 256
 192 161 196 158 199 158 c 256
EndSplineSet
PickledDataWithLists: "(dp1
S'com.adobe.type.autohint'
p2
(S'data'
S'<data>\\n  <hintSetList>\\n    <hintset pointTag=\"hr00\">\\n      <hstem pos=\"21\" width=\"-21\"/>\\n      <hstem pos=\"0\" width=\"109\"/>\\n      <vstem pos=\"125\" width=\"148\"/>\\n      <vstem pos=\"144\" width=\"127\"/>\\n    </hintset>\\n  </hintSetList>\\n  </data>'
Ntp3
s."
EndChar

StartChar: dollar
Encoding: 4 36 4
GlifName: dollar
Width: 376
VWidth: 0
Flags: W
LayerCount: 2
Back
Fore
SplineSet
208 199 m 257
NamedP: "hr00"
 245 188 264 168 264 137 c 256
 264 100 245 78 208 71 c 257
 208 199 l 257
NamedP: "hr00"
161 308 m 257
 132 320 118 339 118 365 c 256
 118 393 132 412 161 422 c 257
 161 308 l 257
161 75 m 257
 133 88 115 113 107 148 c 257
 22 139 l 257
 35 53 81 5 161 -4 c 257
 161 -64 l 257
 208 -64 l 257
 208 -3 l 257
 292 9 344 65 344 148 c 256
 344 221 299 269 208 292 c 257
 208 420 l 257
 229 411 242 394 247 368 c 257
 331 379 l 257
 319 447 278 485 208 494 c 257
 208 526 l 257
 161 526 l 257
 161 494 l 257
 85 487 35 434 35 361 c 256
 35 286 77 237 161 213 c 257
 161 75 l 257
EndSplineSet
PickledDataWithLists: "(dp1
S'com.adobe.type.autohint'
p2
(S'data'
S'<data>\\n  <hintSetList>\\n    <hintset pointTag=\"hr00\">\\n      <hstem pos=\"-64\" width=\"590\"/>\\n      <hstem pos=\"373\" width=\"152\"/>\\n      <vstem pos=\"35\" width=\"83\"/>\\n      <vstem pos=\"161\" width=\"47\"/>\\n      <vstem pos=\"264\" width=\"80\"/>\\n    </hintset>\\n  </hintSetList>\\n  </data>'
Ntp3
s."
EndChar

StartChar: percent
Encoding: 5 37 5
GlifName: percent
Width: 599
VWidth: 0
Flags: W
LayerCount: 2
Back
Fore
SplineSet
426 112 m 256
NamedP: "hr00"
 426 162 437 187 460 187 c 256
 482 187 493 162 493 112 c 256
 493 62 482 37 460 37 c 256
 437 37 426 62 426 112 c 256
NamedP: "hr00"
353 112 m 256
 353 27 389 -16 462 -16 c 256
 532 -16 567 27 567 112 c 256
 567 197 532 239 461 239 c 256
 389 239 353 197 353 112 c 256
460 495 m 257
 392 495 l 257
 136 -15 l 257
 203 -15 l 257
 460 495 l 257
100 368 m 256
 100 419 111 444 133 444 c 256
 156 444 167 419 167 368 c 256
 167 318 156 293 133 293 c 256
 111 293 100 318 100 368 c 256
27 368 m 256
 27 283 63 240 134 240 c 256
 205 240 241 283 241 368 c 256
 241 453 205 495 133 495 c 256
 62 495 27 453 27 368 c 256
EndSplineSet
PickledDataWithLists: "(dp1
S'com.adobe.type.autohint'
p2
(S'data'
S'<data>\\n  <hintSetList>\\n    <hintset pointTag=\"hr00\">\\n      <hstem pos=\"-16\" width=\"53\"/>\\n      <hstem pos=\"187\" width=\"52\"/>\\n      <hstem pos=\"240\" width=\"53\"/>\\n      <hstem pos=\"444\" width=\"51\"/>\\n      <vstem pos=\"27\" width=\"73\"/>\\n      <vstem pos=\"167\" width=\"74\"/>\\n      <vstem pos=\"353\" width=\"73\"/>\\n      <vstem pos=\"493\" width=\"74\"/>\\n    </hintset>\\n  </hintSetList>\\n  </data>'
Ntp3
s."
EndChar

StartChar: ampersand
Encoding: 6 38 6
GlifName: ampersand
Width: 768
VWidth: 0
Flags: W
LayerCount: 2
Back
Fore
SplineSet
448 136 m 257
NamedP: "hr00"
 397 108 352 94 314 94 c 256
 275 94 242 104 216 125 c 256
 191 146 178 171 178 200 c 256
 178 253 207 287 265 300 c 257
 448 136 l 257
NamedP: "hr00"
356 471 m 256
 356 440 335 416 294 397 c 257
 268 422 255 445 255 466 c 257
 259 502 279 525 312 525 c 256
 341 525 356 507 356 471 c 256
727 8 m 257
 647 85 602 128 591 135 c 257
 615 171 631 215 627 266 c 258
 623 314 l 257
 502 314 l 257
 508 299 511 287 511 276 c 256
 511 247 507 224 499 207 c 257
 446 262 398 306 355 340 c 257
 436 367 476 415 476 482 c 256
 476 565 404 610 305 610 c 256
 250 610 205 596 171 569 c 256
 140 544 125 515 125 482 c 256
 125 459 131 438 143 419 c 256
 150 407 166 389 191 366 c 257
 96 345 41 287 41 199 c 256
 41 136 70 87 126 50 c 256
 180 15 236 1 312 1 c 256
 401 1 476 25 524 65 c 257
 591 8 l 257
 727 8 l 257
EndSplineSet
PickledDataWithLists: "(dp1
S'com.adobe.type.autohint'
p2
(S'data'
S'<data>\\n  <hintSetList>\\n    <hintset pointTag=\"hr00\">\\n      <hstem pos=\"1\" width=\"93\"/>\\n      <hstem pos=\"525\" width=\"85\"/>\\n      <vstem pos=\"41\" width=\"137\"/>\\n      <vstem pos=\"125\" width=\"130\"/>\\n      <vstem pos=\"356\" width=\"120\"/>\\n      <vstem pos=\"511\" width=\"116\"/>\\n    </hintset>\\n  </hintSetList>\\n  </data>'
Ntp3
s."
EndChar

StartChar: quotesingle
Encoding: 7 39 7
GlifName: quotesingle
Width: 160
VWidth: 0
Flags: W
LayerCount: 2
Back
Fore
SplineSet
115 555 m 257
NamedP: "hr00"
 131 646 l 257
 131 728 l 257
 30 728 l 257
 30 646 l 257
 48 555 l 257
 115 555 l 257
NamedP: "hr00"
EndSplineSet
PickledDataWithLists: "(dp1
S'com.adobe.type.autohint'
p2
(S'data'
S'<data>\\n  <hintSetList>\\n    <hintset pointTag=\"hr00\">\\n      <hstem pos=\"555\" width=\"173\"/>\\n      <vstem pos=\"30\" width=\"101\"/>\\n    </hintset>\\n  </hintSetList>\\n  </data>'
Ntp3
s."
EndChar

StartChar: parenleft
Encoding: 8 40 8
GlifName: parenleft
Width: 328
VWidth: 0
Flags: W
LayerCount: 2
Back
Fore
SplineSet
270 -80 m 257
NamedP: "hr00"
 233 -80 205 -54 184 -2 c 256
 163 50 153 123 153 216 c 256
 153 325 162 404 181 455 c 256
 199 506 228 532 268 532 c 257
 268 580 l 257
 261 581 253 582 244 582 c 256
 185 582 140 550 107 487 c 256
 74 424 58 334 58 219 c 256
 58 113 75 28 108 -36 c 256
 142 -101 187 -133 243 -133 c 256
 254 -133 263 -132 270 -129 c 257
 270 -80 l 257
NamedP: "hr00"
EndSplineSet
PickledDataWithLists: "(dp1
S'com.adobe.type.autohint'
p2
(S'data'
S'<data>\\n  <hintSetList>\\n    <hintset pointTag=\"hr00\">\\n      <hstem pos=\"-133\" width=\"53\"/>\\n      <hstem pos=\"532\" width=\"50\"/>\\n      <vstem pos=\"58\" width=\"95\"/>\\n    </hintset>\\n  </hintSetList>\\n  </data>'
Ntp3
s."
EndChar

StartChar: parenright
Encoding: 9 41 9
GlifName: parenright
Width: 328
VWidth: 0
Flags: W
LayerCount: 2
Back
Fore
SplineSet
58 -129 m 257
NamedP: "hr00"
 65 -132 74 -133 86 -133 c 256
 141 -133 186 -101 220 -36 c 256
 253 28 270 113 270 219 c 256
 270 334 254 424 221 487 c 256
 189 550 143 582 84 582 c 256
 75 582 67 581 60 580 c 257
 60 532 l 257
 100 532 129 506 148 455 c 256
 166 404 175 325 175 216 c 256
 175 123 165 50 144 -2 c 256
 123 -54 95 -80 58 -80 c 257
 58 -129 l 257
NamedP: "hr00"
EndSplineSet
PickledDataWithLists: "(dp1
S'com.adobe.type.autohint'
p2
(S'data'
S'<data>\\n  <hintSetList>\\n    <hintset pointTag=\"hr00\">\\n      <hstem pos=\"-133\" width=\"53\"/>\\n      <hstem pos=\"532\" width=\"50\"/>\\n      <vstem pos=\"175\" width=\"95\"/>\\n    </hintset>\\n  </hintSetList>\\n  </data>'
Ntp3
s."
EndChar

StartChar: plus
Encoding: 11 43 11
GlifName: plus
Width: 538
VWidth: 0
Flags: W
LayerCount: 2
Back
Fore
SplineSet
484 205 m 257
NamedP: "hr00"
 326 205 l 257
 326 345 l 257
 206 345 l 257
 206 205 l 257
 54 205 l 257
 54 135 l 257
 206 135 l 257
 206 -4 l 257
 326 -4 l 257
 326 135 l 257
 484 135 l 257
 484 205 l 257
NamedP: "hr00"
EndSplineSet
PickledDataWithLists: "(dp1
S'com.adobe.type.autohint'
p2
(S'data'
S'<data>\\n  <hintSetList>\\n    <hintset pointTag=\"hr00\">\\n      <hstem pos=\"135\" width=\"70\"/>\\n      <vstem pos=\"206\" width=\"120\"/>\\n    </hintset>\\n  </hintSetList>\\n  </data>'
Ntp3
s."
EndChar

StartChar: comma
Encoding: 12 44 12
GlifName: comma
Width: 233
VWidth: 0
Flags: W
LayerCount: 2
Back
Fore
SplineSet
59 -39 m 257
NamedP: "hr00"
 63 -45 70 -49 81 -52 c 256
 88 -54 97 -55 108 -55 c 256
 129 -55 146 -47 159 -31 c 256
 172 -16 179 4 179 28 c 256
 179 49 175 65 165 78 c 256
 153 94 133 102 110 102 c 256
 97 102 85 98 74 89 c 256
 61 79 54 64 54 44 c 256
 54 31 58 20 65 12 c 256
 72 3 84 -1 99 -1 c 256
 106 -1 112 -1 115 0 c 257
 116 -2 116 -5 116 -8 c 256
 116 -20 111 -28 101 -33 c 256
 93 -38 83 -41 72 -40 c 258
 59 -39 l 257
NamedP: "hr00"
EndSplineSet
PickledDataWithLists: "(dp1
S'com.adobe.type.autohint'
p2
(S'data'
S'<data>\\n  <hintSetList>\\n    <hintset pointTag=\"hr00\">\\n      <hstem pos=\"-55\" width=\"15\"/>\\n      <hstem pos=\"21\" width=\"-21\"/>\\n      <vstem pos=\"54\" width=\"125\"/>\\n      <vstem pos=\"116\" width=\"63\"/>\\n    </hintset>\\n  </hintSetList>\\n  </data>'
Ntp3
s."
EndChar

StartChar: hyphen
Encoding: 13 45 13
GlifName: hyphen
Width: 361
VWidth: 0
Flags: W
LayerCount: 2
Back
Fore
SplineSet
308 210 m 257
NamedP: "hr00"
 54 210 l 257
 54 156 l 257
 308 156 l 257
 308 210 l 257
NamedP: "hr00"
EndSplineSet
PickledDataWithLists: "(dp1
S'com.adobe.type.autohint'
p2
(S'data'
S'<data>\\n  <hintSetList>\\n    <hintset pointTag=\"hr00\">\\n      <hstem pos=\"156\" width=\"54\"/>\\n      <vstem pos=\"54\" width=\"254\"/>\\n    </hintset>\\n  </hintSetList>\\n  </data>'
Ntp3
s."
EndChar

StartChar: period
Encoding: 14 46 14
GlifName: period
Width: 236
VWidth: 0
Flags: W
LayerCount: 2
Back
Fore
SplineSet
183 52 m 256
NamedP: "hr00"
 183 70 176 84 163 95 c 256
 152 105 138 110 122 110 c 256
 103 110 88 105 75 96 c 256
 61 85 54 71 54 52 c 256
 54 34 61 20 75 9 c 256
 87 0 101 -5 118 -5 c 256
 135 -5 149 0 162 9 c 256
 176 20 183 34 183 52 c 256
NamedP: "hr00"
EndSplineSet
PickledDataWithLists: "(dp1
S'com.adobe.type.autohint'
p2
(S'data'
S'<data>\\n  <hintSetList>\\n    <hintset pointTag=\"hr00\">\\n      <hstem pos=\"-5\" width=\"115\"/>\\n      <vstem pos=\"54\" width=\"129\"/>\\n    </hintset>\\n  </hintSetList>\\n  </data>'
Ntp3
s."
EndChar

StartChar: slash
Encoding: 15 47 15
GlifName: slash
Width: 552
VWidth: 0
Flags: W
LayerCount: 2
Back
Fore
SplineSet
394 517 m 257
NamedP: "hr00"
 54 -161 l 257
 150 -161 l 257
 498 517 l 257
 394 517 l 257
NamedP: "hr00"
EndSplineSet
PickledDataWithLists: "(dp1
S'com.adobe.type.autohint'
p2
(S'data'
S'<data>\\n  <hintSetList>\\n    <hintset pointTag=\"hr00\">\\n      <hstem pos=\"-161\" width=\"678\"/>\\n      <vstem pos=\"54\" width=\"444\"/>\\n    </hintset>\\n  </hintSetList>\\n  </data>'
Ntp3
s."
EndChar

StartChar: zero
Encoding: 16 48 16
GlifName: zero
Width: 563
VWidth: 0
Flags: W
LayerCount: 2
Back
Fore
SplineSet
409 209 m 256
NamedP: "hr00"
 409 154 402 115 388 90 c 256
 369 57 334 40 283 40 c 256
 237 40 203 57 180 90 c 256
 161 117 152 152 152 194 c 256
 152 246 162 286 181 314 c 256
 203 347 238 364 285 364 c 256
 330 364 363 348 384 315 c 256
 401 289 409 254 409 209 c 256
NamedP: "hr00"
530 196 m 256
 530 266 510 320 471 357 c 256
 428 396 363 416 276 416 c 256
 201 416 142 397 97 358 c 256
 54 319 32 269 32 208 c 256
 32 137 55 83 102 44 c 256
 147 8 208 -10 287 -10 c 256
 356 -10 412 7 456 40 c 256
 505 77 530 129 530 196 c 256
EndSplineSet
PickledDataWithLists: "(dp1
S'com.adobe.type.autohint'
p2
(S'data'
S'<data>\\n  <hintSetList>\\n    <hintset pointTag=\"hr00\">\\n      <hstem pos=\"-10\" width=\"50\"/>\\n      <hstem pos=\"364\" width=\"52\"/>\\n      <vstem pos=\"32\" width=\"120\"/>\\n      <vstem pos=\"409\" width=\"121\"/>\\n    </hintset>\\n  </hintSetList>\\n  </data>'
Ntp3
s."
EndChar

StartChar: one
Encoding: 17 49 17
GlifName: one
Width: 562
VWidth: 0
Flags: W
LayerCount: 2
Back
Fore
SplineSet
468 57 m 257
NamedP: "hr00"
 375 57 l 258
 365 57 357 62 352 71 c 256
 348 78 346 88 346 99 c 258
 346 411 l 257
 266 411 l 257
 264 392 251 374 228 358 c 256
 207 344 185 335 160 330 c 257
 160 285 l 257
 202 285 l 258
 209 285 213 284 216 281 c 256
 218 278 219 274 219 267 c 258
 219 93 l 258
 219 80 217 70 214 64 c 256
 211 58 204 55 193 55 c 258
 94 55 l 257
 94 -5 l 257
 468 -5 l 257
 468 57 l 257
NamedP: "hr00"
EndSplineSet
PickledDataWithLists: "(dp1
S'com.adobe.type.autohint'
p2
(S'data'
S'<data>\\n  <hintSetList>\\n    <hintset pointTag=\"hr00\">\\n      <hstem pos=\"-5\" width=\"60\"/>\\n      <hstem pos=\"285\" width=\"45\"/>\\n      <vstem pos=\"219\" width=\"127\"/>\\n    </hintset>\\n  </hintSetList>\\n  </data>'
Ntp3
s."
EndChar

StartChar: two
Encoding: 18 50 18
GlifName: two
Width: 562
VWidth: 0
Flags: W
LayerCount: 2
Back
Fore
SplineSet
528 129 m 257
NamedP: "hr00"
 405 129 l 257
 405 53 l 257
 173 53 l 257
 170 58 169 66 169 76 c 256
 169 122 226 153 341 172 c 258
 395 181 l 258
 434 188 463 199 482 214 c 256
 507 233 519 260 519 293 c 256
 519 338 492 371 439 392 c 256
 399 408 351 416 296 416 c 256
 211 416 150 405 112 383 c 256
 70 359 49 319 49 264 c 257
 173 264 l 257
 171 269 170 273 170 277 c 256
 170 303 180 324 201 339 c 256
 221 354 248 362 281 362 c 256
 308 362 329 359 345 352 c 256
 369 341 381 323 381 298 c 256
 381 261 332 236 235 221 c 256
 222 219 213 217 208 216 c 256
 146 203 101 182 73 153 c 256
 47 126 34 88 34 39 c 256
 34 30 35 15 38 -5 c 257
 528 -5 l 257
 528 129 l 257
NamedP: "hr00"
EndSplineSet
PickledDataWithLists: "(dp1
S'com.adobe.type.autohint'
p2
(S'data'
S'<data>\\n  <hintSetList>\\n    <hintset pointTag=\"hr00\">\\n      <hstem pos=\"-5\" width=\"58\"/>\\n      <hstem pos=\"362\" width=\"54\"/>\\n      <vstem pos=\"34\" width=\"135\"/>\\n      <vstem pos=\"49\" width=\"121\"/>\\n      <vstem pos=\"381\" width=\"138\"/>\\n      <vstem pos=\"405\" width=\"123\"/>\\n    </hintset>\\n  </hintSetList>\\n  </data>'
Ntp3
s."
EndChar

StartChar: three
Encoding: 19 51 19
GlifName: three
Width: 563
VWidth: 0
Flags: W
LayerCount: 2
Back
Fore
SplineSet
530 125 m 256
NamedP: "hr00"
 530 146 522 165 505 181 c 256
 492 194 476 203 457 209 c 257
 469 214 480 222 490 235 c 256
 503 252 509 271 509 292 c 256
 509 331 486 362 439 385 c 256
 396 406 345 416 286 416 c 256
 219 416 164 405 121 383 c 256
 71 358 45 320 44 269 c 257
 171 269 l 257
 168 277 167 285 167 292 c 256
 167 312 179 329 203 344 c 256
 225 357 249 363 274 363 c 256
 305 363 330 357 349 345 c 256
 368 333 377 317 377 297 c 256
 377 272 366 256 344 245 c 256
 327 237 299 232 260 232 c 257
 260 184 l 257
 303 184 332 181 349 175 c 256
 374 166 387 147 387 120 c 256
 387 99 376 80 354 65 c 256
 333 51 308 44 280 44 c 256
 243 44 214 51 193 65 c 256
 170 80 158 102 158 129 c 257
 33 129 l 257
 42 74 74 36 129 13 c 256
 166 -2 215 -10 274 -10 c 256
 354 -10 417 3 463 28 c 256
 508 52 530 84 530 125 c 256
NamedP: "hr00"
EndSplineSet
PickledDataWithLists: "(dp1
S'com.adobe.type.autohint'
p2
(S'data'
S'<data>\\n  <hintSetList>\\n    <hintset pointTag=\"hr00\">\\n      <hstem pos=\"-10\" width=\"54\"/>\\n      <hstem pos=\"184\" width=\"48\"/>\\n      <hstem pos=\"363\" width=\"53\"/>\\n      <vstem pos=\"33\" width=\"497\"/>\\n      <vstem pos=\"33\" width=\"125\"/>\\n      <vstem pos=\"44\" width=\"123\"/>\\n      <vstem pos=\"377\" width=\"132\"/>\\n      <vstem pos=\"387\" width=\"143\"/>\\n    </hintset>\\n  </hintSetList>\\n  </data>'
Ntp3
s."
EndChar

StartChar: four
Encoding: 20 52 20
GlifName: four
Width: 563
VWidth: 0
Flags: W
LayerCount: 2
Back
Fore
SplineSet
132 125 m 257
NamedP: "hr00"
 311 359 l 257
 311 125 l 257
 132 125 l 257
NamedP: "hr00"
513 125 m 257
 437 125 l 257
 437 411 l 257
 269 411 l 257
 49 128 l 257
 49 69 l 257
 311 69 l 257
 311 -5 l 257
 437 -5 l 257
 437 69 l 257
 513 69 l 257
 513 125 l 257
EndSplineSet
PickledDataWithLists: "(dp1
S'com.adobe.type.autohint'
p2
(S'data'
S'<data>\\n  <hintSetList>\\n    <hintset pointTag=\"hr00\">\\n      <hstem pos=\"69\" width=\"56\"/>\\n      <hstem pos=\"359\" width=\"52\"/>\\n      <vstem pos=\"311\" width=\"126\"/>\\n    </hintset>\\n  </hintSetList>\\n  </data>'
Ntp3
s."
EndChar

StartChar: five
Encoding: 21 53 21
GlifName: five
Width: 564
VWidth: 0
Flags: W
LayerCount: 2
Back
Fore
SplineSet
517 159 m 256
NamedP: "hr00"
 517 204 495 240 452 265 c 256
 413 288 365 299 308 299 c 256
 286 299 263 297 238 292 c 256
 206 285 184 275 171 263 c 257
 171 356 l 257
 490 356 l 257
 490 411 l 257
 49 411 l 257
 49 193 l 257
 177 193 l 257
 178 208 190 221 215 232 c 256
 238 243 261 248 286 248 c 256
 315 248 339 241 356 228 c 256
 377 213 387 189 387 158 c 256
 387 115 375 84 351 65 c 256
 333 50 309 43 279 43 c 256
 244 43 217 50 199 65 c 256
 183 79 175 98 175 122 c 256
 175 128 175 133 176 137 c 257
 47 137 l 257
 47 88 66 52 104 27 c 256
 142 2 197 -10 270 -10 c 256
 341 -10 398 2 441 27 c 256
 492 57 517 101 517 159 c 256
NamedP: "hr00"
EndSplineSet
PickledDataWithLists: "(dp1
S'com.adobe.type.autohint'
p2
(S'data'
S'<data>\\n  <hintSetList>\\n    <hintset pointTag=\"hr00\">\\n      <hstem pos=\"-10\" width=\"53\"/>\\n      <hstem pos=\"248\" width=\"51\"/>\\n      <hstem pos=\"356\" width=\"55\"/>\\n      <vstem pos=\"47\" width=\"128\"/>\\n      <vstem pos=\"49\" width=\"122\"/>\\n      <vstem pos=\"387\" width=\"130\"/>\\n    </hintset>\\n  </hintSetList>\\n  </data>'
Ntp3
s."
EndChar

StartChar: six
Encoding: 22 54 22
GlifName: six
Width: 563
VWidth: 0
Flags: W
LayerCount: 2
Back
Fore
SplineSet
397 141 m 256
NamedP: "hr00"
 397 110 385 87 361 71 c 256
 341 57 317 50 288 50 c 256
 262 50 239 57 218 70 c 256
 194 85 182 106 182 131 c 256
 182 165 197 190 228 207 c 256
 250 219 276 225 305 225 c 256
 329 225 349 219 366 208 c 256
 387 194 397 172 397 141 c 256
NamedP: "hr00"
518 148 m 256
 518 191 494 224 447 247 c 256
 408 266 363 276 312 276 c 256
 281 276 252 272 225 263 c 256
 195 254 173 241 158 225 c 257
 158 272 167 308 187 333 c 256
 210 361 245 375 294 375 c 256
 329 375 356 367 374 352 c 256
 391 339 399 324 399 306 c 257
 398 296 l 257
 499 296 l 257
 494 331 476 359 445 380 c 256
 408 404 355 416 288 416 c 256
 214 416 155 397 111 359 c 256
 67 320 45 268 45 203 c 256
 45 130 73 74 128 37 c 256
 173 6 230 -10 298 -10 c 256
 361 -10 413 4 454 33 c 256
 497 62 518 100 518 148 c 256
EndSplineSet
PickledDataWithLists: "(dp1
S'com.adobe.type.autohint'
p2
(S'data'
S'<data>\\n  <hintSetList>\\n    <hintset pointTag=\"hr00\">\\n      <hstem pos=\"-10\" width=\"60\"/>\\n      <hstem pos=\"225\" width=\"51\"/>\\n      <hstem pos=\"375\" width=\"41\"/>\\n      <vstem pos=\"45\" width=\"113\"/>\\n      <vstem pos=\"397\" width=\"121\"/>\\n      <vstem pos=\"399\" width=\"100\"/>\\n    </hintset>\\n  </hintSetList>\\n  </data>'
Ntp3
s."
EndChar

StartChar: seven
Encoding: 23 55 23
GlifName: seven
Width: 564
VWidth: 0
Flags: W
LayerCount: 2
Back
Fore
SplineSet
511 411 m 257
NamedP: "hr00"
 54 411 l 257
 54 352 l 257
 354 352 l 257
 316 322 276 267 233 187 c 256
 188 104 165 40 165 -5 c 257
 302 -5 l 257
 301 -2 301 3 301 10 c 256
 301 63 320 126 357 199 c 256
 401 286 452 337 511 352 c 257
 511 411 l 257
NamedP: "hr00"
EndSplineSet
PickledDataWithLists: "(dp1
S'com.adobe.type.autohint'
p2
(S'data'
S'<data>\\n  <hintSetList>\\n    <hintset pointTag=\"hr00\">\\n      <hstem pos=\"352\" width=\"59\"/>\\n      <vstem pos=\"54\" width=\"457\"/>\\n      <vstem pos=\"165\" width=\"136\"/>\\n    </hintset>\\n  </hintSetList>\\n  </data>'
Ntp3
s."
EndChar

StartChar: eight
Encoding: 24 56 24
GlifName: eight
Width: 562
VWidth: 0
Flags: W
LayerCount: 2
Back
Fore
SplineSet
394 116 m 256
NamedP: "hr00"
 394 96 385 80 366 67 c 256
 345 53 317 46 281 46 c 256
 240 46 212 54 193 68 c 256
 177 81 168 97 168 118 c 256
 168 139 175 155 190 166 c 256
 209 181 238 188 278 188 c 256
 317 188 347 181 367 167 c 256
 385 155 394 138 394 116 c 256
NamedP: "hr00"
372 300 m 256
 372 281 362 265 343 252 c 257
 326 243 305 238 279 238 c 256
 249 238 225 242 206 252 c 256
 187 262 177 278 177 297 c 256
 177 318 183 334 196 345 c 256
 212 359 239 366 276 366 c 256
 308 366 332 360 349 349 c 256
 364 338 372 321 372 300 c 256
514 132 m 256
 514 155 506 176 491 193 c 256
 476 209 455 220 429 227 c 257
 447 234 462 243 473 255 c 256
 485 269 491 284 491 301 c 256
 491 338 473 365 437 385 c 256
 400 405 345 416 273 416 c 256
 212 416 162 406 123 385 c 256
 83 364 63 336 63 302 c 256
 63 287 69 272 82 259 c 256
 92 248 107 237 127 228 c 257
 104 219 85 207 70 191 c 256
 55 174 48 154 48 132 c 256
 48 87 68 52 109 27 c 256
 149 2 203 -10 272 -10 c 256
 343 -10 400 2 445 28 c 256
 491 54 514 89 514 132 c 256
EndSplineSet
PickledDataWithLists: "(dp1
S'com.adobe.type.autohint'
p2
(S'data'
S'<data>\\n  <hintSetList>\\n    <hintset pointTag=\"hr00\">\\n      <hstem pos=\"-10\" width=\"56\"/>\\n      <hstem pos=\"188\" width=\"50\"/>\\n      <hstem pos=\"366\" width=\"50\"/>\\n      <vstem pos=\"48\" width=\"466\"/>\\n      <vstem pos=\"48\" width=\"120\"/>\\n      <vstem pos=\"63\" width=\"114\"/>\\n      <vstem pos=\"372\" width=\"119\"/>\\n      <vstem pos=\"394\" width=\"120\"/>\\n    </hintset>\\n  </hintSetList>\\n  </data>'
Ntp3
s."
EndChar

StartChar: nine
Encoding: 25 57 25
GlifName: nine
Width: 562
VWidth: 0
Flags: W
LayerCount: 2
Back
Fore
SplineSet
171 265 m 256
NamedP: "hr00"
 171 296 181 319 202 335 c 256
 220 350 242 357 269 357 c 256
 304 357 330 350 348 336 c 256
 366 323 375 302 375 275 c 256
 375 240 363 215 340 199 c 256
 323 187 300 181 273 181 c 256
 248 181 226 186 208 197 c 256
 183 212 171 235 171 265 c 256
NamedP: "hr00"
50 258 m 256
 50 215 72 182 116 159 c 256
 151 140 195 130 246 130 c 256
 276 130 305 134 333 143 c 256
 362 152 385 165 400 181 c 257
 400 134 390 98 370 73 c 256
 347 44 312 30 264 30 c 256
 239 30 218 37 202 50 c 256
 186 63 178 80 178 101 c 257
 179 110 l 257
 59 110 l 257
 64 75 82 47 113 26 c 256
 150 2 202 -10 269 -10 c 256
 343 -10 402 8 446 46 c 256
 490 84 512 137 512 203 c 256
 512 276 484 331 429 369 c 256
 384 400 327 416 259 416 c 256
 197 416 147 402 108 374 c 256
 69 345 50 307 50 258 c 256
EndSplineSet
PickledDataWithLists: "(dp1
S'com.adobe.type.autohint'
p2
(S'data'
S'<data>\\n  <hintSetList>\\n    <hintset pointTag=\"hr00\">\\n      <hstem pos=\"-10\" width=\"40\"/>\\n      <hstem pos=\"130\" width=\"51\"/>\\n      <hstem pos=\"357\" width=\"59\"/>\\n      <vstem pos=\"50\" width=\"121\"/>\\n      <vstem pos=\"59\" width=\"119\"/>\\n      <vstem pos=\"400\" width=\"112\"/>\\n    </hintset>\\n  </hintSetList>\\n  </data>'
Ntp3
s."
EndChar

StartChar: colon
Encoding: 26 58 26
GlifName: colon
Width: 236
VWidth: 0
Flags: W
LayerCount: 2
Back
Fore
SplineSet
183 54 m 256
NamedP: "hr00"
 183 72 176 86 163 97 c 256
 152 107 138 112 122 112 c 256
 103 112 88 107 75 97 c 256
 61 86 54 72 54 54 c 256
 54 35 61 21 75 10 c 256
 87 1 101 -4 118 -4 c 256
 135 -4 150 1 162 10 c 256
 176 21 183 35 183 54 c 256
NamedP: "hr00"
183 255 m 256
 183 272 176 287 163 298 c 256
 152 308 138 313 122 313 c 256
 103 313 88 308 75 298 c 256
 61 287 54 273 54 254 c 256
 54 236 61 222 75 211 c 256
 87 202 101 197 118 197 c 256
 135 197 150 202 162 211 c 256
 176 222 183 236 183 255 c 256
EndSplineSet
PickledDataWithLists: "(dp1
S'com.adobe.type.autohint'
p2
(S'data'
S'<data>\\n  <hintSetList>\\n    <hintset pointTag=\"hr00\">\\n      <hstem pos=\"-4\" width=\"317\"/>\\n      <hstem pos=\"-4\" width=\"116\"/>\\n      <hstem pos=\"197\" width=\"116\"/>\\n      <vstem pos=\"54\" width=\"129\"/>\\n    </hintset>\\n  </hintSetList>\\n  </data>'
Ntp3
s."
EndChar

StartChar: semicolon
Encoding: 27 59 27
GlifName: semicolon
Width: 289
VWidth: 0
Flags: W
LayerCount: 2
Back
Fore
SplineSet
111 -75 m 257
NamedP: "hr00"
 115 -81 122 -86 133 -89 c 256
 140 -90 149 -91 160 -91 c 256
 181 -91 198 -83 211 -67 c 256
 224 -52 231 -32 231 -8 c 256
 231 13 226 29 217 42 c 257
 204 57 185 65 162 65 c 256
 149 65 137 61 126 53 c 256
 113 43 106 28 106 8 c 256
 106 -5 110 -16 117 -24 c 256
 124 -33 136 -38 151 -38 c 256
 158 -38 164 -38 167 -37 c 257
 168 -38 168 -41 168 -44 c 256
 168 -56 163 -64 153 -69 c 256
 145 -74 135 -77 124 -76 c 258
 111 -75 l 257
NamedP: "hr00"
236 260 m 256
 236 279 230 294 217 305 c 256
 206 315 192 320 175 320 c 256
 156 320 141 315 128 306 c 256
 114 295 107 279 107 260 c 256
 107 242 114 228 127 217 c 257
 140 208 154 204 171 204 c 256
 188 204 202 208 215 217 c 256
 229 228 236 242 236 260 c 256
EndSplineSet
PickledDataWithLists: "(dp1
S'com.adobe.type.autohint'
p2
(S'data'
S'<data>\\n  <hintSetList>\\n    <hintset pointTag=\"hr00\">\\n      <hstem pos=\"-91\" width=\"15\"/>\\n      <hstem pos=\"-38\" width=\"103\"/>\\n      <hstem pos=\"204\" width=\"116\"/>\\n      <vstem pos=\"106\" width=\"130\"/>\\n      <vstem pos=\"168\" width=\"63\"/>\\n    </hintset>\\n  </hintSetList>\\n  </data>'
Ntp3
s."
EndChar

StartChar: equal
Encoding: 29 61 29
GlifName: equal
Width: 413
VWidth: 0
Flags: W
LayerCount: 2
Back
Fore
SplineSet
363 223 m 257
NamedP: "hr00"
 363 275 l 257
 53 275 l 257
 53 223 l 257
 363 223 l 257
NamedP: "hr00"
363 58 m 257
 363 109 l 257
 53 109 l 257
 53 58 l 257
 363 58 l 257
EndSplineSet
PickledDataWithLists: "(dp1
S'com.adobe.type.autohint'
p2
(S'data'
S'<data>\\n  <hintSetList>\\n    <hintset pointTag=\"hr00\">\\n      <hstem pos=\"58\" width=\"51\"/>\\n      <hstem pos=\"223\" width=\"52\"/>\\n      <vstem pos=\"53\" width=\"310\"/>\\n    </hintset>\\n  </hintSetList>\\n  </data>'
Ntp3
s."
EndChar

StartChar: uni2018
Encoding: 95 8216 95
GlifName: uni2018
Width: 318
VWidth: 0
Flags: W
LayerCount: 2
Back
Fore
SplineSet
246 554 m 256
NamedP: "hr00"
 246 573 240 590 228 604 c 256
 215 618 199 625 181 625 c 256
 171 625 161 623 151 620 c 256
 141 616 133 612 127 607 c 257
 127 627 135 647 152 667 c 256
 171 688 193 701 219 707 c 257
 204 736 l 257
 161 728 127 707 104 674 c 256
 85 645 75 611 75 572 c 256
 75 545 83 523 98 505 c 256
 115 485 139 475 168 475 c 256
 193 475 212 483 227 498 c 256
 240 512 246 531 246 554 c 256
NamedP: "hr00"
EndSplineSet
PickledDataWithLists: "(dp1
S'com.adobe.type.autohint'
p2
(S'data'
S'<data>\\n  <hintSetList>\\n    <hintset pointTag=\"hr00\">\\n      <hstem pos=\"475\" width=\"261\"/>\\n      <hstem pos=\"475\" width=\"150\"/>\\n      <vstem pos=\"75\" width=\"52\"/>\\n    </hintset>\\n  </hintSetList>\\n  </data>'
Ntp3
s."
EndChar

StartChar: uni2019
Encoding: 96 8217 96
GlifName: uni2019
Width: 318
VWidth: 0
Flags: W
LayerCount: 2
Back
Fore
SplineSet
75 657 m 256
NamedP: "hr00"
 75 638 81 621 93 607 c 256
 106 593 122 586 140 586 c 256
 150 586 160 587 171 590 c 257
 181 594 189 599 195 604 c 257
 195 583 186 563 169 543 c 256
 151 523 129 510 102 504 c 257
 117 475 l 257
 161 483 195 504 218 537 c 256
 237 565 246 599 246 639 c 256
 246 665 239 687 224 705 c 256
 207 726 183 736 154 736 c 256
 129 736 109 728 95 713 c 256
 82 699 75 680 75 657 c 256
NamedP: "hr00"
EndSplineSet
PickledDataWithLists: "(dp1
S'com.adobe.type.autohint'
p2
(S'data'
S'<data>\\n  <hintSetList>\\n    <hintset pointTag=\"hr00\">\\n      <hstem pos=\"475\" width=\"261\"/>\\n      <hstem pos=\"586\" width=\"150\"/>\\n      <vstem pos=\"195\" width=\"51\"/>\\n    </hintset>\\n  </hintSetList>\\n  </data>'
Ntp3
s."
EndChar

StartChar: uni201C
Encoding: 97 8220 97
GlifName: uni201C_
Width: 495
VWidth: 0
Flags: W
LayerCount: 2
Back
Fore
SplineSet
424 470 m 256
NamedP: "hr00"
 424 482 416 497 401 516 c 256
 386 534 378 549 378 561 c 256
 378 588 382 613 391 636 c 257
 398 660 409 681 424 698 c 257
 394 713 l 257
 365 689 342 661 327 630 c 256
 311 597 303 564 303 531 c 256
 303 502 310 477 321 457 c 256
 333 436 346 425 363 425 c 256
 380 425 395 429 406 438 c 256
 418 447 424 458 424 470 c 256
NamedP: "hr00"
196 470 m 256
 196 482 189 497 174 516 c 256
 159 534 151 549 151 561 c 256
 151 588 156 613 163 636 c 256
 171 660 181 681 196 698 c 257
 166 713 l 257
 137 689 114 661 99 630 c 256
 83 597 75 564 75 531 c 256
 75 502 82 477 93 457 c 256
 105 436 119 425 136 425 c 256
 153 425 167 429 178 438 c 256
 190 447 196 458 196 470 c 256
EndSplineSet
PickledDataWithLists: "(dp1
S'com.adobe.type.autohint'
p2
(S'data'
S'<data>\\n  <hintSetList>\\n    <hintset pointTag=\"hr00\">\\n      <hstem pos=\"425\" width=\"288\"/>\\n      <vstem pos=\"75\" width=\"76\"/>\\n      <vstem pos=\"303\" width=\"75\"/>\\n    </hintset>\\n  </hintSetList>\\n  </data>'
Ntp3
s."
EndChar

StartChar: uni201D
Encoding: 98 8221 98
GlifName: uni201D_
Width: 495
VWidth: 0
Flags: W
LayerCount: 2
Back
Fore
SplineSet
303 592 m 256
NamedP: "hr00"
 303 579 310 564 325 546 c 256
 340 528 348 513 348 501 c 256
 348 474 343 449 336 426 c 256
 328 402 318 381 303 364 c 257
 333 349 l 257
 362 373 385 401 400 432 c 256
 416 465 424 498 424 531 c 256
 424 560 417 585 406 605 c 256
 394 626 380 637 363 637 c 256
 346 637 332 632 321 623 c 256
 309 614 303 604 303 592 c 256
NamedP: "hr00"
75 592 m 256
 75 579 83 564 98 546 c 256
 113 528 121 513 121 501 c 256
 121 474 117 449 108 426 c 257
 101 402 90 381 75 364 c 257
 105 349 l 257
 134 373 157 401 172 432 c 256
 188 465 196 498 196 531 c 256
 196 560 189 585 178 605 c 256
 166 626 153 637 136 637 c 256
 119 637 104 632 93 623 c 256
 81 614 75 604 75 592 c 256
EndSplineSet
PickledDataWithLists: "(dp1
S'com.adobe.type.autohint'
p2
(S'data'
S'<data>\\n  <hintSetList>\\n    <hintset pointTag=\"hr00\">\\n      <hstem pos=\"349\" width=\"288\"/>\\n      <vstem pos=\"121\" width=\"75\"/>\\n      <vstem pos=\"348\" width=\"76\"/>\\n    </hintset>\\n  </hintSetList>\\n  </data>'
Ntp3
s."
EndChar

StartChar: .notdef
Encoding: 107 -1 107
GlifName: _notdef
Width: 619
VWidth: 0
Flags: W
LayerCount: 2
Back
Fore
SplineSet
268 112 m 257
NamedP: "hr00"
 241 129 220 151 205 178 c 257
 154 142 l 257
 174 108 200 81 233 60 c 257
 268 112 l 257
NamedP: "hr00"
418 83 m 257
 403 79 388 77 373 77 c 256
 357 77 342 79 327 83 c 257
 317 20 l 257
 336 17 354 15 372 15 c 256
 391 15 409 17 427 20 c 257
 418 83 l 257
187 230 m 257
 183 245 181 261 181 277 c 256
 181 293 183 309 187 324 c 257
 126 335 l 257
 122 316 120 297 120 277 c 256
 120 257 122 238 126 220 c 257
 187 230 l 257
233 496 m 257
 200 474 174 447 154 414 c 257
 205 377 l 257
 220 405 241 427 268 444 c 257
 233 496 l 257
541 178 m 257
 524 151 503 129 476 112 c 257
 511 60 l 257
 544 81 570 108 590 142 c 257
 541 178 l 257
624 277 m 256
 624 296 622 316 618 335 c 257
 559 324 l 257
 562 309 564 293 564 277 c 256
 564 261 562 245 559 230 c 257
 618 220 l 257
 622 240 624 259 624 277 c 256
427 534 m 257
 409 539 391 541 372 541 c 256
 354 541 336 539 317 534 c 257
 327 472 l 257
 342 475 357 477 373 477 c 256
 388 477 403 475 418 472 c 257
 427 534 l 257
590 414 m 257
 571 447 544 474 511 496 c 257
 476 444 l 257
 503 427 524 405 541 377 c 257
 590 414 l 257
EndSplineSet
PickledDataWithLists: "(dp1
S'com.adobe.type.autohint'
p2
(S'data'
S'<data>\\n  <hintSetList>\\n    <hintset pointTag=\"hr00\">\\n      <hstem pos=\"15\" width=\"62\"/>\\n      <hstem pos=\"477\" width=\"64\"/>\\n      <vstem pos=\"120\" width=\"61\"/>\\n      <vstem pos=\"564\" width=\"60\"/>\\n    </hintset>\\n  </hintSetList>\\n  </data>'
Ntp3
s."
EndChar

StartChar: Nukta
Encoding: 110 2364 110
GlifName: Nukta_
Width: 0
VWidth: 0
Flags: W
LayerCount: 2
Back
Fore
SplineSet
570 1025 m 256
NamedP: "hr00"
 570 1039 575 1050 584 1058 c 256
 593 1067 605 1072 621 1072 c 256
 636 1072 649 1067 658 1058 c 256
 665 1050 669 1039 669 1025 c 256
 669 1010 665 999 658 991 c 257
 649 983 636 979 621 979 c 256
 606 979 594 982 586 988 c 256
 575 995 570 1008 570 1025 c 256
NamedP: "hr00"
633 920 m 258
 670 920 699 928 722 944 c 256
 745 961 757 983 757 1010 c 256
 757 1047 741 1073 708 1089 c 256
 684 1101 652 1107 613 1107 c 256
 581 1107 553 1102 530 1091 c 256
 499 1077 483 1056 483 1029 c 256
 483 1020 484 1011 486 1002 c 256
 489 992 493 984 498 979 c 257
 130 979 l 257
 130 920 l 257
 633 920 l 258
EndSplineSet
PickledDataWithLists: "(dp1
S'com.adobe.type.autohint'
p2
(S'data'
S'<data>\\n  <hintSetList>\\n    <hintset pointTag=\"hr00\">\\n      <hstem pos=\"920\" width=\"59\"/>\\n      <hstem pos=\"1072\" width=\"35\"/>\\n      <vstem pos=\"483\" width=\"87\"/>\\n      <vstem pos=\"669\" width=\"88\"/>\\n    </hintset>\\n  </hintSetList>\\n  </data>'
Ntp3
s."
EndChar

StartChar: uni0950
Encoding: 111 2384 111
GlifName: uni0950
Width: 756
VWidth: 0
Flags: W
LayerCount: 2
Back
Fore
SplineSet
349 663 m 257
NamedP: "hr00"
 396 613 l 257
 444 659 l 257
 396 708 l 257
 349 663 l 257
NamedP: "hr00"
262 618 m 257
 306 550 359 516 422 516 c 256
 463 516 504 538 545 582 c 257
 483 634 l 257
 456 597 423 579 386 579 c 256
 347 579 314 597 285 634 c 257
 262 618 l 257
505 386 m 257
 522 421 549 438 587 438 c 256
 642 438 681 384 681 305 c 256
 681 222 637 162 580 162 c 256
 546 162 529 190 529 245 c 258
 529 273 l 257
 529 327 l 258
 529 358 521 378 505 386 c 257
36 330 m 257
 44 235 74 156 125 93 c 256
 177 30 238 -1 307 -1 c 256
 394 -1 450 53 450 133 c 256
 450 182 430 233 391 286 c 257
 420 305 443 315 462 315 c 256
 484 315 495 294 495 253 c 258
 495 219 l 258
 495 128 518 95 577 95 c 256
 661 95 715 178 715 310 c 256
 715 441 675 505 595 505 c 256
 534 505 497 468 483 394 c 257
 476 395 471 396 468 396 c 256
 431 396 393 376 352 337 c 257
 339 350 l 257
 346 365 350 381 350 400 c 256
 350 487 292 546 211 546 c 256
 179 546 148 539 119 524 c 257
 151 449 l 257
 186 468 219 477 251 477 c 256
 295 477 316 459 316 424 c 256
 316 377 280 343 209 322 c 257
 241 247 l 257
 273 262 300 285 323 316 c 257
 367 271 389 222 389 167 c 256
 389 108 343 61 286 61 c 256
 233 61 185 86 143 137 c 256
 102 188 75 255 62 337 c 257
 36 330 l 257
EndSplineSet
PickledDataWithLists: "(dp1
S'com.adobe.type.autohint'
p2
(S'data'
S'<data>\\n  <hintSetList>\\n    <hintset pointTag=\"hr00\">\\n      <hstem pos=\"-1\" width=\"62\"/>\\n      <hstem pos=\"95\" width=\"67\"/>\\n      <hstem pos=\"315\" width=\"81\"/>\\n      <hstem pos=\"438\" width=\"67\"/>\\n      <hstem pos=\"477\" width=\"69\"/>\\n      <hstem pos=\"516\" width=\"63\"/>\\n      <vstem pos=\"316\" width=\"34\"/>\\n      <vstem pos=\"389\" width=\"61\"/>\\n      <vstem pos=\"495\" width=\"34\"/>\\n      <vstem pos=\"681\" width=\"34\"/>\\n    </hintset>\\n  </hintSetList>\\n  </data>'
Ntp3
s."
EndChar

StartChar: Udatta
Encoding: 112 2385 112
GlifName: Udatta_
Width: 0
VWidth: 0
Flags: W
LayerCount: 2
Back
Fore
SplineSet
365 930 m 257
NamedP: "hr00"
 365 1294 l 257
 282 1294 l 257
 282 930 l 257
 365 930 l 257
NamedP: "hr00"
EndSplineSet
PickledDataWithLists: "(dp1
S'com.adobe.type.autohint'
p2
(S'data'
S'<data>\\n  <hintSetList>\\n    <hintset pointTag=\"hr00\">\\n      <hstem pos=\"930\" width=\"364\"/>\\n      <vstem pos=\"282\" width=\"83\"/>\\n    </hintset>\\n  </hintSetList>\\n  </data>'
Ntp3
s."
EndChar

StartChar: Anudatta
Encoding: 113 2386 113
GlifName: Anudatta_
Width: 0
VWidth: 0
Flags: W
LayerCount: 2
Back
Fore
SplineSet
121 -516 m 257
NamedP: "hr00"
 523 -516 l 257
 523 -425 l 257
 121 -425 l 257
 121 -516 l 257
NamedP: "hr00"
EndSplineSet
PickledDataWithLists: "(dp1
S'com.adobe.type.autohint'
p2
(S'data'
S'<data>\\n  <hintSetList>\\n    <hintset pointTag=\"hr00\">\\n      <hstem pos=\"-516\" width=\"91\"/>\\n      <vstem pos=\"121\" width=\"402\"/>\\n    </hintset>\\n  </hintSetList>\\n  </data>'
Ntp3
s."
EndChar

StartChar: KaHalanth
Encoding: 114 2387 114
GlifName: KaHalanth_
Width: 602
VWidth: 0
Flags: W
LayerCount: 2
Back
Fore
SplineSet
613 655 m 257
NamedP: "hr00"
 200 655 l 258
 174 655 152 647 135 631 c 256
 117 614 108 595 108 573 c 256
 108 560 112 547 119 534 c 256
 126 521 137 511 150 504 c 257
 137 503 126 497 118 486 c 256
 109 475 104 461 104 446 c 256
 104 427 111 411 126 398 c 256
 141 385 160 378 181 378 c 258
 326 378 l 257
 326 426 l 257
 279 426 l 258
 267 426 257 429 249 435 c 256
 240 442 236 449 236 458 c 256
 236 465 240 471 248 476 c 256
 256 481 265 484 276 484 c 258
 471 484 l 257
 471 536 l 257
 274 536 l 258
 264 536 255 539 248 545 c 257
 240 550 236 557 236 565 c 256
 236 574 241 582 250 588 c 256
 259 595 270 598 283 598 c 258
 613 598 l 257
 613 655 l 257
NamedP: "hr00"
291 269 m 258
 240 269 203 273 180 280 c 256
 159 287 148 297 148 311 c 256
 148 334 160 352 184 363 c 256
 205 372 237 376 280 376 c 256
 304 376 329 370 356 358 c 256
 388 343 404 324 404 303 c 257
 536 303 l 257
 533 337 512 364 475 386 c 256
 431 412 367 426 283 426 c 256
 213 426 155 417 108 400 c 256
 47 379 16 345 16 300 c 256
 16 266 32 241 64 226 c 256
 91 214 129 209 180 209 c 258
 283 209 l 258
 335 209 370 205 389 196 c 256
 410 186 420 167 420 140 c 256
 420 109 408 87 383 73 c 256
 361 61 327 54 280 54 c 256
 236 54 203 62 181 79 c 256
 160 96 150 123 150 160 c 257
 10 160 l 257
 10 102 32 59 75 35 c 256
 117 11 184 0 275 0 c 256
 355 0 417 8 460 24 c 256
 521 47 551 86 551 141 c 256
 551 187 531 221 490 243 c 256
 457 260 413 269 358 269 c 258
 291 269 l 258
EndSplineSet
PickledDataWithLists: "(dp1
S'com.adobe.type.autohint'
p2
(S'data'
S'<data>\\n  <hintSetList>\\n    <hintset pointTag=\"hr00\">\\n      <hstem pos=\"0\" width=\"54\"/>\\n      <hstem pos=\"209\" width=\"60\"/>\\n      <hstem pos=\"378\" width=\"48\"/>\\n      <hstem pos=\"484\" width=\"52\"/>\\n      <hstem pos=\"598\" width=\"57\"/>\\n      <vstem pos=\"10\" width=\"140\"/>\\n      <vstem pos=\"16\" width=\"132\"/>\\n      <vstem pos=\"420\" width=\"131\"/>\\n    </hintset>\\n  </hintSetList>\\n  </data>'
Ntp3
s."
EndChar

StartChar: DEVANAGARI_DANDA
Encoding: 115 2404 115
GlifName: DEVANAGARI__DANDA_
Width: 243
VWidth: 0
Flags: W
LayerCount: 2
Back
Fore
SplineSet
186 -37 m 257
NamedP: "hr00"
 186 456 l 257
 125 456 l 257
 125 -37 l 257
 186 -37 l 257
NamedP: "hr00"
EndSplineSet
PickledDataWithLists: "(dp1
S'com.adobe.type.autohint'
p2
(S'data'
S'<data>\\n  <hintSetList>\\n    <hintset pointTag=\"hr00\">\\n      <hstem pos=\"-37\" width=\"493\"/>\\n      <vstem pos=\"125\" width=\"61\"/>\\n    </hintset>\\n  </hintSetList>\\n  </data>'
Ntp3
s."
EndChar

StartChar: DEVANAGARI_DOUBLE_DANDA
Encoding: 116 2405 116
GlifName: DEVANAGARI__DOUBLE__DANDA_
Width: 437
VWidth: 0
Flags: W
LayerCount: 2
Back
Fore
SplineSet
380 -37 m 257
NamedP: "hr00"
 380 456 l 257
 319 456 l 257
 319 -37 l 257
 380 -37 l 257
NamedP: "hr00"
186 -37 m 257
 186 456 l 257
 125 456 l 257
 125 -37 l 257
 186 -37 l 257
EndSplineSet
PickledDataWithLists: "(dp1
S'com.adobe.type.autohint'
p2
(S'data'
S'<data>\\n  <hintSetList>\\n    <hintset pointTag=\"hr00\">\\n      <hstem pos=\"-37\" width=\"493\"/>\\n      <vstem pos=\"125\" width=\"61\"/>\\n      <vstem pos=\"319\" width=\"61\"/>\\n    </hintset>\\n  </hintSetList>\\n  </data>'
Ntp3
s."
EndChar

StartChar: Arasunna
Encoding: 117 3073 117
GlifName: Arasunna_
Width: 319
VWidth: 0
Flags: W
LayerCount: 2
Back
Fore
SplineSet
308 425 m 257
NamedP: "hr00"
 295 428 282 429 269 429 c 256
 186 429 122 410 78 373 c 256
 33 334 10 279 10 206 c 256
 10 139 30 88 70 53 c 256
 110 18 167 0 240 0 c 256
 264 0 287 3 308 9 c 257
 308 54 l 257
 302 53 294 53 284 53 c 256
 238 53 202 69 176 101 c 256
 153 131 141 170 141 218 c 256
 141 268 150 305 169 329 c 256
 192 358 229 373 280 373 c 256
 292 373 301 372 308 371 c 257
 308 425 l 257
NamedP: "hr00"
EndSplineSet
PickledDataWithLists: "(dp1
S'com.adobe.type.autohint'
p2
(S'data'
S'<data>\\n  <hintSetList>\\n    <hintset pointTag=\"hr00\">\\n      <hstem pos=\"0\" width=\"53\"/>\\n      <hstem pos=\"373\" width=\"56\"/>\\n      <vstem pos=\"10\" width=\"131\"/>\\n    </hintset>\\n  </hintSetList>\\n  </data>'
Ntp3
s."
EndChar

StartChar: Anusvara
Encoding: 118 3074 118
GlifName: Anusvara_
Width: 579
VWidth: 0
Flags: W
LayerCount: 2
Back
Fore
SplineSet
423 221 m 256
NamedP: "hr00"
 423 164 411 121 388 93 c 256
 363 64 327 49 278 49 c 256
 229 49 193 63 171 90 c 256
 151 116 141 155 141 206 c 256
 141 266 152 309 174 335 c 256
 197 362 234 375 286 375 c 256
 335 375 371 362 393 336 c 256
 413 312 423 274 423 221 c 256
NamedP: "hr00"
554 216 m 256
 555 282 530 334 481 371 c 256
 434 407 370 425 291 425 c 256
 197 425 126 405 78 366 c 256
 33 329 10 279 10 216 c 256
 10 145 34 91 81 54 c 256
 127 18 193 0 278 0 c 256
 353 0 415 16 464 49 c 256
 521 87 552 143 554 216 c 256
EndSplineSet
PickledDataWithLists: "(dp1
S'com.adobe.type.autohint'
p2
(S'data'
S'<data>\\n  <hintSetList>\\n    <hintset pointTag=\"hr00\">\\n      <hstem pos=\"0\" width=\"49\"/>\\n      <hstem pos=\"375\" width=\"50\"/>\\n      <vstem pos=\"10\" width=\"131\"/>\\n      <vstem pos=\"423\" width=\"131\"/>\\n    </hintset>\\n  </hintSetList>\\n  </data>'
Ntp3
s."
EndChar

StartChar: Visarga
Encoding: 119 3075 119
GlifName: Visarga_
Width: 348
VWidth: 0
Flags: W
LayerCount: 2
Back
Fore
SplineSet
218 340 m 256
NamedP: "hr00"
 218 317 213 300 203 291 c 256
 194 284 181 280 163 280 c 256
 146 280 133 284 124 291 c 256
 114 300 109 315 109 335 c 256
 109 355 114 370 125 379 c 256
 134 386 147 390 163 390 c 256
 180 390 194 386 203 379 c 256
 213 370 218 357 218 340 c 256
NamedP: "hr00"
319 335 m 256
 319 367 302 392 268 410 c 256
 239 425 205 433 164 433 c 256
 121 433 86 425 59 410 c 256
 26 393 10 368 10 335 c 256
 10 301 26 275 58 258 c 256
 85 243 119 236 161 236 c 256
 204 236 239 243 268 258 c 256
 302 275 319 301 319 335 c 256
218 103 m 256
 218 80 213 63 203 54 c 256
 194 47 181 43 163 43 c 256
 146 43 133 47 124 54 c 256
 114 63 109 78 109 98 c 256
 109 118 114 132 125 141 c 256
 134 149 147 153 163 153 c 256
 180 153 194 149 203 141 c 256
 213 133 218 120 218 103 c 256
319 98 m 256
 319 129 302 155 268 173 c 256
 239 189 205 195 164 195 c 256
 121 195 86 188 59 173 c 256
 26 155 10 130 10 98 c 256
 10 63 26 37 58 20 c 256
 85 6 119 -1 161 -1 c 256
 204 -1 239 6 268 20 c 256
 302 37 319 63 319 98 c 256
EndSplineSet
PickledDataWithLists: "(dp1
S'com.adobe.type.autohint'
p2
(S'data'
S'<data>\\n  <hintSetList>\\n    <hintset pointTag=\"hr00\">\\n      <hstem pos=\"-1\" width=\"44\"/>\\n      <hstem pos=\"153\" width=\"42\"/>\\n      <hstem pos=\"236\" width=\"44\"/>\\n      <hstem pos=\"390\" width=\"43\"/>\\n      <vstem pos=\"10\" width=\"99\"/>\\n      <vstem pos=\"218\" width=\"101\"/>\\n    </hintset>\\n  </hintSetList>\\n  </data>'
Ntp3
s."
EndChar

StartChar: uni0C05
Encoding: 120 3077 120
GlifName: uni0C05_
Width: 701
VWidth: 0
Flags: W
LayerCount: 2
Back
Fore
SplineSet
229 328 m 256
NamedP: "hr00"
 229 302 224 284 214 275 c 256
 207 269 196 266 181 266 c 256
 168 266 157 269 149 276 c 256
 139 285 134 299 134 318 c 256
 134 341 139 358 149 368 c 256
 156 376 167 380 181 380 c 256
 196 380 207 377 214 370 c 256
 224 362 229 348 229 328 c 256
NamedP: "hr00"
675 238 m 256
 677 302 655 351 616 385 c 256
 581 415 535 430 476 430 c 256
 426 430 389 415 365 385 c 256
 347 362 338 332 338 295 c 256
 338 277 341 260 348 243 c 256
 355 227 365 212 378 198 c 257
 233 198 l 257
 233 149 l 257
 478 149 l 257
 478 199 l 257
 465 199 453 206 444 219 c 256
 434 234 429 254 429 281 c 256
 429 306 432 326 439 343 c 256
 448 366 463 378 483 378 c 256
 508 378 524 362 534 330 c 256
 540 309 544 282 544 248 c 256
 544 178 528 128 496 98 c 256
 465 68 411 53 336 53 c 256
 272 53 221 65 183 89 c 256
 138 117 116 160 116 219 c 256
 116 234 117 245 119 254 c 257
 123 243 131 235 144 229 c 256
 157 223 173 220 193 220 c 256
 224 220 249 228 270 243 c 256
 296 262 309 289 309 326 c 256
 309 361 298 387 278 405 c 256
 257 423 229 433 191 433 c 256
 136 433 93 416 61 383 c 256
 27 348 10 299 10 236 c 256
 10 153 37 92 90 55 c 256
 142 18 225 0 339 0 c 256
 433 0 508 16 565 49 c 256
 634 89 673 152 675 238 c 256
EndSplineSet
PickledDataWithLists: "(dp1
S'com.adobe.type.autohint'
p2
(S'data'
S'<data>\\n  <hintSetList>\\n    <hintset pointTag=\"hr00\">\\n      <hstem pos=\"0\" width=\"53\"/>\\n      <hstem pos=\"149\" width=\"49\"/>\\n      <hstem pos=\"220\" width=\"46\"/>\\n      <hstem pos=\"378\" width=\"52\"/>\\n      <hstem pos=\"380\" width=\"53\"/>\\n      <vstem pos=\"10\" width=\"106\"/>\\n      <vstem pos=\"229\" width=\"80\"/>\\n      <vstem pos=\"338\" width=\"91\"/>\\n      <vstem pos=\"544\" width=\"131\"/>\\n    </hintset>\\n  </hintSetList>\\n  </data>'
Ntp3
s."
EndChar

StartChar: AA
Encoding: 121 3078 121
GlifName: AA_
Width: 700
VWidth: 0
Flags: W
LayerCount: 2
Back
Fore
SplineSet
229 328 m 256
NamedP: "hr00"
 229 302 224 284 214 275 c 256
 207 269 196 266 181 266 c 256
 168 266 157 269 148 276 c 256
 137 285 131 299 131 318 c 256
 131 340 137 357 148 368 c 256
 156 376 167 380 181 380 c 256
 196 380 207 377 214 370 c 256
 224 362 229 348 229 328 c 256
NamedP: "hr00"
575 311 m 256
 575 286 569 266 558 253 c 256
 547 241 532 235 514 235 c 256
 497 235 482 241 471 253 c 256
 459 267 453 287 453 313 c 256
 453 340 460 359 474 370 c 256
 483 377 497 380 514 380 c 256
 532 380 546 376 555 368 c 256
 568 357 575 338 575 311 c 256
336 0 m 256
 421 0 493 10 551 28 c 256
 627 51 665 85 665 133 c 256
 665 152 658 169 645 186 c 256
 632 201 618 211 603 214 c 257
 622 220 637 230 648 245 c 256
 660 261 666 280 666 303 c 256
 666 347 649 379 616 400 c 256
 587 419 547 428 494 428 c 256
 447 428 411 418 388 398 c 256
 366 379 355 350 355 313 c 256
 355 291 360 272 369 255 c 256
 380 234 397 220 421 213 c 257
 234 213 l 257
 234 154 l 257
 530 154 l 257
 533 147 534 140 534 134 c 256
 534 111 518 91 485 75 c 256
 450 58 404 50 345 50 c 256
 280 50 228 63 188 88 c 256
 140 117 116 160 116 219 c 256
 116 234 117 245 119 254 c 257
 123 243 131 235 144 229 c 256
 157 223 173 220 193 220 c 256
 224 220 249 228 270 243 c 256
 296 262 309 289 309 326 c 256
 309 361 298 387 278 405 c 256
 257 423 229 433 191 433 c 256
 136 433 93 416 61 383 c 256
 27 348 10 299 10 236 c 256
 10 153 36 92 89 55 c 256
 140 18 222 0 336 0 c 256
EndSplineSet
PickledDataWithLists: "(dp1
S'com.adobe.type.autohint'
p2
(S'data'
S'<data>\\n  <hintSetList>\\n    <hintset pointTag=\"hr00\">\\n      <hstem pos=\"0\" width=\"50\"/>\\n      <hstem pos=\"154\" width=\"59\"/>\\n      <hstem pos=\"220\" width=\"46\"/>\\n      <hstem pos=\"380\" width=\"48\"/>\\n      <hstem pos=\"380\" width=\"53\"/>\\n      <vstem pos=\"10\" width=\"106\"/>\\n      <vstem pos=\"229\" width=\"80\"/>\\n      <vstem pos=\"355\" width=\"98\"/>\\n      <vstem pos=\"534\" width=\"131\"/>\\n      <vstem pos=\"575\" width=\"91\"/>\\n    </hintset>\\n  </hintSetList>\\n  </data>'
Ntp3
s."
EndChar

StartChar: uni0C07
Encoding: 122 3079 122
GlifName: uni0C07_
Width: 695
VWidth: 0
Flags: W
LayerCount: 2
Back
Fore
SplineSet
324 203 m 256
NamedP: "hr00"
 358 203 389 200 418 195 c 256
 453 189 477 180 490 168 c 257
 486 137 469 112 438 95 c 256
 412 81 381 74 346 74 c 256
 281 74 234 79 204 89 c 256
 173 100 158 117 158 140 c 256
 158 161 169 177 190 186 c 256
 216 198 261 203 324 203 c 256
NamedP: "hr00"
679 5 m 258
 679 38 671 72 654 106 c 256
 641 134 627 154 613 165 c 257
 626 207 633 239 633 260 c 256
 633 312 619 352 591 381 c 256
 561 412 517 428 458 428 c 256
 423 428 394 424 370 413 c 256
 351 405 337 394 329 381 c 257
 322 397 306 409 283 418 c 256
 263 425 239 428 211 428 c 256
 140 428 88 417 55 394 c 256
 25 373 10 343 10 304 c 256
 10 293 10 285 11 280 c 257
 138 280 l 257
 141 314 l 257
 141 329 147 342 159 355 c 256
 172 370 191 378 214 378 c 256
 241 378 260 372 269 361 c 256
 276 354 280 340 280 319 c 258
 280 295 l 257
 368 295 l 257
 368 316 l 258
 368 335 373 350 383 360 c 256
 393 369 407 374 426 374 c 256
 453 374 473 363 486 340 c 256
 496 321 501 297 501 268 c 256
 501 257 500 244 499 229 c 257
 457 250 383 260 278 260 c 256
 193 260 130 250 90 230 c 256
 47 209 26 175 26 126 c 256
 26 83 54 50 111 29 c 256
 160 10 223 0 301 0 c 256
 341 0 386 7 435 20 c 256
 494 36 535 57 556 84 c 257
 562 77 567 69 570 60 c 256
 573 51 574 40 574 28 c 256
 574 16 573 3 571 -12 c 257
 679 -12 l 257
 679 5 l 258
EndSplineSet
PickledDataWithLists: "(dp1
S'com.adobe.type.autohint'
p2
(S'data'
S'<data>\\n  <hintSetList>\\n    <hintset pointTag=\"hr00\">\\n      <hstem pos=\"0\" width=\"74\"/>\\n      <hstem pos=\"203\" width=\"57\"/>\\n      <hstem pos=\"374\" width=\"54\"/>\\n      <hstem pos=\"378\" width=\"50\"/>\\n      <vstem pos=\"10\" width=\"131\"/>\\n      <vstem pos=\"26\" width=\"132\"/>\\n      <vstem pos=\"280\" width=\"88\"/>\\n      <vstem pos=\"501\" width=\"132\"/>\\n      <vstem pos=\"574\" width=\"105\"/>\\n    </hintset>\\n  </hintSetList>\\n  </data>'
Ntp3
s."
EndChar

StartChar: II
Encoding: 123 3080 123
GlifName: II_
Width: 1010
VWidth: 0
Flags: W
LayerCount: 2
Back
Fore
SplineSet
884 148 m 256
NamedP: "hr00"
 884 123 880 106 871 96 c 257
 863 85 849 80 829 80 c 256
 810 80 795 85 786 95 c 256
 778 104 774 118 774 136 c 256
 774 159 778 175 786 186 c 256
 795 198 810 204 829 204 c 256
 848 204 862 199 871 188 c 256
 880 179 884 165 884 148 c 256
NamedP: "hr00"
369 375 m 256
 412 375 444 366 466 348 c 256
 489 329 503 301 509 263 c 257
 218 263 l 257
 225 302 240 330 264 348 c 256
 288 366 323 375 369 375 c 256
360 49 m 256
 309 49 270 62 246 90 c 256
 224 114 214 154 214 205 c 257
 510 205 l 257
 510 154 499 115 473 88 c 256
 448 62 409 49 360 49 c 256
490 580 m 257
 462 537 435 504 410 481 c 256
 379 453 350 439 323 439 c 256
 298 439 279 445 268 456 c 256
 256 467 250 484 250 505 c 257
 115 505 l 257
 115 475 121 450 134 430 c 256
 145 412 161 398 183 388 c 257
 156 373 135 355 118 334 c 256
 103 314 92 290 86 263 c 257
 10 263 l 257
 10 205 l 257
 83 205 l 257
 83 138 108 86 158 51 c 256
 205 17 273 0 360 0 c 256
 437 0 500 15 549 46 c 256
 607 82 637 135 640 205 c 257
 718 205 l 257
 703 200 691 191 684 178 c 256
 677 165 674 149 674 130 c 256
 674 99 688 76 716 60 c 256
 742 46 777 39 821 39 c 256
 873 39 913 48 940 65 c 256
 969 84 984 114 984 153 c 256
 984 176 978 197 966 214 c 256
 954 231 938 243 918 250 c 257
 931 259 942 270 949 283 c 257
 958 296 963 310 963 325 c 256
 963 358 950 384 923 403 c 256
 898 421 865 430 826 430 c 256
 773 430 734 422 711 406 c 256
 689 391 677 363 676 323 c 257
 769 323 l 257
 767 327 766 333 766 340 c 256
 766 359 772 372 785 379 c 256
 794 383 805 385 819 385 c 256
 846 385 864 378 874 365 c 256
 880 357 883 345 883 328 c 256
 883 305 874 287 856 276 c 256
 842 267 822 263 796 263 c 258
 635 263 l 257
 627 304 607 339 574 366 c 256
 541 392 500 410 449 419 c 257
 510 450 568 493 625 550 c 257
 490 580 l 257
EndSplineSet
PickledDataWithLists: "(dp1
S'com.adobe.type.autohint'
p2
(S'data'
S'<data>\\n  <hintSetList>\\n    <hintset pointTag=\"hr00\">\\n      <hstem pos=\"0\" width=\"49\"/>\\n      <hstem pos=\"39\" width=\"41\"/>\\n      <hstem pos=\"205\" width=\"58\"/>\\n      <hstem pos=\"375\" width=\"64\"/>\\n      <hstem pos=\"385\" width=\"45\"/>\\n      <vstem pos=\"83\" width=\"131\"/>\\n      <vstem pos=\"510\" width=\"130\"/>\\n      <vstem pos=\"674\" width=\"100\"/>\\n      <vstem pos=\"676\" width=\"90\"/>\\n      <vstem pos=\"883\" width=\"80\"/>\\n      <vstem pos=\"884\" width=\"100\"/>\\n    </hintset>\\n  </hintSetList>\\n  </data>'
Ntp3
s."
EndChar

StartChar: uni0C09
Encoding: 124 3081 124
GlifName: uni0C09_
Width: 765
VWidth: 0
Flags: W
LayerCount: 2
Back
Fore
SplineSet
756 263 m 257
NamedP: "hr00"
 700 263 l 257
 707 255 713 244 718 231 c 256
 723 219 725 210 725 204 c 257
 756 204 l 257
 756 263 l 257
NamedP: "hr00"
584 238 m 256
 584 225 580 215 573 208 c 256
 567 202 559 199 548 199 c 256
 539 199 531 201 525 206 c 256
 518 212 514 220 514 231 c 256
 514 246 518 257 525 264 c 256
 530 268 538 270 548 270 c 256
 559 270 567 268 573 264 c 256
 580 258 584 249 584 238 c 256
468 530 m 257
 468 561 460 582 444 595 c 256
 434 604 419 608 398 608 c 256
 383 608 370 603 360 594 c 256
 344 581 336 557 336 524 c 256
 336 497 342 478 355 466 c 256
 365 458 378 454 395 454 c 256
 412 454 426 458 436 466 c 256
 451 479 462 500 468 530 c 257
86 204 m 257
 86 199 l 258
 86 132 103 81 136 48 c 256
 168 16 216 0 279 0 c 256
 305 0 329 5 351 14 c 256
 374 23 392 36 405 51 c 257
 411 37 424 25 444 16 c 256
 467 5 493 0 523 0 c 256
 578 0 624 14 661 43 c 256
 697 70 715 103 715 144 c 256
 715 198 703 238 679 263 c 256
 653 290 610 303 550 303 c 256
 512 303 483 298 463 289 c 256
 437 277 424 257 424 229 c 256
 424 206 432 188 448 176 c 256
 465 163 489 158 520 158 c 256
 537 158 551 160 564 163 c 256
 579 167 589 173 596 180 c 257
 596 130 l 258
 596 104 588 84 573 70 c 256
 558 57 541 51 520 51 c 256
 493 51 475 59 463 74 c 256
 452 88 445 111 445 144 c 257
 359 144 l 257
 359 113 353 90 340 74 c 256
 327 59 310 51 289 51 c 256
 263 51 244 62 231 83 c 256
 218 105 211 140 211 189 c 258
 211 204 l 257
 390 204 l 257
 390 263 l 257
 221 263 l 257
 229 304 247 333 275 350 c 256
 304 367 348 376 408 376 c 256
 441 376 470 372 494 364 c 256
 525 354 542 339 546 320 c 257
 670 320 l 257
 661 362 629 392 576 409 c 256
 536 422 480 429 408 429 c 256
 316 429 245 417 196 394 c 256
 141 367 106 324 93 263 c 257
 10 263 l 257
 10 204 l 257
 86 204 l 257
EndSplineSet
PickledDataWithLists: "(dp1
S'com.adobe.type.autohint'
p2
(S'data'
S'<data>\\n  <hintSetList>\\n    <hintset pointTag=\"hr00\">\\n      <hstem pos=\"0\" width=\"51\"/>\\n      <hstem pos=\"158\" width=\"41\"/>\\n      <hstem pos=\"204\" width=\"59\"/>\\n      <hstem pos=\"270\" width=\"33\"/>\\n      <hstem pos=\"376\" width=\"53\"/>\\n      <hstem pos=\"454\" width=\"154\"/>\\n      <vstem pos=\"86\" width=\"125\"/>\\n      <vstem pos=\"359\" width=\"31\"/>\\n      <vstem pos=\"424\" width=\"90\"/>\\n      <vstem pos=\"596\" width=\"119\"/>\\n      <vstem pos=\"725\" width=\"31\"/>\\n    </hintset>\\n  </hintSetList>\\n  </data>'
Ntp3
s."
EndChar

StartChar: UU
Encoding: 125 3082 125
GlifName: UU_
Width: 1092
VWidth: 0
Flags: W
LayerCount: 2
Back
Fore
SplineSet
799 204 m 257
NamedP: "hr00"
 784 199 772 189 765 176 c 256
 758 165 755 149 755 130 c 256
 755 99 769 76 798 60 c 256
 823 46 858 39 903 39 c 256
 954 39 994 48 1021 65 c 256
 1050 84 1065 114 1065 153 c 256
 1065 176 1058 197 1046 214 c 256
 1034 231 1019 243 999 250 c 257
 1012 259 1023 270 1031 283 c 256
 1040 296 1044 310 1044 325 c 256
 1044 358 1031 384 1004 403 c 256
 979 421 947 430 908 430 c 256
 853 430 815 422 794 406 c 256
 771 389 759 361 758 320 c 257
 850 320 l 257
 849 326 848 333 848 340 c 256
 848 359 854 372 866 379 c 256
 875 383 886 385 900 385 c 256
 927 385 945 378 955 365 c 256
 961 357 964 345 964 328 c 256
 964 305 955 287 938 276 c 256
 923 267 903 263 878 263 c 258
 700 263 l 257
 725 204 l 257
 799 204 l 257
NamedP: "hr00"
584 238 m 256
 584 225 580 215 573 208 c 256
 567 202 559 199 548 199 c 256
 539 199 531 201 525 206 c 256
 518 212 514 220 514 231 c 256
 514 246 518 257 525 264 c 256
 530 268 538 270 548 270 c 256
 559 270 567 268 573 264 c 256
 580 258 584 249 584 238 c 256
976 148 m 256
 976 125 971 108 961 96 c 257
 950 85 935 80 915 80 c 256
 896 80 882 85 873 95 c 256
 864 104 860 118 860 136 c 256
 860 159 864 175 873 186 c 256
 882 198 896 204 915 204 c 256
 934 204 950 199 961 188 c 256
 971 178 976 165 976 148 c 256
535 530 m 257
 535 561 527 582 511 595 c 256
 501 604 486 608 465 608 c 256
 450 608 438 603 428 594 c 256
 412 581 404 557 404 524 c 256
 404 497 410 478 423 466 c 256
 433 458 446 454 463 454 c 256
 480 454 494 458 504 466 c 256
 519 479 529 500 535 530 c 257
380 530 m 257
 380 561 372 582 356 595 c 256
 346 604 331 608 310 608 c 256
 295 608 283 603 273 594 c 256
 257 581 249 557 249 524 c 256
 249 497 255 478 268 466 c 256
 277 458 290 454 308 454 c 256
 325 454 339 458 349 466 c 256
 364 479 374 500 380 530 c 257
86 204 m 257
 86 199 l 258
 86 132 103 81 136 48 c 256
 168 16 216 0 279 0 c 256
 305 0 329 5 351 14 c 256
 374 23 392 36 405 51 c 257
 411 37 424 25 444 16 c 256
 467 5 493 0 523 0 c 256
 578 0 624 14 661 43 c 256
 697 70 715 103 715 144 c 256
 715 198 703 238 679 263 c 256
 653 290 610 303 550 303 c 256
 512 303 483 298 463 289 c 256
 437 277 424 257 424 229 c 256
 424 206 432 188 448 176 c 256
 465 163 489 158 520 158 c 256
 537 158 551 160 564 163 c 256
 579 167 589 173 596 180 c 257
 596 130 l 258
 596 104 588 84 573 70 c 256
 558 57 541 51 520 51 c 256
 493 51 475 59 463 74 c 256
 452 88 445 111 445 144 c 257
 359 144 l 257
 359 113 353 90 340 74 c 256
 327 59 310 51 289 51 c 256
 263 51 244 62 231 83 c 256
 218 105 211 140 211 189 c 258
 211 204 l 257
 390 204 l 257
 390 263 l 257
 221 263 l 257
 229 304 247 333 275 350 c 256
 304 367 348 376 408 376 c 256
 441 376 470 372 494 364 c 256
 525 354 542 339 546 320 c 257
 670 320 l 257
 661 362 629 392 576 409 c 256
 536 422 480 429 408 429 c 256
 316 429 245 417 196 394 c 256
 141 367 106 324 93 263 c 257
 10 263 l 257
 10 204 l 257
 86 204 l 257
EndSplineSet
PickledDataWithLists: "(dp1
S'com.adobe.type.autohint'
p2
(S'data'
S'<data>\\n  <hintSetList>\\n    <hintset pointTag=\"hr00\">\\n      <hstem pos=\"0\" width=\"51\"/>\\n      <hstem pos=\"39\" width=\"41\"/>\\n      <hstem pos=\"158\" width=\"41\"/>\\n      <hstem pos=\"204\" width=\"59\"/>\\n      <hstem pos=\"270\" width=\"33\"/>\\n      <hstem pos=\"376\" width=\"53\"/>\\n      <hstem pos=\"385\" width=\"45\"/>\\n      <hstem pos=\"454\" width=\"154\"/>\\n      <vstem pos=\"86\" width=\"125\"/>\\n      <vstem pos=\"359\" width=\"31\"/>\\n      <vstem pos=\"424\" width=\"90\"/>\\n      <vstem pos=\"596\" width=\"119\"/>\\n      <vstem pos=\"755\" width=\"105\"/>\\n      <vstem pos=\"758\" width=\"90\"/>\\n      <vstem pos=\"964\" width=\"80\"/>\\n      <vstem pos=\"976\" width=\"89\"/>\\n    </hintset>\\n  </hintSetList>\\n  </data>'
Ntp3
s."
EndChar

StartChar: Ru
Encoding: 126 3083 126
GlifName: Ru_
Width: 1379
VWidth: 0
Flags: W
LayerCount: 2
Back
Fore
SplineSet
438 53 m 256
NamedP: "hr00"
 413 53 396 60 386 74 c 256
 375 88 370 111 370 144 c 257
 271 144 l 257
 271 113 266 90 255 75 c 256
 244 61 226 54 203 54 c 256
 185 54 172 62 161 78 c 256
 151 93 145 113 145 139 c 256
 145 166 153 186 168 199 c 256
 182 212 208 222 245 229 c 256
 286 236 314 246 331 261 c 256
 347 275 355 297 355 326 c 256
 355 357 341 382 313 399 c 256
 284 416 245 425 194 425 c 256
 131 425 84 415 55 394 c 256
 25 373 10 340 10 295 c 257
 136 295 l 257
 136 325 l 258
 136 339 142 351 153 361 c 256
 164 371 176 376 191 376 c 256
 210 376 225 371 236 361 c 256
 247 351 253 337 253 320 c 256
 253 301 247 288 234 283 c 257
 221 276 187 268 133 258 c 256
 88 250 57 237 40 219 c 256
 23 200 14 171 14 133 c 256
 14 91 28 58 56 35 c 256
 85 12 125 0 176 0 c 256
 213 0 242 4 264 13 c 256
 285 22 302 36 315 56 c 257
 327 36 344 22 365 13 c 256
 386 4 415 0 454 0 c 256
 494 0 530 8 563 23 c 256
 594 38 618 58 635 85 c 257
 647 59 668 38 698 23 c 256
 729 7 764 -1 803 -1 c 256
 838 -1 871 7 901 24 c 256
 931 40 954 62 971 90 c 257
 982 63 1004 41 1035 24 c 256
 1066 7 1101 -1 1141 -1 c 256
 1204 -1 1255 19 1293 59 c 256
 1331 100 1350 153 1350 220 c 256
 1350 282 1332 332 1296 369 c 256
 1261 406 1213 425 1153 425 c 258
 1110 425 l 257
 1110 376 l 257
 1143 376 1169 362 1189 333 c 256
 1209 304 1219 264 1219 215 c 256
 1219 165 1211 124 1193 94 c 256
 1175 63 1150 49 1121 49 c 256
 1094 49 1069 58 1046 75 c 256
 1023 92 1005 115 994 144 c 257
 1005 185 1011 210 1011 220 c 256
 1011 282 993 332 958 369 c 256
 922 406 874 425 814 425 c 258
 771 425 l 257
 771 376 l 257
 804 376 830 362 850 333 c 256
 870 304 880 264 880 215 c 256
 880 165 872 124 854 94 c 256
 836 63 812 49 783 49 c 256
 757 49 732 57 709 73 c 256
 686 88 669 109 658 136 c 257
 669 174 674 205 674 230 c 256
 674 292 654 341 615 378 c 256
 576 415 524 433 459 433 c 256
 439 433 420 432 403 429 c 257
 403 376 l 257
 408 377 417 378 430 378 c 256
 469 378 497 365 515 339 c 256
 534 313 543 273 543 218 c 256
 543 159 535 116 519 91 c 256
 502 66 475 53 438 53 c 256
NamedP: "hr00"
EndSplineSet
PickledDataWithLists: "(dp1
S'com.adobe.type.autohint'
p2
(S'data'
S'<data>\\n  <hintSetList>\\n    <hintset pointTag=\"hr00\">\\n      <hstem pos=\"-1\" width=\"50\"/>\\n      <hstem pos=\"0\" width=\"53\"/>\\n      <hstem pos=\"376\" width=\"49\"/>\\n      <hstem pos=\"378\" width=\"55\"/>\\n      <vstem pos=\"10\" width=\"126\"/>\\n      <vstem pos=\"14\" width=\"131\"/>\\n      <vstem pos=\"253\" width=\"102\"/>\\n      <vstem pos=\"271\" width=\"99\"/>\\n      <vstem pos=\"543\" width=\"131\"/>\\n      <vstem pos=\"880\" width=\"131\"/>\\n      <vstem pos=\"1219\" width=\"131\"/>\\n    </hintset>\\n  </hintSetList>\\n  </data>'
Ntp3
s."
EndChar

StartChar: Lu
Encoding: 127 3084 127
GlifName: Lu_
Width: 984
VWidth: 0
Flags: W
LayerCount: 2
Back
Fore
SplineSet
10 316 m 256
NamedP: "hr00"
 10 311 10 296 15 271 c 258
 18 255 l 257
 150 255 l 257
 144 271 141 293 141 320 c 256
 141 341 147 358 159 371 c 256
 172 384 188 390 208 390 c 256
 229 390 247 384 260 373 c 256
 273 361 280 345 280 325 c 258
 280 283 l 257
 368 283 l 257
 368 323 l 258
 368 344 373 359 384 370 c 256
 395 381 411 386 433 386 c 256
 458 386 476 379 489 364 c 256
 502 350 508 328 508 299 c 256
 508 265 489 220 449 163 c 256
 410 107 389 62 389 28 c 256
 389 -19 410 -58 453 -91 c 256
 496 -124 548 -141 608 -141 c 256
 712 -141 795 -113 858 -54 c 256
 920 4 951 84 951 181 c 256
 951 254 931 312 888 356 c 256
 846 399 789 421 719 421 c 257
 719 365 l 257
 752 359 778 341 795 311 c 256
 812 280 820 238 820 185 c 256
 820 102 802 35 765 -15 c 256
 729 -65 681 -90 620 -90 c 256
 587 -90 557 -76 534 -49 c 256
 510 -21 499 12 499 51 c 256
 499 86 522 129 569 180 c 256
 616 232 639 275 639 310 c 256
 639 349 623 381 591 405 c 256
 560 428 517 440 464 440 c 256
 431 440 402 435 378 426 c 256
 353 416 337 403 329 388 c 257
 322 403 307 417 283 426 c 256
 258 436 228 440 193 440 c 256
 135 440 90 429 58 408 c 256
 26 386 10 355 10 316 c 256
NamedP: "hr00"
EndSplineSet
PickledDataWithLists: "(dp1
S'com.adobe.type.autohint'
p2
(S'data'
S'<data>\\n  <hintSetList>\\n    <hintset pointTag=\"hr00\">\\n      <hstem pos=\"-141\" width=\"51\"/>\\n      <hstem pos=\"386\" width=\"54\"/>\\n      <hstem pos=\"390\" width=\"50\"/>\\n      <vstem pos=\"10\" width=\"131\"/>\\n      <vstem pos=\"280\" width=\"88\"/>\\n      <vstem pos=\"389\" width=\"110\"/>\\n      <vstem pos=\"508\" width=\"131\"/>\\n      <vstem pos=\"820\" width=\"131\"/>\\n    </hintset>\\n  </hintSetList>\\n  </data>'
Ntp3
s."
EndChar

StartChar: uni0C0E
Encoding: 128 3086 128
GlifName: uni0C0E_
Width: 655
VWidth: 0
Flags: W
LayerCount: 2
Back
Fore
SplineSet
265 155 m 256
NamedP: "hr00"
 265 118 258 93 244 79 c 256
 234 69 219 64 199 64 c 256
 176 64 160 72 151 88 c 256
 144 99 141 118 141 144 c 256
 141 181 147 206 158 219 c 256
 165 229 179 234 199 234 c 256
 222 234 238 229 248 219 c 256
 259 207 265 186 265 155 c 256
NamedP: "hr00"
621 236 m 256
 623 317 602 382 563 429 c 256
 521 480 460 505 381 505 c 257
 381 454 l 257
 418 454 445 434 464 393 c 256
 481 356 490 307 490 244 c 256
 490 183 483 136 470 103 c 256
 457 68 438 51 415 51 c 256
 398 51 385 56 378 65 c 256
 370 77 366 98 366 129 c 256
 366 185 354 227 329 254 c 256
 302 285 258 300 198 300 c 256
 143 300 99 286 64 259 c 256
 28 230 10 192 10 146 c 256
 10 101 27 65 60 38 c 256
 91 13 129 0 176 0 c 256
 205 0 229 3 248 9 c 256
 272 16 292 26 309 41 c 257
 320 26 334 14 353 6 c 257
 370 1 390 -2 415 -2 c 256
 478 -2 528 20 564 64 c 256
 598 105 619 163 621 236 c 256
EndSplineSet
PickledDataWithLists: "(dp1
S'com.adobe.type.autohint'
p2
(S'data'
S'<data>\\n  <hintSetList>\\n    <hintset pointTag=\"hr00\">\\n      <hstem pos=\"-2\" width=\"53\"/>\\n      <hstem pos=\"0\" width=\"64\"/>\\n      <hstem pos=\"234\" width=\"66\"/>\\n      <hstem pos=\"454\" width=\"51\"/>\\n      <vstem3 stem3List=\"10,131,265,101,490,131\"/>\\n    </hintset>\\n  </hintSetList>\\n  </data>'
Ntp3
s."
EndChar

StartChar: EE
Encoding: 129 3087 129
GlifName: EE_
Width: 655
VWidth: 0
Flags: W
LayerCount: 2
Back
Fore
SplineSet
265 155 m 256
NamedP: "hr00"
 265 118 258 93 244 79 c 256
 234 69 219 64 199 64 c 256
 176 64 160 72 151 88 c 256
 144 99 141 118 141 144 c 256
 141 181 147 206 158 219 c 256
 165 229 179 234 199 234 c 256
 222 234 237 229 246 219 c 257
 259 207 265 186 265 155 c 256
NamedP: "hr00"
621 236 m 256
 623 317 603 382 564 429 c 256
 522 480 460 505 381 505 c 257
 381 454 l 257
 418 454 445 434 464 393 c 256
 481 356 490 307 490 244 c 256
 490 183 483 136 470 103 c 256
 457 68 438 51 415 51 c 256
 398 51 385 56 378 65 c 256
 370 77 366 98 366 129 c 256
 366 185 354 227 329 254 c 256
 302 285 258 300 198 300 c 256
 143 300 99 286 64 259 c 256
 28 230 10 192 10 146 c 256
 10 101 27 65 60 38 c 256
 91 13 129 0 176 0 c 256
 205 0 229 3 249 9 c 256
 272 16 292 26 309 41 c 257
 320 26 334 14 353 6 c 257
 370 1 390 -2 415 -2 c 256
 478 -2 528 20 564 64 c 256
 598 105 619 163 621 236 c 256
328 621 m 257
 310 624 293 625 276 625 c 256
 212 625 158 609 115 578 c 256
 68 543 44 498 44 441 c 256
 44 429 45 416 48 401 c 257
 168 401 l 257
 166 409 167 420 171 433 c 256
 174 442 175 448 175 453 c 256
 175 490 183 517 200 536 c 256
 219 557 247 568 286 568 c 256
 301 568 312 567 320 565 c 258
 328 564 l 257
 328 621 l 257
EndSplineSet
PickledDataWithLists: "(dp1
S'com.adobe.type.autohint'
p2
(S'data'
S'<data>\\n  <hintSetList>\\n    <hintset pointTag=\"hr00\">\\n      <hstem pos=\"-2\" width=\"53\"/>\\n      <hstem pos=\"0\" width=\"64\"/>\\n      <hstem pos=\"234\" width=\"66\"/>\\n      <hstem pos=\"454\" width=\"51\"/>\\n      <hstem pos=\"568\" width=\"57\"/>\\n      <vstem pos=\"10\" width=\"131\"/>\\n      <vstem pos=\"44\" width=\"131\"/>\\n      <vstem pos=\"265\" width=\"101\"/>\\n      <vstem pos=\"490\" width=\"131\"/>\\n    </hintset>\\n  </hintSetList>\\n  </data>'
Ntp3
s."
EndChar

StartChar: AI
Encoding: 130 3088 130
GlifName: AI_
Width: 665
VWidth: 0
Flags: W
LayerCount: 2
Back
Fore
SplineSet
634 223 m 256
NamedP: "hr00"
 636 300 616 354 580 386 c 256
 549 415 500 430 434 430 c 256
 405 430 380 425 360 415 c 256
 346 407 334 397 325 384 c 257
 318 400 300 412 271 420 c 256
 247 427 221 430 193 430 c 256
 142 430 100 421 69 403 c 256
 30 380 13 347 18 304 c 257
 144 304 l 257
 144 329 147 347 154 358 c 256
 163 373 181 380 208 380 c 256
 230 380 247 372 260 355 c 256
 271 340 276 323 276 304 c 257
 364 304 l 257
 364 325 369 342 379 356 c 256
 390 371 404 379 423 379 c 256
 456 379 479 362 491 329 c 256
 499 307 503 274 503 230 c 256
 503 166 496 120 483 91 c 256
 471 64 453 51 428 51 c 256
 409 51 394 56 384 65 c 257
 372 78 366 99 366 129 c 256
 366 169 354 201 329 224 c 256
 300 251 257 265 198 265 c 256
 141 265 97 255 65 235 c 256
 30 212 13 179 13 134 c 256
 13 89 29 54 61 31 c 256
 90 10 128 0 176 0 c 256
 205 0 229 3 249 9 c 256
 272 16 292 26 309 41 c 257
 319 26 336 14 359 6 c 257
 379 1 402 -2 428 -2 c 256
 492 -2 540 18 576 58 c 256
 611 96 632 151 634 223 c 256
NamedP: "hr00"
263 145 m 256
 263 114 256 90 241 74 c 256
 230 61 215 54 196 54 c 256
 174 54 159 62 151 78 c 256
 146 89 144 107 144 134 c 256
 144 167 149 189 158 200 c 256
 165 209 177 214 196 214 c 256
 221 214 237 209 246 200 c 256
 257 190 263 172 263 145 c 256
EndSplineSet
PickledDataWithLists: "(dp1
S'com.adobe.type.autohint'
p2
(S'data'
S'<data>\\n  <hintSetList>\\n    <hintset pointTag=\"hr00\">\\n      <hstem pos=\"-2\" width=\"53\"/>\\n      <hstem pos=\"0\" width=\"54\"/>\\n      <hstem pos=\"214\" width=\"51\"/>\\n      <hstem pos=\"380\" width=\"50\"/>\\n      <vstem pos=\"13\" width=\"131\"/>\\n      <vstem pos=\"18\" width=\"126\"/>\\n      <vstem pos=\"263\" width=\"103\"/>\\n      <vstem pos=\"276\" width=\"88\"/>\\n      <vstem pos=\"503\" width=\"131\"/>\\n    </hintset>\\n  </hintSetList>\\n  </data>'
Ntp3
s."
EndChar

StartChar: uni0C12
Encoding: 131 3090 131
GlifName: uni0C12_
Width: 643
VWidth: 0
Flags: W
LayerCount: 2
Back
Fore
SplineSet
628 121 m 256
NamedP: "hr00"
 628 157 614 185 585 204 c 256
 559 221 524 230 481 230 c 258
 455 230 l 257
 455 176 l 257
 475 176 490 173 499 168 c 256
 512 159 518 142 518 119 c 256
 518 96 510 79 493 68 c 256
 478 59 460 54 438 54 c 256
 409 54 389 64 379 84 c 256
 373 95 370 115 370 144 c 257
 271 144 l 257
 271 118 267 98 259 84 c 256
 248 64 230 54 203 54 c 256
 184 54 170 61 160 75 c 256
 150 90 145 112 145 139 c 256
 145 186 179 216 248 229 c 256
 319 242 355 274 355 326 c 257
 358 359 343 385 310 403 c 256
 281 419 242 425 194 425 c 256
 131 425 85 415 56 395 c 256
 25 375 10 342 10 295 c 257
 136 295 l 257
 136 325 l 258
 136 339 141 351 151 361 c 256
 162 371 176 376 191 376 c 256
 211 376 227 371 238 361 c 256
 248 351 253 337 253 320 c 256
 253 292 222 273 160 263 c 256
 63 247 14 204 14 133 c 256
 14 87 30 52 63 29 c 256
 91 10 129 0 176 0 c 256
 209 0 235 3 255 10 c 256
 281 19 301 35 315 56 c 257
 328 34 347 18 373 9 c 256
 394 2 422 -2 458 -2 c 256
 506 -2 545 8 576 28 c 256
 611 50 628 81 628 121 c 256
NamedP: "hr00"
EndSplineSet
PickledDataWithLists: "(dp1
S'com.adobe.type.autohint'
p2
(S'data'
S'<data>\\n  <hintSetList>\\n    <hintset pointTag=\"hr00\">\\n      <hstem pos=\"0\" width=\"54\"/>\\n      <hstem pos=\"176\" width=\"54\"/>\\n      <hstem pos=\"376\" width=\"49\"/>\\n      <vstem pos=\"10\" width=\"126\"/>\\n      <vstem pos=\"14\" width=\"131\"/>\\n      <vstem pos=\"253\" width=\"102\"/>\\n      <vstem pos=\"271\" width=\"99\"/>\\n      <vstem pos=\"518\" width=\"110\"/>\\n    </hintset>\\n  </hintSetList>\\n  </data>'
Ntp3
s."
EndChar

StartChar: OO
Encoding: 132 3091 132
GlifName: OO_
Width: 643
VWidth: 0
Flags: W
LayerCount: 2
Back
Fore
SplineSet
254 420 m 257
NamedP: "hr00"
 245 424 238 430 233 438 c 256
 228 447 225 459 225 475 c 256
 225 494 232 507 245 514 c 256
 252 517 264 519 280 519 c 256
 294 519 306 515 316 508 c 256
 328 498 334 484 334 466 c 257
 425 466 l 257
 425 473 l 258
 425 504 412 529 386 543 c 256
 361 557 323 563 271 563 c 256
 230 563 198 557 174 545 c 256
 143 530 128 507 128 476 c 256
 128 465 129 454 131 445 c 256
 134 436 139 428 146 423 c 257
 101 418 67 406 44 386 c 256
 21 365 10 335 10 295 c 257
 136 295 l 257
 136 325 l 258
 136 339 141 351 151 361 c 256
 162 371 176 376 191 376 c 256
 211 376 227 371 238 361 c 256
 248 351 253 337 253 320 c 256
 253 292 222 273 160 263 c 256
 63 247 14 204 14 133 c 256
 14 87 30 52 63 29 c 256
 91 10 129 0 176 0 c 256
 209 0 235 3 255 10 c 256
 281 19 301 35 315 56 c 257
 328 34 347 18 373 9 c 256
 394 2 422 -2 458 -2 c 256
 506 -2 545 8 576 28 c 256
 611 50 628 81 628 121 c 256
 628 157 614 185 585 204 c 256
 559 221 524 230 481 230 c 258
 455 230 l 257
 455 176 l 257
 475 176 490 173 499 168 c 256
 512 159 518 142 518 119 c 256
 518 96 510 79 493 68 c 256
 478 59 460 54 438 54 c 256
 409 54 389 64 379 84 c 256
 373 95 370 115 370 144 c 257
 271 144 l 257
 271 118 267 98 259 84 c 256
 248 64 230 54 203 54 c 256
 184 54 170 61 160 75 c 256
 150 90 145 112 145 139 c 256
 145 186 179 216 248 229 c 256
 319 242 355 274 355 326 c 257
 358 351 350 372 329 389 c 256
 310 404 285 414 254 420 c 257
NamedP: "hr00"
EndSplineSet
PickledDataWithLists: "(dp1
S'com.adobe.type.autohint'
p2
(S'data'
S'<data>\\n  <hintSetList>\\n    <hintset pointTag=\"hr00\">\\n      <hstem pos=\"0\" width=\"54\"/>\\n      <hstem pos=\"176\" width=\"54\"/>\\n      <hstem pos=\"295\" width=\"128\"/>\\n      <hstem pos=\"519\" width=\"44\"/>\\n      <vstem pos=\"10\" width=\"126\"/>\\n      <vstem pos=\"14\" width=\"131\"/>\\n      <vstem pos=\"128\" width=\"97\"/>\\n      <vstem pos=\"253\" width=\"102\"/>\\n      <vstem pos=\"271\" width=\"99\"/>\\n      <vstem pos=\"334\" width=\"91\"/>\\n      <vstem pos=\"518\" width=\"110\"/>\\n    </hintset>\\n  </hintSetList>\\n  </data>'
Ntp3
s."
EndChar

StartChar: AU
Encoding: 133 3092 133
GlifName: AU_
Width: 729
VWidth: 0
Flags: W
LayerCount: 2
Back
Fore
SplineSet
619 364 m 256
NamedP: "hr00"
 619 344 615 329 608 320 c 256
 600 311 587 306 570 306 c 256
 553 306 541 310 534 319 c 256
 527 327 523 339 523 354 c 256
 523 374 526 388 531 396 c 256
 539 406 552 411 570 411 c 256
 587 411 600 407 608 398 c 256
 615 390 619 379 619 364 c 256
NamedP: "hr00"
628 121 m 256
 628 157 614 185 585 204 c 256
 559 221 524 230 481 230 c 258
 455 230 l 257
 455 176 l 257
 475 176 490 173 499 168 c 256
 512 159 518 142 518 119 c 256
 518 96 510 79 493 68 c 256
 478 59 460 54 438 54 c 256
 409 54 389 64 379 84 c 256
 373 95 370 115 370 144 c 257
 271 144 l 257
 271 118 267 98 259 84 c 256
 248 64 230 54 203 54 c 256
 184 54 170 61 160 75 c 256
 150 90 145 112 145 139 c 256
 145 186 179 216 248 229 c 256
 319 242 355 274 355 326 c 257
 359 341 357 356 348 369 c 256
 340 379 328 389 313 399 c 257
 326 402 337 406 344 413 c 256
 353 420 358 431 358 445 c 256
 358 454 356 461 351 468 c 256
 346 475 340 478 333 478 c 258
 530 478 l 258
 556 478 576 477 591 468 c 256
 604 459 613 448 616 435 c 257
 608 440 598 444 585 445 c 256
 578 446 567 446 553 446 c 256
 516 446 489 440 470 428 c 256
 447 413 436 388 436 354 c 256
 436 328 448 307 473 291 c 256
 496 276 527 269 566 269 c 256
 612 269 648 280 675 301 c 256
 704 324 718 356 718 398 c 256
 718 439 701 473 666 499 c 256
 634 524 592 536 540 536 c 258
 15 536 l 257
 15 478 l 257
 218 478 l 258
 229 478 238 475 244 470 c 256
 250 466 253 460 253 451 c 256
 253 441 248 434 239 430 c 256
 232 427 219 425 200 425 c 258
 40 425 l 257
 40 396 l 257
 58 396 l 257
 42 385 30 372 23 355 c 257
 14 338 10 318 10 295 c 257
 136 295 l 257
 136 325 l 258
 136 339 141 351 151 361 c 256
 162 371 176 376 191 376 c 256
 211 376 227 371 238 361 c 256
 248 351 253 337 253 320 c 256
 253 292 222 273 160 263 c 256
 63 247 14 204 14 133 c 256
 14 87 30 52 63 29 c 256
 91 10 129 0 176 0 c 256
 209 0 235 3 255 10 c 256
 281 19 301 35 315 56 c 257
 328 34 347 18 373 9 c 256
 394 2 422 -2 458 -2 c 256
 506 -2 545 8 576 28 c 256
 611 50 628 81 628 121 c 256
EndSplineSet
PickledDataWithLists: "(dp1
S'com.adobe.type.autohint'
p2
(S'data'
S'<data>\\n  <hintSetList>\\n    <hintset pointTag=\"hr00\">\\n      <hstem pos=\"0\" width=\"54\"/>\\n      <hstem pos=\"176\" width=\"54\"/>\\n      <hstem pos=\"269\" width=\"37\"/>\\n      <hstem pos=\"396\" width=\"29\"/>\\n      <hstem pos=\"411\" width=\"35\"/>\\n      <hstem pos=\"478\" width=\"58\"/>\\n      <vstem pos=\"10\" width=\"126\"/>\\n      <vstem pos=\"14\" width=\"131\"/>\\n      <vstem pos=\"253\" width=\"102\"/>\\n      <vstem pos=\"271\" width=\"99\"/>\\n      <vstem pos=\"436\" width=\"87\"/>\\n      <vstem pos=\"518\" width=\"110\"/>\\n      <vstem pos=\"619\" width=\"99\"/>\\n    </hintset>\\n  </hintSetList>\\n  </data>'
Ntp3
s."
EndChar

StartChar: Ka
Encoding: 134 3093 134
GlifName: Ka_
Width: 574
VWidth: 0
Flags: W
LayerCount: 2
Back
Fore
SplineSet
409 413 m 257
NamedP: "hr00"
 420 418 432 423 443 430 c 256
 496 460 550 502 604 556 c 257
 478 589 l 257
 451 549 417 512 376 479 c 256
 337 448 305 430 278 426 c 257
 258 426 l 257
 244 428 233 436 223 450 c 256
 211 467 204 487 204 511 c 257
 94 511 l 257
 94 467 110 433 141 410 c 257
 129 407 118 404 108 400 c 256
 47 379 16 345 16 300 c 256
 16 266 32 241 64 226 c 256
 91 214 129 209 180 209 c 258
 283 209 l 258
 335 209 370 205 389 196 c 256
 410 186 420 167 420 140 c 256
 420 109 408 87 383 73 c 256
 361 61 327 54 280 54 c 256
 236 54 203 62 181 79 c 256
 160 96 150 123 150 160 c 257
 10 160 l 257
 10 102 32 59 75 35 c 256
 117 11 184 0 275 0 c 256
 350 0 412 12 460 34 c 256
 521 62 551 103 551 160 c 256
 551 205 531 236 490 253 c 256
 462 264 418 269 358 269 c 258
 291 269 l 258
 240 269 203 273 180 280 c 256
 159 287 148 297 148 311 c 256
 148 334 160 352 184 363 c 256
 205 372 237 376 280 376 c 256
 304 376 329 370 356 358 c 256
 388 343 404 324 404 303 c 257
 536 303 l 257
 533 337 512 365 475 386 c 256
 456 397 434 406 409 413 c 257
NamedP: "hr00"
EndSplineSet
PickledDataWithLists: "(dp1
S'com.adobe.type.autohint'
p2
(S'data'
S'<data>\\n  <hintSetList>\\n    <hintset pointTag=\"hr00\">\\n      <hstem pos=\"0\" width=\"54\"/>\\n      <hstem pos=\"209\" width=\"60\"/>\\n      <hstem pos=\"376\" width=\"50\"/>\\n      <vstem pos=\"10\" width=\"140\"/>\\n      <vstem pos=\"16\" width=\"132\"/>\\n      <vstem pos=\"94\" width=\"110\"/>\\n      <vstem pos=\"420\" width=\"131\"/>\\n    </hintset>\\n  </hintSetList>\\n  </data>'
Ntp3
s."
EndChar

StartChar: Kha
Encoding: 135 3094 135
GlifName: Kha_
Width: 776
VWidth: 0
Flags: W
LayerCount: 2
Back
Fore
SplineSet
303 150 m 256
NamedP: "hr00"
 303 116 294 91 274 75 c 256
 261 64 243 57 219 54 c 257
 190 57 169 66 156 81 c 256
 146 94 141 114 141 139 c 256
 141 174 150 199 169 214 c 256
 182 224 200 229 223 229 c 256
 245 229 263 224 278 213 c 257
 295 198 303 177 303 150 c 256
NamedP: "hr00"
434 -79 m 257
 434 -51 426 -31 410 -20 c 256
 399 -13 384 -9 364 -9 c 256
 349 -9 336 -13 326 -21 c 256
 311 -34 303 -55 303 -84 c 256
 303 -109 309 -126 321 -136 c 256
 330 -143 344 -147 361 -147 c 256
 379 -147 393 -143 403 -136 c 256
 418 -125 428 -106 434 -79 c 257
214 375 m 256
 253 375 280 361 293 334 c 256
 300 318 304 292 304 255 c 257
 281 267 249 273 208 273 c 256
 145 273 99 264 68 245 c 256
 29 222 10 184 10 130 c 256
 10 87 29 54 68 31 c 256
 103 10 150 0 210 0 c 256
 256 0 293 6 320 19 c 256
 335 26 352 37 369 54 c 257
 378 37 396 24 421 14 c 256
 446 5 472 0 499 0 c 256
 559 0 609 19 650 58 c 256
 692 98 713 150 713 213 c 256
 713 268 699 317 670 358 c 256
 633 409 579 443 506 443 c 258
 458 443 l 257
 458 390 l 257
 480 390 l 258
 506 390 528 378 545 355 c 256
 569 324 581 278 581 215 c 256
 581 157 571 114 550 86 c 256
 533 65 512 54 486 54 c 256
 469 54 455 58 444 65 c 256
 432 74 428 86 428 101 c 258
 428 215 l 257
 435 281 418 333 378 371 c 256
 340 407 289 425 224 425 c 256
 162 425 114 416 79 399 c 256
 34 376 11 340 11 290 c 257
 131 290 l 257
 131 314 136 333 146 348 c 257
 161 366 183 375 214 375 c 256
EndSplineSet
PickledDataWithLists: "(dp1
S'com.adobe.type.autohint'
p2
(S'data'
S'<data>\\n  <hintSetList>\\n    <hintset pointTag=\"hr00\">\\n      <hstem pos=\"-147\" width=\"138\"/>\\n      <hstem pos=\"0\" width=\"54\"/>\\n      <hstem pos=\"229\" width=\"44\"/>\\n      <hstem pos=\"375\" width=\"50\"/>\\n      <hstem pos=\"390\" width=\"53\"/>\\n      <vstem pos=\"10\" width=\"131\"/>\\n      <vstem pos=\"11\" width=\"120\"/>\\n      <vstem pos=\"303\" width=\"125\"/>\\n      <vstem pos=\"581\" width=\"132\"/>\\n    </hintset>\\n  </hintSetList>\\n  </data>'
Ntp3
s."
EndChar

StartChar: Ga
Encoding: 136 3095 136
GlifName: Ga_
Width: 647
VWidth: 0
Flags: W
LayerCount: 2
Back
Fore
SplineSet
425 408 m 257
NamedP: "hr00"
 440 414 455 421 470 430 c 256
 523 460 577 502 631 556 c 257
 505 589 l 257
 478 549 445 512 404 479 c 256
 369 451 339 434 314 428 c 257
 278 428 l 257
 267 431 258 439 250 450 c 256
 237 467 231 487 231 511 c 257
 121 511 l 257
 121 468 136 434 167 411 c 257
 128 399 98 381 73 356 c 256
 31 314 10 252 10 169 c 256
 10 100 20 44 39 0 c 257
 176 0 l 257
 153 44 141 106 141 186 c 256
 141 252 155 301 184 334 c 256
 210 362 247 376 294 376 c 256
 341 376 376 362 400 334 c 256
 426 302 439 253 439 186 c 256
 439 104 428 42 406 0 c 257
 544 0 l 257
 561 40 570 96 570 169 c 256
 570 250 549 313 506 356 c 256
 484 379 457 396 425 408 c 257
NamedP: "hr00"
EndSplineSet
PickledDataWithLists: "(dp1
S'com.adobe.type.autohint'
p2
(S'data'
S'<data>\\n  <hintSetList>\\n    <hintset pointTag=\"hr00\">\\n      <hstem pos=\"21\" width=\"-21\"/>\\n      <hstem pos=\"376\" width=\"52\"/>\\n      <vstem pos=\"10\" width=\"131\"/>\\n      <vstem pos=\"121\" width=\"110\"/>\\n      <vstem pos=\"439\" width=\"131\"/>\\n    </hintset>\\n  </hintSetList>\\n  </data>'
Ntp3
s."
EndChar

StartChar: Gha
Encoding: 137 3096 137
GlifName: Gha_
Width: 1002
VWidth: 0
Flags: W
LayerCount: 2
Back
Fore
SplineSet
345 -135 m 256
NamedP: "hr00"
 360 -124 371 -105 376 -77 c 257
 376 -50 368 -30 353 -19 c 256
 342 -11 326 -7 306 -7 c 256
 291 -7 279 -11 269 -20 c 256
 253 -33 245 -53 245 -82 c 256
 245 -107 251 -125 264 -135 c 256
 273 -142 287 -146 304 -146 c 256
 321 -146 335 -142 345 -135 c 256
NamedP: "hr00"
579 71 m 257
 589 56 603 42 621 30 c 256
 654 9 694 -1 739 -1 c 256
 802 -1 853 19 890 59 c 256
 929 100 948 153 948 220 c 256
 948 282 930 332 894 369 c 256
 858 406 810 425 750 425 c 258
 708 425 l 257
 708 376 l 257
 740 376 766 362 786 333 c 256
 806 304 816 264 816 215 c 256
 816 165 808 125 790 94 c 256
 773 64 748 49 719 49 c 256
 686 49 656 61 631 85 c 256
 620 95 611 106 604 119 c 257
 613 146 620 177 621 213 c 256
 622 284 601 341 558 379 c 256
 520 414 471 430 414 430 c 258
 385 430 l 257
 385 375 l 257
 417 375 442 362 460 336 c 256
 480 309 490 271 490 223 c 256
 490 164 483 120 470 91 c 256
 457 64 439 51 415 51 c 256
 398 51 385 56 378 65 c 256
 370 77 366 98 366 129 c 256
 366 185 354 227 329 254 c 256
 302 285 258 300 198 300 c 256
 143 300 99 286 64 259 c 256
 28 230 10 192 10 146 c 256
 10 101 27 65 60 38 c 256
 91 13 129 0 176 0 c 256
 205 0 229 3 248 9 c 256
 272 16 292 26 309 41 c 257
 320 26 334 14 353 6 c 257
 370 1 390 -2 415 -2 c 256
 480 -2 530 16 564 53 c 256
 569 58 574 64 579 71 c 257
339 611 m 257
 312 557 289 516 269 489 c 256
 239 450 211 430 184 430 c 256
 161 430 145 437 136 451 c 256
 129 462 126 480 126 504 c 257
 16 504 l 257
 16 455 30 420 59 398 c 256
 83 379 118 370 163 370 c 256
 218 370 272 392 326 435 c 256
 362 464 408 513 464 581 c 257
 339 611 l 257
248 219 m 256
 259 207 265 186 265 155 c 256
 265 118 258 93 244 79 c 256
 234 69 219 64 199 64 c 256
 176 64 160 72 151 88 c 256
 144 99 141 118 141 144 c 256
 141 181 147 206 158 219 c 256
 165 229 179 234 199 234 c 256
 222 234 238 229 248 219 c 256
EndSplineSet
PickledDataWithLists: "(dp1
S'com.adobe.type.autohint'
p2
(S'data'
S'<data>\\n  <hintSetList>\\n    <hintset pointTag=\"hr00\">\\n      <hstem pos=\"-146\" width=\"139\"/>\\n      <hstem pos=\"-1\" width=\"50\"/>\\n      <hstem pos=\"0\" width=\"64\"/>\\n      <hstem pos=\"234\" width=\"66\"/>\\n      <hstem pos=\"370\" width=\"60\"/>\\n      <hstem pos=\"375\" width=\"55\"/>\\n      <hstem pos=\"376\" width=\"49\"/>\\n      <vstem pos=\"10\" width=\"131\"/>\\n      <vstem pos=\"16\" width=\"110\"/>\\n      <vstem pos=\"245\" width=\"131\"/>\\n      <vstem pos=\"265\" width=\"101\"/>\\n      <vstem pos=\"490\" width=\"131\"/>\\n      <vstem pos=\"816\" width=\"132\"/>\\n    </hintset>\\n  </hintSetList>\\n  </data>'
Ntp3
s."
EndChar

StartChar: uni0C19
Encoding: 138 3097 138
GlifName: uni0C19_
Width: 685
VWidth: 0
Flags: W
LayerCount: 2
Back
Fore
SplineSet
628 121 m 256
NamedP: "hr00"
 628 157 614 185 585 204 c 256
 559 221 524 230 481 230 c 258
 455 230 l 257
 455 176 l 257
 475 176 490 173 499 168 c 256
 512 159 518 142 518 119 c 256
 518 96 510 79 493 68 c 256
 478 59 460 54 438 54 c 256
 409 54 389 64 379 84 c 256
 373 95 370 115 370 144 c 257
 271 144 l 257
 271 118 267 98 259 84 c 256
 248 64 230 54 203 54 c 256
 184 54 170 61 160 75 c 256
 150 90 145 112 145 139 c 256
 145 186 179 215 246 228 c 256
 311 240 346 266 353 305 c 257
 441 305 l 257
 441 253 l 257
 536 253 l 257
 536 305 l 257
 629 305 l 257
 629 353 l 257
 536 353 l 257
 536 431 l 257
 441 431 l 257
 441 353 l 257
 351 353 l 257
 344 377 325 395 295 408 c 256
 268 419 234 425 194 425 c 256
 131 425 85 415 56 395 c 256
 25 375 10 342 10 295 c 257
 136 295 l 257
 136 325 l 258
 136 339 141 351 151 361 c 256
 162 371 176 376 191 376 c 256
 211 376 227 371 238 361 c 256
 248 351 253 337 253 320 c 256
 253 292 222 273 160 263 c 256
 63 247 14 204 14 133 c 256
 14 87 30 52 63 29 c 256
 91 10 129 0 176 0 c 256
 209 0 235 3 255 10 c 256
 281 19 301 35 315 56 c 257
 328 34 347 18 373 9 c 256
 394 2 422 -2 458 -2 c 256
 506 -2 545 8 576 28 c 256
 611 50 628 81 628 121 c 256
NamedP: "hr00"
EndSplineSet
PickledDataWithLists: "(dp1
S'com.adobe.type.autohint'
p2
(S'data'
S'<data>\\n  <hintSetList>\\n    <hintset pointTag=\"hr00\">\\n      <hstem pos=\"0\" width=\"54\"/>\\n      <hstem pos=\"176\" width=\"54\"/>\\n      <hstem pos=\"305\" width=\"48\"/>\\n      <hstem pos=\"376\" width=\"49\"/>\\n      <vstem pos=\"10\" width=\"126\"/>\\n      <vstem pos=\"14\" width=\"131\"/>\\n      <vstem pos=\"271\" width=\"99\"/>\\n      <vstem pos=\"441\" width=\"95\"/>\\n      <vstem pos=\"518\" width=\"110\"/>\\n    </hintset>\\n  </hintSetList>\\n  </data>'
Ntp3
s."
EndChar

StartChar: Ca
Encoding: 139 3098 139
GlifName: Ca_
Width: 711
VWidth: 0
Flags: W
LayerCount: 2
Back
Fore
SplineSet
538 431 m 258
NamedP: "hr00"
 592 458 645 503 699 557 c 257
 573 590 l 257
 546 550 512 513 471 480 c 256
 426 444 390 426 361 426 c 256
 344 426 330 434 318 451 c 256
 306 468 299 488 299 512 c 257
 189 512 l 257
 189 465 207 429 243 406 c 256
 268 391 300 383 339 379 c 257
 342 378 346 378 350 378 c 258
 370 378 l 258
 429 378 471 365 498 338 c 256
 525 312 539 271 539 214 c 256
 539 155 531 113 514 86 c 256
 501 64 482 53 458 53 c 256
 439 53 425 59 415 70 c 257
 407 81 403 94 403 111 c 258
 403 175 l 257
 296 175 l 257
 296 116 l 258
 296 97 292 82 284 71 c 257
 273 59 256 53 233 53 c 256
 211 53 196 65 189 88 c 256
 186 99 184 120 184 149 c 256
 184 185 186 209 191 221 c 256
 200 244 218 256 246 256 c 258
 283 256 l 257
 283 316 l 257
 10 316 l 257
 10 256 l 257
 119 256 l 257
 96 247 80 233 69 214 c 256
 58 195 53 171 53 140 c 256
 53 94 71 58 106 33 c 256
 137 11 176 0 223 0 c 256
 254 0 279 5 300 15 c 256
 319 24 334 36 344 51 c 257
 353 36 366 24 381 16 c 256
 403 4 431 0 465 0 c 256
 528 0 577 17 611 50 c 256
 647 86 668 140 670 213 c 256
 671 271 651 320 614 359 c 256
 587 388 552 407 510 417 c 257
 538 431 l 258
NamedP: "hr00"
EndSplineSet
PickledDataWithLists: "(dp1
S'com.adobe.type.autohint'
p2
(S'data'
S'<data>\\n  <hintSetList>\\n    <hintset pointTag=\"hr00\">\\n      <hstem pos=\"0\" width=\"53\"/>\\n      <hstem pos=\"256\" width=\"60\"/>\\n      <hstem pos=\"378\" width=\"48\"/>\\n      <vstem pos=\"53\" width=\"131\"/>\\n      <vstem pos=\"189\" width=\"110\"/>\\n      <vstem pos=\"296\" width=\"107\"/>\\n      <vstem pos=\"539\" width=\"131\"/>\\n    </hintset>\\n  </hintSetList>\\n  </data>'
Ntp3
s."
EndChar

StartChar: Cha
Encoding: 140 3099 140
GlifName: Cha_
Width: 711
VWidth: 0
Flags: W
LayerCount: 2
Back
Fore
SplineSet
538 431 m 258
NamedP: "hr00"
 592 458 645 503 699 557 c 257
 573 590 l 257
 546 550 512 513 471 480 c 256
 426 444 390 426 361 426 c 256
 344 426 330 434 318 451 c 256
 306 468 299 488 299 512 c 257
 189 512 l 257
 189 465 207 429 243 406 c 256
 268 391 300 383 339 379 c 257
 342 378 346 378 350 378 c 258
 376 378 l 258
 432 378 473 365 500 338 c 256
 526 312 539 271 539 214 c 256
 539 155 531 113 514 86 c 256
 501 64 482 53 458 53 c 256
 439 53 425 59 415 70 c 257
 407 81 403 94 403 111 c 258
 403 175 l 257
 296 175 l 257
 296 116 l 258
 296 97 292 82 284 71 c 257
 273 59 256 53 233 53 c 256
 211 53 196 65 189 88 c 256
 186 99 184 120 184 149 c 256
 184 185 186 209 191 221 c 256
 200 244 218 256 246 256 c 258
 283 256 l 257
 283 316 l 257
 10 316 l 257
 10 256 l 257
 119 256 l 257
 96 247 80 233 69 214 c 256
 58 195 53 171 53 140 c 256
 53 94 71 58 106 33 c 256
 137 11 176 0 223 0 c 256
 254 0 279 5 300 15 c 256
 319 24 334 36 344 51 c 257
 353 36 366 24 381 16 c 256
 403 4 431 0 465 0 c 256
 528 0 577 17 611 50 c 256
 647 86 668 140 670 213 c 256
 671 271 651 320 614 359 c 256
 587 388 552 407 510 417 c 257
 538 431 l 258
NamedP: "hr00"
386 -136 m 256
 401 -125 412 -106 418 -79 c 257
 418 -51 410 -31 394 -20 c 256
 383 -13 368 -9 348 -9 c 256
 333 -9 320 -13 310 -21 c 256
 294 -34 286 -55 286 -84 c 256
 286 -109 292 -126 305 -136 c 256
 314 -143 328 -147 345 -147 c 256
 362 -147 376 -143 386 -136 c 256
EndSplineSet
PickledDataWithLists: "(dp1
S'com.adobe.type.autohint'
p2
(S'data'
S'<data>\\n  <hintSetList>\\n    <hintset pointTag=\"hr00\">\\n      <hstem pos=\"-147\" width=\"138\"/>\\n      <hstem pos=\"0\" width=\"53\"/>\\n      <hstem pos=\"256\" width=\"60\"/>\\n      <hstem pos=\"378\" width=\"48\"/>\\n      <vstem pos=\"53\" width=\"131\"/>\\n      <vstem pos=\"189\" width=\"110\"/>\\n      <vstem pos=\"286\" width=\"132\"/>\\n      <vstem pos=\"296\" width=\"107\"/>\\n      <vstem pos=\"539\" width=\"131\"/>\\n    </hintset>\\n  </hintSetList>\\n  </data>'
Ntp3
s."
EndChar

StartChar: Ja
Encoding: 141 3100 141
GlifName: Ja_
Width: 700
VWidth: 0
Flags: W
LayerCount: 2
Back
Fore
SplineSet
628 111 m 256
NamedP: "hr00"
 628 146 614 172 585 191 c 256
 560 207 526 216 481 216 c 258
 468 216 l 257
 468 163 l 257
 485 163 497 160 504 155 c 256
 513 148 518 135 518 115 c 256
 518 97 510 82 494 70 c 256
 479 59 460 54 438 54 c 256
 409 54 389 64 379 84 c 256
 373 95 370 115 370 144 c 257
 271 144 l 257
 271 118 267 98 259 84 c 256
 248 64 230 54 203 54 c 256
 184 54 170 61 160 75 c 256
 150 90 145 112 145 139 c 256
 145 186 179 215 246 228 c 256
 295 237 326 251 340 270 c 257
 379 249 422 238 471 238 c 256
 516 238 553 245 584 259 c 256
 621 277 639 303 639 336 c 256
 639 369 622 394 589 411 c 256
 562 426 528 433 488 433 c 256
 458 433 437 432 426 431 c 257
 426 373 l 257
 439 377 451 379 463 379 c 256
 480 379 496 376 509 369 c 256
 523 362 530 352 530 340 c 256
 530 327 524 316 513 309 c 256
 498 300 474 295 443 295 c 256
 417 295 396 301 381 313 c 256
 371 320 361 333 351 350 c 257
 344 375 325 395 295 408 c 256
 268 419 235 425 194 425 c 256
 131 425 85 415 56 395 c 256
 25 375 10 342 10 295 c 257
 136 295 l 257
 136 325 l 258
 136 339 141 351 151 361 c 256
 162 371 176 376 191 376 c 256
 211 376 227 371 238 361 c 256
 248 351 253 337 253 320 c 256
 253 292 222 273 160 263 c 256
 63 247 14 204 14 133 c 256
 14 87 30 52 63 29 c 256
 91 10 129 0 176 0 c 256
 209 0 235 3 255 10 c 256
 281 19 301 35 315 56 c 257
 328 34 347 18 373 9 c 256
 394 2 422 -2 458 -2 c 256
 506 -2 545 8 576 26 c 256
 611 47 628 74 628 111 c 256
NamedP: "hr00"
EndSplineSet
PickledDataWithLists: "(dp1
S'com.adobe.type.autohint'
p2
(S'data'
S'<data>\\n  <hintSetList>\\n    <hintset pointTag=\"hr00\">\\n      <hstem pos=\"0\" width=\"54\"/>\\n      <hstem pos=\"163\" width=\"53\"/>\\n      <hstem pos=\"238\" width=\"57\"/>\\n      <hstem pos=\"376\" width=\"49\"/>\\n      <hstem pos=\"379\" width=\"54\"/>\\n      <vstem pos=\"10\" width=\"126\"/>\\n      <vstem pos=\"14\" width=\"131\"/>\\n      <vstem pos=\"271\" width=\"99\"/>\\n      <vstem pos=\"518\" width=\"110\"/>\\n      <vstem pos=\"530\" width=\"109\"/>\\n    </hintset>\\n  </hintSetList>\\n  </data>'
Ntp3
s."
EndChar

StartChar: Jha
Encoding: 142 3101 142
GlifName: Jha_
Width: 1278
VWidth: 0
Flags: W
LayerCount: 2
Back
Fore
SplineSet
289 425 m 256
NamedP: "hr00"
 272 425 257 433 245 450 c 256
 232 467 226 487 226 511 c 257
 116 511 l 257
 116 467 132 433 163 410 c 257
 128 400 99 385 76 366 c 256
 32 331 10 281 10 216 c 256
 10 145 35 91 84 54 c 256
 131 18 200 0 289 0 c 256
 366 0 430 16 480 49 c 256
 497 60 512 73 525 87 c 257
 535 66 552 48 575 33 c 256
 608 10 646 -1 691 -1 c 256
 752 -1 801 19 836 59 c 256
 841 64 845 69 848 74 c 257
 858 57 873 43 893 30 c 256
 926 9 965 -1 1010 -1 c 256
 1073 -1 1124 19 1161 59 c 256
 1200 100 1219 153 1219 220 c 256
 1219 282 1201 332 1165 369 c 256
 1129 406 1081 425 1021 425 c 258
 979 425 l 257
 979 376 l 257
 1012 376 1038 362 1058 333 c 256
 1078 304 1088 264 1088 215 c 256
 1088 165 1079 125 1061 94 c 256
 1043 64 1019 49 990 49 c 256
 957 49 928 61 903 85 c 256
 891 96 881 107 874 120 c 257
 885 149 891 183 891 220 c 256
 891 281 878 329 850 363 c 256
 817 405 762 425 688 425 c 258
 651 425 l 257
 651 376 l 257
 684 376 709 366 726 346 c 256
 749 321 760 278 760 215 c 256
 760 160 753 119 738 90 c 256
 723 63 701 49 671 49 c 256
 640 49 613 61 588 85 c 256
 573 99 562 115 554 133 c 257
 565 158 570 185 570 216 c 256
 570 283 545 334 495 371 c 256
 474 386 449 399 420 408 c 257
 435 414 450 421 465 430 c 256
 518 460 572 502 626 556 c 257
 500 589 l 257
 473 549 440 512 399 479 c 256
 354 443 317 425 289 425 c 256
NamedP: "hr00"
875 -136 m 256
 890 -125 901 -106 906 -79 c 257
 906 -51 898 -31 883 -20 c 256
 872 -13 856 -9 836 -9 c 256
 821 -9 809 -13 799 -21 c 256
 783 -34 775 -55 775 -84 c 256
 775 -109 781 -126 794 -136 c 256
 803 -143 817 -147 834 -147 c 256
 851 -147 865 -143 875 -136 c 256
405 338 m 256
 428 313 439 274 439 221 c 256
 439 164 427 121 403 93 c 256
 378 64 339 49 288 49 c 256
 236 49 198 63 174 90 c 256
 152 116 141 155 141 206 c 256
 141 265 153 309 176 336 c 256
 199 364 237 378 290 378 c 256
 343 378 381 365 405 338 c 256
EndSplineSet
PickledDataWithLists: "(dp1
S'com.adobe.type.autohint'
p2
(S'data'
S'<data>\\n  <hintSetList>\\n    <hintset pointTag=\"hr00\">\\n      <hstem pos=\"-147\" width=\"138\"/>\\n      <hstem pos=\"0\" width=\"49\"/>\\n      <hstem pos=\"376\" width=\"49\"/>\\n      <vstem pos=\"10\" width=\"131\"/>\\n      <vstem pos=\"116\" width=\"110\"/>\\n      <vstem pos=\"439\" width=\"131\"/>\\n      <vstem pos=\"760\" width=\"131\"/>\\n      <vstem pos=\"775\" width=\"131\"/>\\n      <vstem pos=\"1088\" width=\"131\"/>\\n    </hintset>\\n  </hintSetList>\\n  </data>'
Ntp3
s."
EndChar

StartChar: Nya
Encoding: 143 3102 143
GlifName: Nya_
Width: 927
VWidth: 0
Flags: W
LayerCount: 2
Back
Fore
SplineSet
324 203 m 256
NamedP: "hr00"
 358 203 389 200 418 195 c 256
 453 189 477 180 490 168 c 257
 486 137 469 112 438 95 c 256
 412 81 381 74 346 74 c 256
 281 74 234 79 204 89 c 256
 173 100 158 117 158 140 c 256
 158 161 169 177 190 186 c 256
 216 198 261 203 324 203 c 256
NamedP: "hr00"
679 18 m 258
 679 51 671 83 654 113 c 256
 642 134 628 152 613 165 c 257
 621 194 625 220 626 243 c 257
 710 243 l 257
 710 153 l 257
 805 153 l 257
 805 243 l 257
 898 243 l 257
 898 290 l 257
 805 290 l 257
 805 385 l 257
 710 385 l 257
 710 290 l 257
 626 290 l 257
 621 333 606 367 580 390 c 256
 551 415 510 428 458 428 c 256
 422 428 392 423 369 413 c 256
 350 404 337 394 329 381 c 257
 322 397 306 409 283 418 c 256
 263 425 239 428 211 428 c 256
 140 428 88 417 55 394 c 256
 25 373 10 343 10 304 c 256
 10 293 10 285 11 280 c 257
 138 280 l 257
 141 314 l 257
 141 329 147 342 159 355 c 256
 172 370 191 378 214 378 c 256
 241 378 260 372 269 361 c 256
 276 354 280 340 280 319 c 258
 280 290 l 257
 368 290 l 257
 368 316 l 258
 368 335 373 350 383 360 c 256
 393 369 407 374 426 374 c 256
 453 374 473 363 486 340 c 256
 496 321 501 297 501 268 c 256
 501 257 500 244 499 229 c 257
 457 250 383 260 278 260 c 256
 193 260 130 250 90 230 c 256
 47 209 26 175 26 126 c 256
 26 83 54 50 111 29 c 256
 160 10 223 0 301 0 c 256
 341 0 386 7 435 20 c 256
 494 36 535 57 556 84 c 257
 562 77 567 69 570 60 c 256
 573 51 574 40 574 28 c 256
 574 16 573 3 571 -12 c 257
 679 -12 l 257
 679 18 l 258
EndSplineSet
PickledDataWithLists: "(dp1
S'com.adobe.type.autohint'
p2
(S'data'
S'<data>\\n  <hintSetList>\\n    <hintset pointTag=\"hr00\">\\n      <hstem pos=\"0\" width=\"74\"/>\\n      <hstem pos=\"203\" width=\"57\"/>\\n      <hstem pos=\"243\" width=\"47\"/>\\n      <hstem pos=\"374\" width=\"54\"/>\\n      <hstem pos=\"378\" width=\"50\"/>\\n      <vstem pos=\"10\" width=\"131\"/>\\n      <vstem pos=\"26\" width=\"132\"/>\\n      <vstem pos=\"280\" width=\"88\"/>\\n      <vstem pos=\"501\" width=\"125\"/>\\n      <vstem pos=\"574\" width=\"105\"/>\\n      <vstem pos=\"710\" width=\"95\"/>\\n    </hintset>\\n  </hintSetList>\\n  </data>'
Ntp3
s."
EndChar

StartChar: Lla
Encoding: 144 3123 144
GlifName: Lla_
Width: 630
VWidth: 0
Flags: W
LayerCount: 2
Back
Fore
SplineSet
507 431 m 258
NamedP: "hr00"
 552 462 597 503 642 557 c 257
 536 590 l 257
 514 550 486 513 452 480 c 256
 415 444 385 426 361 426 c 256
 346 426 334 434 324 451 c 256
 314 468 309 488 309 512 c 257
 218 512 l 257
 218 465 233 429 262 406 c 256
 279 393 300 385 324 382 c 257
 328 379 333 378 339 378 c 258
 383 378 l 258
 410 378 431 374 446 366 c 256
 465 357 474 344 474 325 c 256
 474 294 453 270 411 256 c 256
 383 246 347 243 303 243 c 256
 240 243 194 251 163 268 c 257
 192 268 216 273 235 284 c 256
 260 298 273 321 273 353 c 256
 273 380 259 401 230 415 c 256
 207 427 180 433 149 433 c 256
 110 433 78 425 53 408 c 256
 24 389 10 362 10 325 c 256
 10 292 23 267 49 248 c 256
 72 231 100 222 134 220 c 257
 115 213 101 201 90 184 c 256
 80 167 75 148 75 125 c 256
 75 84 96 53 139 31 c 256
 180 10 239 0 315 0 c 256
 402 0 466 12 508 35 c 256
 548 58 568 90 568 133 c 256
 568 160 560 181 545 196 c 256
 532 209 512 219 483 226 c 257
 504 229 524 240 545 258 c 256
 570 279 583 303 583 330 c 256
 583 363 569 388 540 404 c 256
 526 412 510 417 491 420 c 257
 507 431 l 258
NamedP: "hr00"
405 185 m 256
 426 174 436 155 436 129 c 256
 436 106 424 87 400 74 c 256
 379 62 351 56 318 56 c 256
 285 56 258 62 238 75 c 256
 217 88 206 105 206 126 c 256
 206 154 218 174 241 185 c 256
 260 195 287 200 321 200 c 256
 359 200 387 195 405 185 c 256
171 369 m 256
 177 364 180 355 180 344 c 256
 180 331 177 321 170 314 c 256
 163 307 153 303 140 303 c 256
 127 303 118 307 111 315 c 256
 106 322 103 331 103 343 c 256
 103 355 107 364 114 370 c 256
 120 375 129 378 141 378 c 256
 154 378 164 375 171 369 c 256
EndSplineSet
PickledDataWithLists: "(dp1
S'com.adobe.type.autohint'
p2
(S'data'
S'<data>\\n  <hintSetList>\\n    <hintset pointTag=\"hr00\">\\n      <hstem pos=\"0\" width=\"56\"/>\\n      <hstem pos=\"200\" width=\"43\"/>\\n      <hstem pos=\"268\" width=\"35\"/>\\n      <hstem pos=\"378\" width=\"48\"/>\\n      <hstem pos=\"378\" width=\"134\"/>\\n      <vstem pos=\"10\" width=\"93\"/>\\n      <vstem pos=\"75\" width=\"131\"/>\\n      <vstem pos=\"180\" width=\"93\"/>\\n      <vstem pos=\"218\" width=\"91\"/>\\n      <vstem pos=\"436\" width=\"132\"/>\\n      <vstem pos=\"474\" width=\"109\"/>\\n    </hintset>\\n  </hintSetList>\\n  </data>'
Ntp3
s."
EndChar

StartChar: TTha
Encoding: 145 3104 145
GlifName: TTha_
Width: 626
VWidth: 0
Flags: W
LayerCount: 2
Back
Fore
SplineSet
422 409 m 257
NamedP: "hr00"
 436 415 450 422 465 430 c 256
 518 460 572 502 626 556 c 257
 500 589 l 257
 473 549 440 512 399 479 c 256
 354 443 317 425 289 425 c 256
 272 425 257 433 245 450 c 256
 232 467 226 487 226 511 c 257
 116 511 l 257
 116 466 132 432 165 409 c 257
 130 399 101 385 78 366 c 256
 33 331 10 281 10 216 c 256
 10 145 35 91 84 54 c 256
 131 18 199 0 288 0 c 256
 366 0 430 16 480 49 c 256
 539 87 569 143 570 216 c 256
 570 282 545 334 496 371 c 256
 475 387 450 400 422 409 c 257
NamedP: "hr00"
405 338 m 256
 428 313 439 274 439 221 c 256
 439 164 427 121 403 93 c 256
 378 64 339 49 288 49 c 256
 236 49 198 63 174 90 c 256
 152 116 141 155 141 206 c 256
 141 266 153 309 176 336 c 256
 201 364 241 378 296 378 c 256
 346 378 382 365 405 338 c 256
326 175 m 256
 332 182 335 196 335 216 c 256
 335 232 332 243 326 250 c 256
 321 257 310 260 293 260 c 256
 276 260 265 256 259 249 c 257
 255 242 253 229 253 208 c 256
 253 192 256 181 263 174 c 256
 268 168 278 165 291 165 c 256
 309 165 321 168 326 175 c 256
EndSplineSet
PickledDataWithLists: "(dp1
S'com.adobe.type.autohint'
p2
(S'data'
S'<data>\\n  <hintSetList>\\n    <hintset pointTag=\"hr00\">\\n      <hstem pos=\"0\" width=\"49\"/>\\n      <hstem pos=\"165\" width=\"95\"/>\\n      <hstem pos=\"378\" width=\"47\"/>\\n      <vstem pos=\"10\" width=\"131\"/>\\n      <vstem pos=\"116\" width=\"110\"/>\\n      <vstem pos=\"253\" width=\"82\"/>\\n      <vstem pos=\"439\" width=\"131\"/>\\n    </hintset>\\n  </hintSetList>\\n  </data>'
Ntp3
s."
EndChar

StartChar: DDa
Encoding: 146 3105 146
GlifName: DDa_
Width: 695
VWidth: 0
Flags: W
LayerCount: 2
Back
Fore
SplineSet
500 430 m 258
NamedP: "hr00"
 554 459 607 502 661 556 c 257
 535 589 l 257
 508 549 475 512 434 479 c 256
 401 452 372 436 348 429 c 257
 305 429 l 257
 296 433 287 440 280 450 c 256
 267 467 261 487 261 511 c 257
 151 511 l 257
 151 471 164 439 190 416 c 257
 152 408 121 397 96 381 c 256
 39 345 10 284 10 199 c 256
 10 132 27 81 60 48 c 256
 92 16 140 0 203 0 c 256
 228 0 252 5 275 14 c 256
 298 23 316 36 329 51 c 257
 335 37 348 25 368 16 c 256
 390 5 416 0 446 0 c 256
 501 0 545 15 581 43 c 256
 613 69 634 102 639 144 c 257
 639 198 627 238 603 263 c 256
 577 290 534 303 474 303 c 256
 435 303 406 298 386 289 c 256
 361 277 348 257 348 229 c 256
 348 206 356 189 371 176 c 257
 388 164 412 158 444 158 c 256
 461 158 475 160 488 163 c 256
 503 167 513 173 520 180 c 257
 520 130 l 258
 520 104 512 84 496 70 c 256
 482 57 465 51 444 51 c 256
 417 51 398 59 386 74 c 256
 375 88 369 111 369 144 c 257
 283 144 l 257
 283 113 277 90 264 74 c 256
 251 59 234 51 213 51 c 256
 188 51 169 62 158 83 c 256
 147 104 141 140 141 189 c 256
 141 258 154 307 179 334 c 256
 206 363 257 378 331 378 c 256
 364 378 394 374 419 365 c 256
 449 354 466 339 470 320 c 257
 594 320 l 257
 585 362 553 392 500 409 c 256
 492 412 483 414 474 416 c 257
 500 430 l 258
NamedP: "hr00"
496 264 m 256
 504 258 508 249 508 238 c 256
 508 225 504 215 496 208 c 257
 491 202 482 199 471 199 c 256
 462 199 455 201 449 206 c 256
 442 212 438 220 438 231 c 256
 438 246 442 257 449 264 c 256
 454 268 461 270 471 270 c 256
 482 270 491 268 496 264 c 256
EndSplineSet
PickledDataWithLists: "(dp1
S'com.adobe.type.autohint'
p2
(S'data'
S'<data>\\n  <hintSetList>\\n    <hintset pointTag=\"hr00\">\\n      <hstem pos=\"0\" width=\"51\"/>\\n      <hstem pos=\"158\" width=\"41\"/>\\n      <hstem pos=\"270\" width=\"33\"/>\\n      <hstem pos=\"320\" width=\"96\"/>\\n      <hstem pos=\"378\" width=\"51\"/>\\n      <vstem pos=\"10\" width=\"131\"/>\\n      <vstem pos=\"151\" width=\"110\"/>\\n      <vstem pos=\"283\" width=\"86\"/>\\n      <vstem pos=\"348\" width=\"90\"/>\\n      <vstem pos=\"520\" width=\"119\"/>\\n    </hintset>\\n  </hintSetList>\\n  </data>'
Ntp3
s."
EndChar

StartChar: DDha
Encoding: 147 3106 147
GlifName: DDha_
Width: 695
VWidth: 0
Flags: W
LayerCount: 2
Back
Fore
SplineSet
500 430 m 258
NamedP: "hr00"
 554 459 607 502 661 556 c 257
 535 589 l 257
 508 549 475 512 434 479 c 256
 401 452 372 436 348 429 c 257
 305 429 l 257
 296 433 287 440 280 450 c 256
 267 467 261 487 261 511 c 257
 151 511 l 257
 151 471 164 439 190 416 c 257
 152 408 121 397 96 381 c 256
 39 345 10 284 10 199 c 256
 10 132 27 81 60 48 c 256
 92 16 140 0 203 0 c 256
 228 0 252 5 275 14 c 256
 298 23 316 36 329 51 c 257
 335 37 348 25 368 16 c 256
 390 5 416 0 446 0 c 256
 501 0 545 15 581 43 c 256
 613 69 634 102 639 144 c 257
 639 198 627 238 603 263 c 256
 577 290 534 303 474 303 c 256
 435 303 406 298 386 289 c 256
 361 277 348 257 348 229 c 256
 348 206 356 189 371 176 c 257
 388 164 412 158 444 158 c 256
 461 158 475 160 488 163 c 256
 503 167 513 173 520 180 c 257
 520 130 l 258
 520 104 512 84 496 70 c 256
 482 57 465 51 444 51 c 256
 417 51 398 59 386 74 c 256
 375 88 369 111 369 144 c 257
 283 144 l 257
 283 113 277 90 264 74 c 256
 251 59 234 51 213 51 c 256
 188 51 169 62 158 83 c 256
 147 104 141 140 141 189 c 256
 141 258 154 306 179 333 c 256
 206 362 257 376 331 376 c 256
 364 376 394 372 419 364 c 256
 449 354 466 339 470 320 c 257
 594 320 l 257
 585 362 553 392 500 409 c 256
 492 412 483 414 474 416 c 257
 500 430 l 258
NamedP: "hr00"
366 -136 m 256
 381 -125 392 -106 398 -79 c 257
 398 -51 390 -31 374 -20 c 256
 363 -13 348 -9 328 -9 c 256
 313 -9 300 -13 290 -21 c 256
 274 -34 266 -55 266 -84 c 256
 266 -109 272 -126 285 -136 c 256
 294 -143 308 -147 325 -147 c 256
 342 -147 356 -143 366 -136 c 256
496 264 m 256
 504 258 508 249 508 238 c 256
 508 225 504 215 496 208 c 257
 491 202 482 199 471 199 c 256
 462 199 455 201 449 206 c 256
 442 212 438 220 438 231 c 256
 438 246 442 257 449 264 c 256
 454 268 461 270 471 270 c 256
 482 270 491 268 496 264 c 256
EndSplineSet
PickledDataWithLists: "(dp1
S'com.adobe.type.autohint'
p2
(S'data'
S'<data>\\n  <hintSetList>\\n    <hintset pointTag=\"hr00\">\\n      <hstem pos=\"-147\" width=\"138\"/>\\n      <hstem pos=\"0\" width=\"51\"/>\\n      <hstem pos=\"158\" width=\"41\"/>\\n      <hstem pos=\"270\" width=\"33\"/>\\n      <hstem pos=\"320\" width=\"96\"/>\\n      <hstem pos=\"376\" width=\"53\"/>\\n      <vstem pos=\"10\" width=\"131\"/>\\n      <vstem pos=\"151\" width=\"110\"/>\\n      <vstem pos=\"266\" width=\"132\"/>\\n      <vstem pos=\"283\" width=\"86\"/>\\n      <vstem pos=\"348\" width=\"90\"/>\\n      <vstem pos=\"520\" width=\"119\"/>\\n    </hintset>\\n  </hintSetList>\\n  </data>'
Ntp3
s."
EndChar

StartChar: uni0C23
Encoding: 148 3107 148
GlifName: uni0C23_
Width: 733
VWidth: 0
Flags: W
LayerCount: 2
Back
Fore
SplineSet
539 144 m 256
NamedP: "hr00"
 539 108 535 83 526 68 c 256
 517 53 502 45 479 45 c 256
 452 45 440 65 440 105 c 258
 440 125 l 257
 439 150 l 258
 437 194 449 216 474 216 c 256
 504 216 524 208 533 193 c 257
 537 184 539 168 539 144 c 256
NamedP: "hr00"
660 210 m 256
 660 290 641 348 603 384 c 256
 571 414 525 429 465 429 c 256
 429 429 400 422 379 410 c 256
 360 399 347 385 338 365 c 257
 329 385 309 401 280 413 c 256
 253 424 224 429 191 429 c 256
 146 429 106 419 73 400 c 256
 34 377 14 345 14 304 c 256
 14 285 20 268 31 251 c 257
 43 236 56 227 70 224 c 257
 47 213 33 199 23 181 c 256
 15 166 10 146 10 119 c 256
 10 82 25 53 55 31 c 256
 82 11 116 1 156 1 c 256
 176 1 194 3 211 8 c 257
 228 11 239 16 244 21 c 257
 244 68 l 257
 235 66 223 65 208 65 c 256
 173 65 150 85 146 125 c 258
 145 136 l 257
 148 164 155 182 165 190 c 256
 176 199 195 203 224 203 c 257
 224 248 l 257
 197 248 178 252 165 261 c 256
 152 271 145 286 145 305 c 256
 145 324 148 339 154 350 c 256
 164 369 181 378 205 378 c 256
 237 378 261 368 276 349 c 256
 289 334 295 314 295 289 c 257
 373 289 l 257
 373 312 381 332 396 349 c 256
 414 368 436 378 461 378 c 256
 490 378 512 365 528 340 c 256
 543 317 550 286 550 249 c 257
 540 256 528 261 514 264 c 256
 497 268 476 270 451 270 c 256
 413 270 381 260 356 240 c 256
 325 216 309 180 309 131 c 256
 309 89 323 56 351 33 c 256
 379 10 417 -2 464 -2 c 256
 535 -2 585 15 615 48 c 256
 645 80 660 134 660 210 c 256
EndSplineSet
PickledDataWithLists: "(dp1
S'com.adobe.type.autohint'
p2
(S'data'
S'<data>\\n  <hintSetList>\\n    <hintset pointTag=\"hr00\">\\n      <hstem pos=\"-2\" width=\"47\"/>\\n      <hstem pos=\"1\" width=\"64\"/>\\n      <hstem pos=\"203\" width=\"45\"/>\\n      <hstem pos=\"216\" width=\"54\"/>\\n      <hstem pos=\"378\" width=\"51\"/>\\n      <vstem pos=\"10\" width=\"135\"/>\\n      <vstem pos=\"14\" width=\"131\"/>\\n      <vstem pos=\"295\" width=\"78\"/>\\n      <vstem pos=\"309\" width=\"131\"/>\\n      <vstem pos=\"539\" width=\"121\"/>\\n    </hintset>\\n  </hintSetList>\\n  </data>'
Ntp3
s."
EndChar

StartChar: Ta
Encoding: 149 3108 149
GlifName: Ta_
Width: 725
VWidth: 0
Flags: W
LayerCount: 2
Back
Fore
SplineSet
530 423 m 258
NamedP: "hr00"
 588 452 638 496 685 551 c 257
 560 588 l 257
 529 539 499 503 471 479 c 256
 432 444 392 426 350 426 c 256
 315 426 291 434 278 451 c 256
 268 463 263 481 263 506 c 257
 154 506 l 257
 154 459 175 425 218 403 c 256
 252 386 299 376 360 376 c 256
 372 376 384 377 395 378 c 257
 409 378 l 258
 440 378 464 375 480 370 c 256
 500 363 513 351 520 334 c 257
 509 338 494 340 475 340 c 256
 434 340 403 332 381 313 c 256
 358 294 348 263 348 223 c 256
 348 187 360 159 384 141 c 256
 405 125 432 118 465 118 c 256
 488 118 510 122 533 130 c 257
 528 109 501 92 453 78 c 256
 413 67 374 60 335 60 c 256
 284 60 241 65 206 75 c 256
 165 87 139 105 130 129 c 257
 135 125 145 122 159 120 c 256
 169 119 181 119 195 119 c 256
 226 119 251 127 271 143 c 256
 294 161 306 188 306 223 c 256
 306 260 294 289 270 309 c 256
 245 330 208 340 159 340 c 256
 109 340 71 326 45 299 c 256
 22 274 10 239 10 194 c 256
 10 121 38 70 94 40 c 256
 145 13 227 0 340 0 c 256
 434 0 510 17 569 51 c 256
 636 90 673 148 675 225 c 256
 676 247 670 268 659 288 c 256
 648 309 633 324 614 334 c 257
 597 365 573 388 540 403 c 256
 531 407 522 411 512 414 c 257
 530 423 l 258
NamedP: "hr00"
534 275 m 256
 541 266 544 252 544 235 c 256
 544 212 540 196 533 185 c 257
 525 175 514 170 500 170 c 256
 487 170 476 175 469 184 c 256
 462 193 459 207 459 224 c 256
 459 248 461 265 466 274 c 256
 473 285 484 291 501 291 c 256
 516 291 527 286 534 275 c 256
194 280 m 256
 201 269 204 255 204 238 c 256
 204 215 200 196 193 183 c 256
 185 170 174 163 160 163 c 256
 147 163 136 169 129 181 c 256
 122 193 119 208 119 226 c 256
 119 251 121 268 126 279 c 256
 133 292 144 298 161 298 c 256
 176 298 187 292 194 280 c 256
EndSplineSet
PickledDataWithLists: "(dp1
S'com.adobe.type.autohint'
p2
(S'data'
S'<data>\\n  <hintSetList>\\n    <hintset pointTag=\"hr00\">\\n      <hstem pos=\"0\" width=\"60\"/>\\n      <hstem pos=\"118\" width=\"52\"/>\\n      <hstem pos=\"119\" width=\"44\"/>\\n      <hstem pos=\"291\" width=\"49\"/>\\n      <hstem pos=\"298\" width=\"42\"/>\\n      <hstem pos=\"376\" width=\"50\"/>\\n      <vstem pos=\"10\" width=\"109\"/>\\n      <vstem pos=\"154\" width=\"109\"/>\\n      <vstem pos=\"204\" width=\"102\"/>\\n      <vstem pos=\"348\" width=\"111\"/>\\n      <vstem pos=\"544\" width=\"131\"/>\\n    </hintset>\\n  </hintSetList>\\n  </data>'
Ntp3
s."
EndChar

StartChar: Tha
Encoding: 150 3109 150
GlifName: Tha_
Width: 697
VWidth: 0
Flags: W
LayerCount: 2
Back
Fore
SplineSet
464 410 m 257
NamedP: "hr00"
 477 416 490 423 503 430 c 256
 556 460 610 502 664 556 c 257
 538 589 l 257
 511 549 477 512 436 479 c 256
 397 448 365 430 338 426 c 257
 316 426 l 257
 303 429 292 437 283 450 c 256
 270 467 264 487 264 511 c 257
 154 511 l 257
 154 469 168 437 196 414 c 257
 144 403 103 384 73 359 c 256
 31 322 10 270 10 201 c 256
 10 132 27 81 60 48 c 256
 92 16 142 0 210 0 c 256
 235 0 257 3 275 10 c 256
 295 17 312 28 326 44 c 257
 334 31 347 21 366 13 c 256
 387 4 412 0 439 0 c 256
 500 0 547 16 580 48 c 256
 616 82 634 136 635 209 c 256
 635 272 612 322 566 360 c 256
 539 383 505 399 464 410 c 257
NamedP: "hr00"
366 -135 m 256
 381 -124 392 -105 398 -77 c 257
 398 -50 390 -30 374 -19 c 256
 363 -11 348 -7 328 -7 c 256
 313 -7 300 -11 290 -20 c 256
 274 -33 266 -53 266 -82 c 256
 266 -107 272 -125 285 -135 c 256
 294 -142 308 -146 325 -146 c 256
 342 -146 356 -142 366 -135 c 256
453 349 m 256
 488 321 504 268 504 193 c 256
 504 148 499 112 485 86 c 256
 473 63 456 51 436 51 c 256
 415 51 399 59 389 74 c 256
 379 90 374 116 374 151 c 257
 279 151 l 257
 279 114 274 88 265 74 c 256
 257 60 242 53 219 53 c 256
 197 53 179 64 165 85 c 256
 149 108 141 140 141 181 c 256
 141 264 159 319 196 348 c 256
 223 368 269 378 334 378 c 256
 388 378 429 369 453 349 c 256
360 203 m 256
 372 210 378 223 378 241 c 256
 378 260 373 272 363 279 c 256
 356 284 345 286 328 286 c 256
 309 286 296 284 289 279 c 256
 278 272 273 257 273 236 c 256
 273 221 279 210 290 203 c 256
 299 198 310 195 325 195 c 256
 341 195 353 198 360 203 c 256
EndSplineSet
PickledDataWithLists: "(dp1
S'com.adobe.type.autohint'
p2
(S'data'
S'<data>\\n  <hintSetList>\\n    <hintset pointTag=\"hr00\">\\n      <hstem pos=\"-146\" width=\"139\"/>\\n      <hstem pos=\"0\" width=\"53\"/>\\n      <hstem pos=\"195\" width=\"91\"/>\\n      <hstem pos=\"378\" width=\"48\"/>\\n      <vstem pos=\"10\" width=\"131\"/>\\n      <vstem pos=\"154\" width=\"110\"/>\\n      <vstem pos=\"266\" width=\"132\"/>\\n      <vstem pos=\"273\" width=\"105\"/>\\n      <vstem pos=\"279\" width=\"95\"/>\\n      <vstem pos=\"504\" width=\"131\"/>\\n    </hintset>\\n  </hintSetList>\\n  </data>'
Ntp3
s."
EndChar

StartChar: Da
Encoding: 151 3110 151
GlifName: Da_
Width: 697
VWidth: 0
Flags: W
LayerCount: 2
Back
Fore
SplineSet
464 410 m 257
NamedP: "hr00"
 477 416 490 423 503 430 c 256
 556 460 610 502 664 556 c 257
 538 589 l 257
 511 549 477 512 436 479 c 256
 397 448 365 430 338 426 c 257
 316 426 l 257
 303 429 292 437 283 450 c 256
 270 467 264 487 264 511 c 257
 154 511 l 257
 154 469 168 437 196 414 c 257
 144 403 103 384 73 359 c 256
 31 322 10 270 10 201 c 256
 10 132 27 81 60 48 c 256
 92 16 142 0 210 0 c 256
 235 0 257 3 275 10 c 256
 295 17 312 28 326 44 c 257
 334 31 347 21 366 13 c 256
 387 4 412 0 439 0 c 256
 500 0 547 16 580 48 c 256
 616 82 634 136 635 209 c 256
 635 272 612 322 566 360 c 256
 539 383 505 399 464 410 c 257
NamedP: "hr00"
453 349 m 256
 488 321 504 268 504 193 c 256
 504 148 499 112 485 86 c 256
 473 63 456 51 436 51 c 256
 415 51 399 59 389 74 c 256
 379 90 374 116 374 151 c 257
 279 151 l 257
 279 114 274 88 265 74 c 256
 257 60 242 53 219 53 c 256
 197 53 179 64 165 85 c 256
 149 108 141 140 141 181 c 256
 141 264 159 319 196 348 c 256
 223 368 269 378 334 378 c 256
 388 378 429 369 453 349 c 256
EndSplineSet
PickledDataWithLists: "(dp1
S'com.adobe.type.autohint'
p2
(S'data'
S'<data>\\n  <hintSetList>\\n    <hintset pointTag=\"hr00\">\\n      <hstem pos=\"0\" width=\"53\"/>\\n      <hstem pos=\"378\" width=\"48\"/>\\n      <vstem pos=\"10\" width=\"131\"/>\\n      <vstem pos=\"154\" width=\"110\"/>\\n      <vstem pos=\"279\" width=\"95\"/>\\n      <vstem pos=\"504\" width=\"131\"/>\\n    </hintset>\\n  </hintSetList>\\n  </data>'
Ntp3
s."
EndChar

StartChar: Dha
Encoding: 152 3111 152
GlifName: Dha_
Width: 697
VWidth: 0
Flags: W
LayerCount: 2
Back
Fore
SplineSet
464 410 m 257
NamedP: "hr00"
 477 416 490 423 503 430 c 256
 556 460 610 502 664 556 c 257
 538 589 l 257
 511 549 477 512 436 479 c 256
 397 448 365 430 338 426 c 257
 316 426 l 257
 303 429 292 437 283 450 c 256
 270 467 264 487 264 511 c 257
 154 511 l 257
 154 469 168 437 196 414 c 257
 144 403 103 384 73 359 c 256
 31 322 10 270 10 201 c 256
 10 132 27 81 60 48 c 256
 92 16 142 0 210 0 c 256
 235 0 257 3 275 10 c 256
 295 17 312 28 326 44 c 257
 334 31 347 21 366 13 c 256
 387 4 412 0 439 0 c 256
 500 0 547 16 580 48 c 256
 616 82 634 136 635 209 c 256
 635 272 612 322 566 360 c 256
 539 383 505 399 464 410 c 257
NamedP: "hr00"
366 -135 m 256
 381 -124 392 -105 398 -77 c 257
 398 -50 390 -30 374 -19 c 256
 363 -11 348 -7 328 -7 c 256
 313 -7 300 -11 290 -20 c 256
 274 -33 266 -53 266 -82 c 256
 266 -107 272 -125 285 -135 c 256
 294 -142 308 -146 325 -146 c 256
 342 -146 356 -142 366 -135 c 256
453 349 m 256
 488 321 504 268 504 193 c 256
 504 148 499 112 485 86 c 256
 473 63 456 51 436 51 c 256
 415 51 399 59 389 74 c 256
 379 90 374 116 374 151 c 257
 279 151 l 257
 279 114 274 88 265 74 c 256
 257 60 242 53 219 53 c 256
 197 53 179 64 165 85 c 256
 149 108 141 140 141 181 c 256
 141 264 159 319 196 348 c 256
 223 368 269 378 334 378 c 256
 388 378 429 369 453 349 c 256
EndSplineSet
PickledDataWithLists: "(dp1
S'com.adobe.type.autohint'
p2
(S'data'
S'<data>\\n  <hintSetList>\\n    <hintset pointTag=\"hr00\">\\n      <hstem pos=\"-146\" width=\"139\"/>\\n      <hstem pos=\"0\" width=\"53\"/>\\n      <hstem pos=\"378\" width=\"48\"/>\\n      <vstem pos=\"10\" width=\"131\"/>\\n      <vstem pos=\"154\" width=\"110\"/>\\n      <vstem pos=\"266\" width=\"132\"/>\\n      <vstem pos=\"279\" width=\"95\"/>\\n      <vstem pos=\"504\" width=\"131\"/>\\n    </hintset>\\n  </hintSetList>\\n  </data>'
Ntp3
s."
EndChar

StartChar: Na
Encoding: 153 3112 153
GlifName: Na_
Width: 693
VWidth: 0
Flags: W
LayerCount: 2
Back
Fore
SplineSet
391 426 m 257
NamedP: "hr00"
 447 457 502 498 556 551 c 257
 443 581 l 257
 415 540 384 505 351 476 c 256
 314 445 282 429 254 429 c 256
 217 429 190 437 175 453 c 257
 162 464 156 482 156 506 c 257
 46 506 l 257
 46 459 62 424 95 403 c 256
 121 386 157 378 204 378 c 258
 348 378 l 258
 395 378 432 363 459 333 c 256
 487 303 501 263 501 214 c 256
 501 170 495 135 486 108 c 256
 472 69 449 50 416 50 c 256
 388 50 369 61 361 84 c 256
 355 100 353 130 353 174 c 256
 353 211 340 240 314 263 c 256
 285 288 244 300 193 300 c 256
 125 300 76 283 46 250 c 256
 22 223 10 184 10 133 c 256
 10 98 15 68 26 43 c 256
 34 24 43 9 54 0 c 257
 170 0 l 257
 160 16 153 36 148 61 c 256
 143 82 141 106 141 133 c 258
 141 140 l 258
 141 204 159 236 196 236 c 256
 216 236 229 233 236 228 c 257
 243 221 245 208 245 189 c 258
 245 125 l 258
 245 80 260 47 290 26 c 256
 317 7 357 -2 410 -2 c 256
 490 -2 549 15 583 51 c 256
 615 83 632 138 633 213 c 256
 634 277 615 328 578 365 c 256
 537 406 476 426 395 426 c 258
 391 426 l 257
NamedP: "hr00"
EndSplineSet
PickledDataWithLists: "(dp1
S'com.adobe.type.autohint'
p2
(S'data'
S'<data>\\n  <hintSetList>\\n    <hintset pointTag=\"hr00\">\\n      <hstem pos=\"-2\" width=\"52\"/>\\n      <hstem pos=\"236\" width=\"64\"/>\\n      <hstem pos=\"378\" width=\"51\"/>\\n      <vstem pos=\"10\" width=\"131\"/>\\n      <vstem pos=\"46\" width=\"110\"/>\\n      <vstem pos=\"245\" width=\"108\"/>\\n      <vstem pos=\"501\" width=\"132\"/>\\n    </hintset>\\n  </hintSetList>\\n  </data>'
Ntp3
s."
EndChar

StartChar: Pa
Encoding: 154 3114 154
GlifName: Pa_
Width: 676
VWidth: 0
Flags: W
LayerCount: 2
Back
Fore
SplineSet
265 155 m 256
NamedP: "hr00"
 265 118 258 93 244 79 c 256
 234 69 219 64 199 64 c 256
 176 64 160 72 151 88 c 256
 144 99 141 118 141 144 c 256
 141 181 147 206 158 219 c 256
 165 229 179 234 199 234 c 256
 222 234 238 229 248 219 c 256
 259 207 265 186 265 155 c 256
NamedP: "hr00"
621 213 m 256
 623 284 601 341 558 379 c 256
 520 414 471 430 414 430 c 258
 385 430 l 257
 385 375 l 257
 417 375 442 362 460 336 c 256
 480 309 490 271 490 223 c 256
 490 164 483 120 470 91 c 256
 457 64 439 51 415 51 c 256
 398 51 385 56 378 65 c 256
 370 77 366 98 366 129 c 256
 366 185 354 227 329 254 c 256
 302 285 258 300 198 300 c 256
 143 300 99 286 64 259 c 256
 28 230 10 192 10 146 c 256
 10 101 27 65 60 38 c 256
 91 13 129 0 176 0 c 256
 205 0 229 3 248 9 c 256
 272 16 292 26 309 41 c 257
 320 26 334 14 353 6 c 257
 370 1 390 -2 415 -2 c 256
 480 -2 529 16 564 53 c 256
 598 88 619 142 621 213 c 256
339 611 m 257
 312 557 289 516 269 489 c 256
 239 450 211 430 184 430 c 256
 161 430 145 437 136 451 c 256
 129 462 126 480 126 504 c 257
 16 504 l 257
 16 455 30 420 59 398 c 256
 83 379 118 370 163 370 c 256
 218 370 272 392 326 435 c 256
 362 464 408 513 464 581 c 257
 339 611 l 257
EndSplineSet
PickledDataWithLists: "(dp1
S'com.adobe.type.autohint'
p2
(S'data'
S'<data>\\n  <hintSetList>\\n    <hintset pointTag=\"hr00\">\\n      <hstem pos=\"-2\" width=\"53\"/>\\n      <hstem pos=\"0\" width=\"64\"/>\\n      <hstem pos=\"234\" width=\"66\"/>\\n      <hstem pos=\"370\" width=\"60\"/>\\n      <hstem pos=\"375\" width=\"55\"/>\\n      <vstem pos=\"10\" width=\"131\"/>\\n      <vstem pos=\"16\" width=\"110\"/>\\n      <vstem pos=\"265\" width=\"101\"/>\\n      <vstem pos=\"490\" width=\"131\"/>\\n    </hintset>\\n  </hintSetList>\\n  </data>'
Ntp3
s."
EndChar

StartChar: Pha
Encoding: 155 3115 155
GlifName: Pha_
Width: 676
VWidth: 0
Flags: W
LayerCount: 2
Back
Fore
SplineSet
376 -77 m 257
NamedP: "hr00"
 376 -50 368 -30 353 -19 c 256
 342 -11 326 -7 306 -7 c 256
 291 -7 279 -11 269 -20 c 256
 253 -33 245 -53 245 -82 c 256
 245 -107 251 -125 264 -135 c 256
 273 -142 287 -146 304 -146 c 256
 321 -146 335 -142 345 -135 c 256
 360 -124 371 -105 376 -77 c 257
NamedP: "hr00"
265 155 m 256
 265 118 258 93 244 79 c 256
 234 69 219 64 199 64 c 256
 176 64 160 72 151 88 c 256
 144 99 141 118 141 144 c 256
 141 181 147 206 158 219 c 256
 165 229 179 234 199 234 c 256
 222 234 238 229 248 219 c 256
 259 207 265 186 265 155 c 256
621 213 m 256
 623 284 601 341 558 379 c 256
 520 414 471 430 414 430 c 258
 385 430 l 257
 385 375 l 257
 417 375 442 362 460 336 c 256
 480 309 490 271 490 223 c 256
 490 164 483 120 470 91 c 256
 457 64 439 51 415 51 c 256
 398 51 385 56 378 65 c 256
 370 77 366 98 366 129 c 256
 366 185 354 227 329 254 c 256
 302 285 258 300 198 300 c 256
 143 300 99 286 64 259 c 256
 28 230 10 192 10 146 c 256
 10 101 27 65 60 38 c 256
 91 13 129 0 176 0 c 256
 205 0 229 3 248 9 c 256
 272 16 292 26 309 41 c 257
 320 26 334 14 353 6 c 257
 370 1 390 -2 415 -2 c 256
 480 -2 529 16 564 53 c 256
 598 88 619 142 621 213 c 256
339 611 m 257
 312 557 289 516 269 489 c 256
 239 450 211 430 184 430 c 256
 161 430 145 437 136 451 c 256
 129 462 126 480 126 504 c 257
 16 504 l 257
 16 455 30 420 59 398 c 256
 83 379 118 370 163 370 c 256
 218 370 272 392 326 435 c 256
 362 464 408 513 464 581 c 257
 339 611 l 257
EndSplineSet
PickledDataWithLists: "(dp1
S'com.adobe.type.autohint'
p2
(S'data'
S'<data>\\n  <hintSetList>\\n    <hintset pointTag=\"hr00\">\\n      <hstem pos=\"-146\" width=\"139\"/>\\n      <hstem pos=\"-2\" width=\"53\"/>\\n      <hstem pos=\"0\" width=\"64\"/>\\n      <hstem pos=\"234\" width=\"66\"/>\\n      <hstem pos=\"370\" width=\"60\"/>\\n      <hstem pos=\"375\" width=\"55\"/>\\n      <vstem pos=\"10\" width=\"131\"/>\\n      <vstem pos=\"16\" width=\"110\"/>\\n      <vstem pos=\"245\" width=\"131\"/>\\n      <vstem pos=\"265\" width=\"101\"/>\\n      <vstem pos=\"490\" width=\"131\"/>\\n    </hintset>\\n  </hintSetList>\\n  </data>'
Ntp3
s."
EndChar

StartChar: Ba
Encoding: 156 3116 156
GlifName: Ba_
Width: 736
VWidth: 0
Flags: W
LayerCount: 2
Back
Fore
SplineSet
438 53 m 256
NamedP: "hr00"
 409 53 389 63 379 83 c 256
 373 95 370 115 370 144 c 257
 271 144 l 257
 271 118 267 98 259 84 c 256
 248 64 230 54 203 54 c 256
 184 54 170 61 160 75 c 256
 150 90 145 112 145 139 c 256
 145 186 179 216 248 229 c 256
 319 242 355 274 355 326 c 257
 358 359 343 385 310 403 c 256
 281 419 242 425 194 425 c 256
 131 425 85 415 56 395 c 256
 25 375 10 342 10 295 c 257
 136 295 l 257
 136 325 l 258
 136 339 141 351 151 361 c 256
 162 371 176 376 191 376 c 256
 211 376 227 371 238 361 c 256
 248 351 253 337 253 320 c 256
 253 292 222 273 160 263 c 256
 63 247 14 204 14 133 c 256
 14 87 30 52 63 29 c 256
 91 10 129 0 176 0 c 256
 209 0 235 3 255 10 c 256
 281 19 301 35 315 56 c 257
 328 34 346 19 370 10 c 256
 390 3 418 0 454 0 c 256
 522 0 576 17 614 55 c 256
 655 94 674 153 674 230 c 256
 674 287 656 334 620 371 c 256
 580 412 526 433 459 433 c 256
 439 433 420 432 403 429 c 257
 403 376 l 257
 410 377 419 378 430 378 c 256
 472 378 502 362 520 331 c 256
 535 306 543 269 543 218 c 256
 543 153 533 108 513 83 c 256
 497 63 472 53 438 53 c 256
NamedP: "hr00"
EndSplineSet
PickledDataWithLists: "(dp1
S'com.adobe.type.autohint'
p2
(S'data'
S'<data>\\n  <hintSetList>\\n    <hintset pointTag=\"hr00\">\\n      <hstem pos=\"0\" width=\"53\"/>\\n      <hstem pos=\"376\" width=\"49\"/>\\n      <hstem pos=\"378\" width=\"55\"/>\\n      <vstem pos=\"10\" width=\"126\"/>\\n      <vstem pos=\"14\" width=\"131\"/>\\n      <vstem pos=\"253\" width=\"102\"/>\\n      <vstem pos=\"271\" width=\"99\"/>\\n      <vstem pos=\"543\" width=\"131\"/>\\n    </hintset>\\n  </hintSetList>\\n  </data>'
Ntp3
s."
EndChar

StartChar: Bha
Encoding: 157 3117 157
GlifName: Bha_
Width: 736
VWidth: 0
Flags: W
LayerCount: 2
Back
Fore
SplineSet
563 409 m 257
NamedP: "hr00"
 576 415 590 422 604 431 c 256
 653 461 701 503 750 557 c 257
 636 590 l 257
 612 550 581 513 543 480 c 256
 503 444 470 426 445 426 c 256
 428 426 415 434 405 451 c 256
 394 468 388 488 388 512 c 257
 288 512 l 257
 288 465 304 429 337 406 c 256
 359 391 386 385 418 380 c 256
 421 379 425 378 430 378 c 258
 449 378 l 258
 490 378 516 363 529 334 c 256
 538 314 543 275 543 218 c 256
 543 153 533 108 513 83 c 256
 497 63 472 53 438 53 c 256
 409 53 389 63 379 83 c 256
 373 95 370 115 370 144 c 257
 271 144 l 257
 271 118 267 98 259 84 c 256
 248 64 230 54 203 54 c 256
 184 54 170 61 160 75 c 256
 150 90 145 112 145 139 c 256
 145 186 179 216 248 229 c 256
 319 242 355 274 355 326 c 257
 358 359 343 385 310 403 c 256
 281 419 242 425 194 425 c 256
 131 425 85 415 56 395 c 256
 25 375 10 342 10 295 c 257
 136 295 l 257
 136 325 l 258
 136 340 141 353 151 363 c 256
 162 373 176 378 191 378 c 256
 211 378 227 372 238 361 c 256
 248 351 253 337 253 320 c 256
 253 292 222 273 160 263 c 256
 63 247 14 204 14 133 c 256
 14 87 30 52 63 29 c 256
 91 10 129 0 176 0 c 256
 209 0 235 3 255 10 c 256
 281 19 301 35 315 56 c 257
 328 34 346 19 370 10 c 256
 390 3 418 0 454 0 c 256
 522 0 576 17 614 55 c 256
 655 94 674 153 674 230 c 256
 674 287 657 333 624 368 c 256
 607 386 586 400 563 409 c 257
NamedP: "hr00"
359 -136 m 256
 374 -125 384 -106 390 -79 c 257
 390 -51 382 -31 366 -20 c 256
 355 -13 340 -9 320 -9 c 256
 305 -9 293 -13 283 -21 c 256
 267 -34 259 -55 259 -84 c 256
 259 -109 265 -126 278 -136 c 256
 287 -143 300 -147 318 -147 c 256
 335 -147 349 -143 359 -136 c 256
EndSplineSet
PickledDataWithLists: "(dp1
S'com.adobe.type.autohint'
p2
(S'data'
S'<data>\\n  <hintSetList>\\n    <hintset pointTag=\"hr00\">\\n      <hstem pos=\"-147\" width=\"138\"/>\\n      <hstem pos=\"0\" width=\"53\"/>\\n      <hstem pos=\"378\" width=\"47\"/>\\n      <vstem pos=\"10\" width=\"126\"/>\\n      <vstem pos=\"14\" width=\"131\"/>\\n      <vstem pos=\"253\" width=\"102\"/>\\n      <vstem pos=\"259\" width=\"131\"/>\\n      <vstem pos=\"271\" width=\"99\"/>\\n      <vstem pos=\"288\" width=\"100\"/>\\n      <vstem pos=\"543\" width=\"131\"/>\\n    </hintset>\\n  </hintSetList>\\n  </data>'
Ntp3
s."
EndChar

StartChar: Ma
Encoding: 158 3118 158
GlifName: Ma_
Width: 1002
VWidth: 0
Flags: W
LayerCount: 2
Back
Fore
SplineSet
366 378 m 258
NamedP: "hr00"
 402 378 430 367 451 344 c 256
 477 317 490 277 490 223 c 256
 490 164 483 120 470 91 c 256
 457 64 439 51 415 51 c 256
 398 51 385 56 378 65 c 256
 370 77 366 98 366 129 c 256
 366 185 354 227 329 254 c 256
 302 285 258 300 198 300 c 256
 143 300 99 286 64 259 c 256
 28 230 10 192 10 146 c 256
 10 101 27 65 60 38 c 256
 91 13 129 0 176 0 c 256
 205 0 229 3 248 9 c 256
 272 16 292 26 309 41 c 257
 320 26 334 14 353 6 c 257
 370 1 390 -2 415 -2 c 256
 481 -2 534 14 568 53 c 258
 582 69 l 257
 591 54 605 41 623 30 c 256
 656 9 695 -1 740 -1 c 256
 803 -1 854 19 891 59 c 256
 930 100 949 153 949 220 c 256
 949 282 931 332 895 369 c 256
 859 406 811 425 751 425 c 258
 709 425 l 257
 709 376 l 257
 742 376 768 362 788 333 c 256
 808 304 818 264 818 215 c 256
 818 165 809 125 791 94 c 256
 773 64 749 49 720 49 c 256
 687 49 659 62 633 85 c 256
 623 95 613 105 606 116 c 257
 616 144 621 176 621 213 c 256
 621 284 601 340 558 378 c 256
 521 411 472 426 414 426 c 258
 380 426 l 257
 436 457 491 498 545 551 c 257
 431 581 l 257
 404 540 373 505 340 476 c 256
 303 445 271 429 243 429 c 256
 205 429 179 437 164 453 c 257
 151 464 145 482 145 506 c 257
 35 506 l 257
 35 459 51 424 84 403 c 256
 110 386 146 378 193 378 c 258
 366 378 l 258
NamedP: "hr00"
248 219 m 256
 259 207 265 186 265 155 c 256
 265 118 258 93 244 79 c 256
 234 69 219 64 199 64 c 256
 176 64 160 72 151 88 c 256
 144 99 141 118 141 144 c 256
 141 181 147 206 158 219 c 256
 165 229 179 234 199 234 c 256
 222 234 238 229 248 219 c 256
EndSplineSet
PickledDataWithLists: "(dp1
S'com.adobe.type.autohint'
p2
(S'data'
S'<data>\\n  <hintSetList>\\n    <hintset pointTag=\"hr00\">\\n      <hstem pos=\"-1\" width=\"50\"/>\\n      <hstem pos=\"0\" width=\"64\"/>\\n      <hstem pos=\"234\" width=\"66\"/>\\n      <hstem pos=\"378\" width=\"48\"/>\\n      <vstem pos=\"10\" width=\"131\"/>\\n      <vstem pos=\"35\" width=\"110\"/>\\n      <vstem pos=\"265\" width=\"101\"/>\\n      <vstem pos=\"490\" width=\"131\"/>\\n      <vstem pos=\"818\" width=\"131\"/>\\n    </hintset>\\n  </hintSetList>\\n  </data>'
Ntp3
s."
EndChar

StartChar: Ya
Encoding: 159 3119 159
GlifName: Ya_
Width: 1302
VWidth: 0
Flags: W
LayerCount: 2
Back
Fore
SplineSet
636 379 m 257
NamedP: "hr00"
 639 377 644 376 649 376 c 256
 690 376 720 369 739 355 c 256
 770 332 786 286 786 218 c 256
 786 155 772 110 745 81 c 256
 724 60 696 49 661 49 c 256
 624 49 598 64 583 93 c 256
 573 112 567 137 568 168 c 258
 570 216 l 258
 573 282 545 334 496 371 c 256
 449 407 384 425 301 425 c 256
 201 425 127 405 78 366 c 256
 33 331 10 281 10 216 c 256
 10 145 35 91 84 54 c 256
 131 18 199 0 288 0 c 256
 333 0 375 5 414 18 c 256
 455 31 489 52 515 78 c 257
 524 51 544 31 575 18 c 256
 604 5 639 -1 681 -1 c 256
 744 -1 795 14 836 43 c 256
 849 52 861 63 872 75 c 257
 881 58 896 43 916 30 c 256
 949 9 989 -1 1034 -1 c 256
 1097 -1 1148 19 1185 59 c 256
 1224 100 1243 153 1243 220 c 256
 1243 282 1225 332 1189 369 c 256
 1153 406 1105 425 1045 425 c 258
 1003 425 l 257
 1003 376 l 257
 1035 376 1061 362 1081 333 c 256
 1101 304 1111 264 1111 215 c 256
 1111 165 1103 125 1085 94 c 256
 1068 64 1043 49 1014 49 c 256
 981 49 951 61 926 85 c 256
 915 95 906 106 899 118 c 257
 912 147 918 181 918 220 c 256
 918 285 894 335 846 371 c 256
 823 388 795 402 762 411 c 257
 799 430 l 258
 853 458 906 502 960 556 c 257
 834 589 l 257
 807 549 773 512 731 479 c 256
 687 443 651 425 623 425 c 256
 605 425 591 433 579 450 c 256
 567 467 560 487 560 511 c 257
 450 511 l 257
 450 464 468 428 504 405 c 256
 533 387 572 378 619 378 c 256
 625 378 631 378 636 379 c 257
NamedP: "hr00"
405 338 m 256
 428 312 439 273 439 221 c 256
 439 164 427 121 403 93 c 256
 378 64 339 49 288 49 c 256
 236 49 198 63 174 90 c 256
 152 116 141 155 141 206 c 256
 141 266 153 309 176 336 c 256
 201 364 241 378 296 378 c 256
 345 378 382 365 405 338 c 256
EndSplineSet
PickledDataWithLists: "(dp1
S'com.adobe.type.autohint'
p2
(S'data'
S'<data>\\n  <hintSetList>\\n    <hintset pointTag=\"hr00\">\\n      <hstem pos=\"0\" width=\"49\"/>\\n      <hstem pos=\"378\" width=\"47\"/>\\n      <vstem pos=\"10\" width=\"131\"/>\\n      <vstem pos=\"439\" width=\"131\"/>\\n      <vstem pos=\"450\" width=\"110\"/>\\n      <vstem pos=\"786\" width=\"132\"/>\\n      <vstem pos=\"1111\" width=\"132\"/>\\n    </hintset>\\n  </hintSetList>\\n  </data>'
Ntp3
s."
EndChar

StartChar: Ra
Encoding: 160 3120 160
GlifName: Ra_
Width: 626
VWidth: 0
Flags: W
LayerCount: 2
Back
Fore
SplineSet
420 408 m 257
NamedP: "hr00"
 435 414 450 421 465 430 c 256
 518 460 572 502 626 556 c 257
 500 589 l 257
 473 549 440 512 399 479 c 256
 354 443 317 425 289 425 c 256
 272 425 257 433 245 450 c 256
 232 467 226 487 226 511 c 257
 116 511 l 257
 116 467 132 433 163 410 c 257
 128 400 99 385 76 366 c 256
 32 331 10 281 10 216 c 256
 10 145 35 91 84 54 c 256
 131 18 200 0 289 0 c 256
 366 0 430 16 480 49 c 256
 539 87 569 143 570 216 c 256
 570 283 545 334 495 371 c 256
 474 386 449 399 420 408 c 257
NamedP: "hr00"
405 338 m 256
 428 313 439 274 439 221 c 256
 439 164 427 121 403 93 c 256
 378 64 339 49 288 49 c 256
 236 49 198 63 174 90 c 256
 152 116 141 155 141 206 c 256
 141 265 153 309 176 336 c 256
 199 364 237 378 290 378 c 256
 343 378 381 365 405 338 c 256
EndSplineSet
PickledDataWithLists: "(dp1
S'com.adobe.type.autohint'
p2
(S'data'
S'<data>\\n  <hintSetList>\\n    <hintset pointTag=\"hr00\">\\n      <hstem pos=\"0\" width=\"49\"/>\\n      <hstem pos=\"378\" width=\"47\"/>\\n      <vstem pos=\"10\" width=\"131\"/>\\n      <vstem pos=\"116\" width=\"110\"/>\\n      <vstem pos=\"439\" width=\"131\"/>\\n    </hintset>\\n  </hintSetList>\\n  </data>'
Ntp3
s."
EndChar

StartChar: RRa
Encoding: 161 3121 161
GlifName: RRa_
Width: 750
VWidth: 0
Flags: W
LayerCount: 2
Back
Fore
SplineSet
211 325 m 256
NamedP: "hr00"
 211 305 207 291 200 283 c 256
 194 276 185 273 173 273 c 256
 162 273 153 276 146 283 c 256
 139 291 136 304 136 323 c 256
 136 343 140 357 148 365 c 257
 153 372 162 375 175 375 c 256
 185 375 193 372 200 365 c 256
 207 357 211 344 211 325 c 256
NamedP: "hr00"
684 206 m 257
 684 271 667 321 636 361 c 256
 603 402 558 424 499 424 c 256
 447 424 409 410 383 384 c 256
 359 359 345 326 345 281 c 256
 345 264 349 247 358 231 c 256
 365 217 375 205 386 196 c 257
 215 196 l 257
 215 150 l 257
 489 150 l 257
 489 196 l 257
 472 196 459 202 450 213 c 256
 441 225 436 247 436 278 c 256
 436 300 439 320 445 338 c 256
 454 363 469 375 489 375 c 256
 516 375 534 355 544 314 c 256
 550 288 553 252 553 205 c 256
 553 152 544 113 526 88 c 256
 509 65 484 54 451 54 c 256
 430 54 414 61 404 74 c 256
 394 87 389 106 389 133 c 257
 300 133 l 257
 300 104 293 83 279 69 c 256
 266 56 247 50 223 50 c 256
 182 50 153 64 135 93 c 256
 120 118 111 159 111 214 c 256
 111 230 112 243 115 254 c 257
 122 238 135 228 154 220 c 256
 165 216 178 213 193 213 c 256
 225 213 252 220 274 235 c 256
 301 254 314 284 314 323 c 256
 314 360 299 388 268 406 c 256
 245 419 215 426 180 426 c 256
 117 426 71 404 43 359 c 256
 21 323 10 272 10 206 c 256
 10 139 25 89 56 55 c 256
 91 18 145 0 218 0 c 256
 247 0 273 5 296 15 c 256
 318 25 333 38 341 54 c 257
 348 38 360 25 378 16 c 256
 399 5 428 0 463 0 c 256
 535 0 590 20 628 60 c 256
 659 94 678 143 684 206 c 257
EndSplineSet
PickledDataWithLists: "(dp1
S'com.adobe.type.autohint'
p2
(S'data'
S'<data>\\n  <hintSetList>\\n    <hintset pointTag=\"hr00\">\\n      <hstem pos=\"0\" width=\"50\"/>\\n      <hstem pos=\"0\" width=\"54\"/>\\n      <hstem pos=\"150\" width=\"46\"/>\\n      <hstem pos=\"213\" width=\"60\"/>\\n      <hstem pos=\"375\" width=\"49\"/>\\n      <vstem pos=\"10\" width=\"101\"/>\\n      <vstem pos=\"211\" width=\"103\"/>\\n      <vstem pos=\"300\" width=\"89\"/>\\n      <vstem pos=\"345\" width=\"91\"/>\\n      <vstem pos=\"553\" width=\"131\"/>\\n    </hintset>\\n  </hintSetList>\\n  </data>'
Ntp3
s."
EndChar

StartChar: La
Encoding: 162 3122 162
GlifName: La_
Width: 708
VWidth: 0
Flags: W
LayerCount: 2
Back
Fore
SplineSet
241 328 m 256
NamedP: "hr00"
 241 305 236 289 226 279 c 256
 218 270 207 266 194 266 c 256
 180 266 167 269 156 276 c 256
 143 285 136 299 136 318 c 256
 136 340 143 357 156 368 c 256
 166 376 179 380 194 380 c 256
 208 380 219 377 226 370 c 256
 236 362 241 348 241 328 c 256
NamedP: "hr00"
649 228 m 257
 649 289 633 338 601 375 c 256
 566 417 515 438 446 438 c 256
 425 438 407 436 394 433 c 257
 394 374 l 257
 397 377 402 379 409 379 c 257
 413 380 418 380 424 380 c 256
 455 380 477 371 491 353 c 256
 509 330 518 289 518 230 c 256
 518 170 501 125 468 95 c 256
 437 67 393 53 336 53 c 256
 272 53 222 66 185 89 c 256
 141 117 119 160 119 219 c 256
 119 234 120 245 121 254 c 257
 126 244 136 236 151 229 c 256
 166 223 184 220 205 220 c 256
 242 220 271 228 293 243 c 256
 318 261 331 289 331 326 c 256
 331 361 317 389 290 408 c 256
 264 425 231 433 191 433 c 256
 136 433 93 416 61 383 c 256
 27 348 10 299 10 236 c 256
 10 153 36 92 89 55 c 256
 140 18 222 0 336 0 c 256
 441 0 521 25 575 76 c 256
 617 115 642 165 649 228 c 257
EndSplineSet
PickledDataWithLists: "(dp1
S'com.adobe.type.autohint'
p2
(S'data'
S'<data>\\n  <hintSetList>\\n    <hintset pointTag=\"hr00\">\\n      <hstem pos=\"0\" width=\"53\"/>\\n      <hstem pos=\"220\" width=\"46\"/>\\n      <hstem pos=\"380\" width=\"58\"/>\\n      <hstem pos=\"380\" width=\"53\"/>\\n      <vstem pos=\"10\" width=\"109\"/>\\n      <vstem pos=\"241\" width=\"90\"/>\\n      <vstem pos=\"518\" width=\"131\"/>\\n    </hintset>\\n  </hintSetList>\\n  </data>'
Ntp3
s."
EndChar

StartChar: LLa
Encoding: 163 3123 163
GlifName: LLa_
Width: 630
VWidth: 0
Flags: W
LayerCount: 2
Back
Fore
SplineSet
507 431 m 258
NamedP: "hr00"
 552 462 597 503 642 557 c 257
 536 590 l 257
 514 550 486 513 452 480 c 256
 415 444 385 426 361 426 c 256
 346 426 334 434 324 451 c 256
 314 468 309 488 309 512 c 257
 218 512 l 257
 218 465 233 429 262 406 c 256
 279 393 300 385 324 382 c 257
 328 379 333 378 339 378 c 258
 383 378 l 258
 410 378 431 374 446 366 c 256
 465 357 474 344 474 325 c 256
 474 294 453 270 411 256 c 256
 383 246 347 243 303 243 c 256
 240 243 194 251 163 268 c 257
 192 268 216 273 235 284 c 256
 260 298 273 321 273 353 c 256
 273 380 259 401 230 415 c 256
 207 427 180 433 149 433 c 256
 110 433 78 425 53 408 c 256
 24 389 10 362 10 325 c 256
 10 292 23 267 49 248 c 256
 72 231 100 222 134 220 c 257
 115 213 101 201 90 184 c 256
 80 167 75 148 75 125 c 256
 75 84 96 53 139 31 c 256
 180 10 239 0 315 0 c 256
 402 0 466 12 508 35 c 256
 548 58 568 90 568 133 c 256
 568 160 560 181 545 196 c 256
 532 209 512 219 483 226 c 257
 504 229 524 240 545 258 c 256
 570 279 583 303 583 330 c 256
 583 363 569 388 540 404 c 256
 526 412 510 417 491 420 c 257
 507 431 l 258
NamedP: "hr00"
405 185 m 256
 426 174 436 155 436 129 c 256
 436 106 424 87 400 74 c 256
 379 62 351 56 318 56 c 256
 285 56 258 62 238 75 c 256
 217 88 206 105 206 126 c 256
 206 154 218 174 241 185 c 256
 260 195 287 200 321 200 c 256
 359 200 387 195 405 185 c 256
171 369 m 256
 177 364 180 355 180 344 c 256
 180 331 177 321 170 314 c 256
 163 307 153 303 140 303 c 256
 127 303 118 307 111 315 c 256
 106 322 103 331 103 343 c 256
 103 355 107 364 114 370 c 256
 120 375 129 378 141 378 c 256
 154 378 164 375 171 369 c 256
EndSplineSet
PickledDataWithLists: "(dp1
S'com.adobe.type.autohint'
p2
(S'data'
S'<data>\\n  <hintSetList>\\n    <hintset pointTag=\"hr00\">\\n      <hstem pos=\"0\" width=\"56\"/>\\n      <hstem pos=\"200\" width=\"43\"/>\\n      <hstem pos=\"268\" width=\"35\"/>\\n      <hstem pos=\"378\" width=\"48\"/>\\n      <hstem pos=\"378\" width=\"134\"/>\\n      <vstem pos=\"10\" width=\"93\"/>\\n      <vstem pos=\"75\" width=\"131\"/>\\n      <vstem pos=\"180\" width=\"93\"/>\\n      <vstem pos=\"218\" width=\"91\"/>\\n      <vstem pos=\"436\" width=\"132\"/>\\n      <vstem pos=\"474\" width=\"109\"/>\\n    </hintset>\\n  </hintSetList>\\n  </data>'
Ntp3
s."
EndChar

StartChar: uni0C34
Encoding: 164 3124 164
GlifName: uni0C34_
Width: 708
VWidth: 0
Flags: W
LayerCount: 2
Back
Fore
SplineSet
343 52 m 257
NamedP: "hr00"
 351 37 366 24 387 15 c 256
 410 5 436 0 465 0 c 256
 538 0 592 18 627 55 c 256
 658 89 673 139 673 206 c 256
 673 272 662 323 640 359 c 256
 612 404 566 426 503 426 c 256
 468 426 438 419 415 406 c 256
 384 388 369 360 369 323 c 256
 369 284 382 254 409 235 c 256
 431 220 458 213 490 213 c 256
 505 213 518 216 529 220 c 256
 548 228 561 238 568 254 c 257
 571 243 572 230 572 214 c 256
 572 159 563 118 548 93 c 256
 530 64 501 50 460 50 c 256
 436 50 417 56 404 69 c 256
 390 83 383 104 383 133 c 257
 300 133 l 257
 300 104 293 83 279 69 c 256
 266 56 247 50 223 50 c 256
 182 50 153 64 135 93 c 256
 120 118 111 159 111 214 c 256
 111 230 112 243 115 254 c 257
 122 238 135 228 154 220 c 256
 165 216 178 213 193 213 c 256
 225 213 252 220 274 235 c 256
 301 254 314 284 314 323 c 256
 314 360 299 388 268 406 c 256
 245 419 215 426 180 426 c 256
 117 426 71 404 43 359 c 256
 21 323 10 272 10 206 c 256
 10 139 25 89 56 55 c 256
 91 18 145 0 218 0 c 256
 247 0 273 5 296 15 c 256
 317 24 332 37 340 52 c 257
 340 50 l 257
 342 52 l 257
 343 51 343 51 343 50 c 257
 343 52 l 257
NamedP: "hr00"
472 325 m 256
 472 344 476 357 483 365 c 256
 490 372 498 375 508 375 c 256
 521 375 530 372 535 365 c 257
 543 357 547 343 547 323 c 256
 547 304 544 291 537 283 c 256
 530 276 521 273 510 273 c 256
 498 273 489 276 483 283 c 256
 476 291 472 305 472 325 c 256
200 365 m 256
 207 357 211 344 211 325 c 256
 211 305 207 291 200 283 c 256
 194 276 185 273 173 273 c 256
 162 273 153 276 146 283 c 256
 139 291 136 304 136 323 c 256
 136 343 140 357 148 365 c 257
 153 372 162 375 175 375 c 256
 185 375 193 372 200 365 c 256
EndSplineSet
PickledDataWithLists: "(dp1
S'com.adobe.type.autohint'
p2
(S'data'
S'<data>\\n  <hintSetList>\\n    <hintset pointTag=\"hr00\">\\n      <hstem pos=\"0\" width=\"50\"/>\\n      <hstem pos=\"52\" width=\"81\"/>\\n      <hstem pos=\"213\" width=\"60\"/>\\n      <hstem pos=\"375\" width=\"51\"/>\\n      <vstem pos=\"10\" width=\"101\"/>\\n      <vstem pos=\"211\" width=\"103\"/>\\n      <vstem pos=\"300\" width=\"83\"/>\\n      <vstem pos=\"369\" width=\"103\"/>\\n      <vstem pos=\"572\" width=\"101\"/>\\n    </hintset>\\n  </hintSetList>\\n  </data>'
Ntp3
s."
EndChar

StartChar: Va
Encoding: 165 3125 165
GlifName: Va_
Width: 676
VWidth: 0
Flags: W
LayerCount: 2
Back
Fore
SplineSet
380 426 m 257
NamedP: "hr00"
 436 457 491 498 545 551 c 257
 431 581 l 257
 404 540 373 505 340 476 c 256
 303 445 271 429 243 429 c 256
 205 429 179 437 164 453 c 257
 151 464 145 482 145 506 c 257
 35 506 l 257
 35 459 51 424 84 403 c 256
 110 386 146 378 193 378 c 258
 366 378 l 258
 402 378 430 367 451 344 c 256
 477 317 490 277 490 223 c 256
 490 164 483 120 470 91 c 256
 457 64 439 51 415 51 c 256
 398 51 385 56 378 65 c 256
 370 77 366 98 366 129 c 256
 366 185 354 227 329 254 c 256
 302 285 258 300 198 300 c 256
 143 300 99 286 64 259 c 256
 28 230 10 192 10 146 c 256
 10 101 27 65 60 38 c 256
 91 13 129 0 176 0 c 256
 205 0 229 3 248 9 c 256
 272 16 292 26 309 41 c 257
 320 26 334 14 353 6 c 257
 370 1 390 -2 415 -2 c 256
 481 -2 532 16 568 53 c 256
 603 90 621 143 621 213 c 256
 621 284 601 340 558 378 c 256
 521 411 472 426 414 426 c 258
 380 426 l 257
NamedP: "hr00"
248 219 m 256
 259 207 265 186 265 155 c 256
 265 118 258 93 244 79 c 256
 234 69 219 64 199 64 c 256
 176 64 160 72 151 88 c 256
 144 99 141 118 141 144 c 256
 141 181 147 206 158 219 c 256
 165 229 179 234 199 234 c 256
 222 234 238 229 248 219 c 256
EndSplineSet
PickledDataWithLists: "(dp1
S'com.adobe.type.autohint'
p2
(S'data'
S'<data>\\n  <hintSetList>\\n    <hintset pointTag=\"hr00\">\\n      <hstem pos=\"-2\" width=\"53\"/>\\n      <hstem pos=\"0\" width=\"64\"/>\\n      <hstem pos=\"234\" width=\"66\"/>\\n      <hstem pos=\"378\" width=\"48\"/>\\n      <vstem pos=\"10\" width=\"131\"/>\\n      <vstem pos=\"35\" width=\"110\"/>\\n      <vstem pos=\"265\" width=\"101\"/>\\n      <vstem pos=\"490\" width=\"131\"/>\\n    </hintset>\\n  </hintSetList>\\n  </data>'
Ntp3
s."
EndChar

StartChar: Sha
Encoding: 166 3126 166
GlifName: Sha_
Width: 706
VWidth: 0
Flags: W
LayerCount: 2
Back
Fore
SplineSet
548 430 m 258
NamedP: "hr00"
 601 459 655 502 709 556 c 257
 583 589 l 257
 556 549 522 512 480 479 c 256
 436 443 400 425 371 425 c 256
 354 425 340 433 328 450 c 256
 316 467 309 487 309 511 c 257
 199 511 l 257
 199 464 217 428 253 405 c 256
 282 387 320 378 368 378 c 256
 379 378 390 379 401 380 c 257
 404 379 408 378 413 378 c 258
 488 378 l 258
 499 378 509 375 516 369 c 256
 525 363 529 356 529 348 c 256
 529 340 527 334 524 330 c 256
 521 326 517 323 511 320 c 257
 468 335 405 343 323 343 c 256
 222 343 144 323 90 284 c 256
 37 247 10 194 10 125 c 257
 140 125 l 257
 140 172 157 212 191 244 c 256
 229 278 278 295 339 295 c 256
 392 295 425 292 439 286 c 257
 374 286 322 276 283 255 c 256
 234 230 210 191 210 138 c 256
 210 93 233 57 278 31 c 256
 316 10 363 -1 420 -1 c 256
 499 -1 561 15 606 46 c 256
 651 76 671 114 668 161 c 257
 671 190 665 216 648 239 c 256
 633 260 611 279 583 294 c 257
 601 300 613 308 619 318 c 256
 624 326 626 339 626 358 c 256
 626 378 616 394 595 406 c 256
 580 415 560 421 537 424 c 257
 548 430 l 258
NamedP: "hr00"
518 230 m 256
 530 215 536 189 536 150 c 256
 536 116 524 90 499 73 c 256
 479 60 455 53 428 53 c 256
 399 53 375 60 355 73 c 256
 332 88 321 110 321 138 c 256
 321 178 339 207 375 224 c 256
 396 234 430 242 479 249 c 257
 497 246 510 239 518 230 c 256
EndSplineSet
PickledDataWithLists: "(dp1
S'com.adobe.type.autohint'
p2
(S'data'
S'<data>\\n  <hintSetList>\\n    <hintset pointTag=\"hr00\">\\n      <hstem pos=\"-1\" width=\"54\"/>\\n      <hstem pos=\"249\" width=\"37\"/>\\n      <hstem pos=\"295\" width=\"48\"/>\\n      <hstem pos=\"378\" width=\"47\"/>\\n      <vstem pos=\"10\" width=\"130\"/>\\n      <vstem pos=\"199\" width=\"110\"/>\\n      <vstem pos=\"210\" width=\"111\"/>\\n      <vstem pos=\"529\" width=\"97\"/>\\n      <vstem pos=\"536\" width=\"132\"/>\\n    </hintset>\\n  </hintSetList>\\n  </data>'
Ntp3
s."
EndChar

StartChar: SSa
Encoding: 167 3127 167
GlifName: SSa_
Width: 680
VWidth: 0
Flags: W
LayerCount: 2
Back
Fore
SplineSet
265 155 m 256
NamedP: "hr00"
 265 118 258 93 244 79 c 256
 234 69 219 64 199 64 c 256
 176 64 160 72 151 88 c 256
 144 99 141 118 141 144 c 256
 141 181 147 206 158 219 c 256
 165 229 179 234 199 234 c 256
 222 234 238 229 248 219 c 256
 259 207 265 186 265 155 c 256
NamedP: "hr00"
621 213 m 257
 621 284 601 341 558 379 c 256
 520 414 471 430 414 430 c 258
 385 430 l 257
 385 375 l 257
 417 375 442 362 460 336 c 256
 480 309 490 271 490 223 c 256
 490 164 483 120 470 91 c 256
 457 64 439 51 415 51 c 256
 398 51 385 56 378 65 c 256
 370 77 366 98 366 129 c 256
 366 185 354 227 329 254 c 256
 302 285 258 300 198 300 c 256
 143 300 99 286 64 259 c 256
 28 230 10 192 10 146 c 256
 10 101 27 65 60 38 c 256
 91 13 129 0 176 0 c 256
 205 0 229 3 248 9 c 256
 272 16 292 26 309 41 c 257
 320 26 334 14 353 6 c 257
 370 1 390 -2 415 -2 c 256
 445 -2 470 1 489 8 c 257
 486 -5 484 -19 484 -34 c 256
 484 -53 488 -69 496 -84 c 256
 505 -99 519 -110 536 -116 c 257
 636 -66 l 257
 621 -62 609 -52 600 -36 c 256
 592 -21 588 -1 588 24 c 256
 588 57 590 84 595 103 c 257
 602 122 611 158 621 213 c 257
339 611 m 257
 312 557 289 516 269 489 c 256
 239 450 211 430 184 430 c 256
 161 430 145 437 136 451 c 256
 129 462 126 480 126 504 c 257
 16 504 l 257
 16 455 30 420 59 398 c 256
 83 379 118 370 163 370 c 256
 218 370 272 392 326 435 c 256
 362 464 408 513 464 581 c 257
 339 611 l 257
EndSplineSet
PickledDataWithLists: "(dp1
S'com.adobe.type.autohint'
p2
(S'data'
S'<data>\\n  <hintSetList>\\n    <hintset pointTag=\"hr00\">\\n      <hstem pos=\"-2\" width=\"53\"/>\\n      <hstem pos=\"0\" width=\"64\"/>\\n      <hstem pos=\"234\" width=\"66\"/>\\n      <hstem pos=\"370\" width=\"60\"/>\\n      <hstem pos=\"375\" width=\"55\"/>\\n      <vstem pos=\"10\" width=\"131\"/>\\n      <vstem pos=\"16\" width=\"110\"/>\\n      <vstem pos=\"265\" width=\"101\"/>\\n      <vstem pos=\"484\" width=\"104\"/>\\n      <vstem pos=\"490\" width=\"131\"/>\\n    </hintset>\\n  </hintSetList>\\n  </data>'
Ntp3
s."
EndChar

StartChar: Sa
Encoding: 168 3128 168
GlifName: Sa_
Width: 696
VWidth: 0
Flags: W
LayerCount: 2
Back
Fore
SplineSet
501 214 m 256
NamedP: "hr00"
 501 170 495 135 486 108 c 256
 472 69 449 50 416 50 c 256
 388 50 369 61 361 84 c 256
 355 100 353 130 353 174 c 256
 353 211 340 240 314 263 c 256
 285 288 244 300 193 300 c 256
 125 300 76 283 46 250 c 256
 22 223 10 184 10 133 c 256
 10 98 15 68 26 43 c 256
 34 24 43 9 54 0 c 257
 170 0 l 257
 160 16 153 36 148 61 c 256
 143 82 141 106 141 133 c 258
 141 140 l 258
 141 204 159 236 196 236 c 256
 216 236 229 233 236 228 c 257
 243 221 245 208 245 189 c 258
 245 125 l 258
 245 80 260 47 290 26 c 256
 317 7 357 -2 410 -2 c 256
 491 -2 549 16 584 51 c 256
 617 84 633 138 633 213 c 256
 633 282 612 334 569 370 c 256
 530 403 478 420 413 420 c 258
 390 420 l 257
 390 360 l 257
 426 360 452 352 469 335 c 256
 490 312 501 272 501 214 c 256
NamedP: "hr00"
333 611 m 257
 306 557 283 516 263 489 c 256
 233 450 205 430 178 430 c 256
 155 430 139 437 130 451 c 256
 123 462 120 480 120 504 c 257
 10 504 l 257
 10 455 24 420 53 398 c 256
 77 379 111 370 156 370 c 256
 211 370 266 392 320 435 c 256
 356 464 402 513 458 581 c 257
 333 611 l 257
EndSplineSet
PickledDataWithLists: "(dp1
S'com.adobe.type.autohint'
p2
(S'data'
S'<data>\\n  <hintSetList>\\n    <hintset pointTag=\"hr00\">\\n      <hstem pos=\"-2\" width=\"52\"/>\\n      <hstem pos=\"236\" width=\"64\"/>\\n      <hstem pos=\"360\" width=\"60\"/>\\n      <hstem pos=\"370\" width=\"60\"/>\\n      <vstem pos=\"10\" width=\"131\"/>\\n      <vstem pos=\"10\" width=\"110\"/>\\n      <vstem pos=\"245\" width=\"108\"/>\\n      <vstem pos=\"501\" width=\"132\"/>\\n    </hintset>\\n  </hintSetList>\\n  </data>'
Ntp3
s."
EndChar

StartChar: Ha
Encoding: 169 3129 169
GlifName: Ha_
Width: 1020
VWidth: 0
Flags: W
LayerCount: 2
Back
Fore
SplineSet
870 228 m 256
NamedP: "hr00"
 870 203 866 185 859 174 c 256
 850 162 837 156 820 156 c 256
 803 156 791 162 783 173 c 256
 775 183 771 197 771 216 c 256
 771 242 774 260 780 270 c 256
 787 283 801 289 820 289 c 256
 837 289 850 283 859 271 c 256
 866 261 870 247 870 228 c 256
NamedP: "hr00"
265 155 m 256
 265 118 258 93 244 79 c 256
 234 69 219 64 199 64 c 256
 176 64 160 72 151 88 c 256
 144 99 141 118 141 144 c 256
 141 181 147 206 158 219 c 256
 165 229 179 234 199 234 c 256
 222 234 238 229 248 219 c 256
 259 207 265 186 265 155 c 256
621 213 m 256
 622 246 615 278 603 309 c 256
 592 336 577 359 560 378 c 257
 766 378 l 258
 805 378 833 372 848 360 c 256
 857 352 863 338 868 319 c 257
 859 325 846 329 829 331 c 256
 819 332 806 333 789 333 c 256
 750 333 720 322 699 301 c 256
 680 282 670 256 670 221 c 256
 670 184 683 157 709 138 c 256
 734 119 769 109 816 109 c 256
 864 109 901 121 928 145 c 256
 957 172 971 211 971 264 c 256
 971 315 954 355 920 385 c 256
 889 412 847 426 794 426 c 258
 385 426 l 257
 385 378 l 257
 417 378 442 365 460 338 c 256
 480 310 490 272 490 223 c 256
 490 164 483 120 470 91 c 256
 457 64 439 51 415 51 c 256
 398 51 385 56 378 65 c 256
 370 77 366 98 366 129 c 256
 366 185 354 227 329 254 c 256
 302 285 258 300 198 300 c 256
 143 300 99 286 64 259 c 256
 28 230 10 192 10 146 c 256
 10 101 27 65 60 38 c 256
 91 13 129 0 176 0 c 256
 205 0 229 3 248 9 c 256
 272 16 292 26 309 41 c 257
 320 26 334 14 353 6 c 257
 370 1 390 -2 415 -2 c 256
 480 -2 529 16 564 53 c 256
 598 88 618 142 621 213 c 256
339 611 m 257
 312 557 289 516 269 489 c 256
 239 450 211 430 184 430 c 256
 161 430 145 437 136 451 c 256
 129 462 126 480 126 504 c 257
 16 504 l 257
 16 455 30 420 59 398 c 256
 83 379 118 370 163 370 c 256
 218 370 272 392 326 435 c 256
 362 464 408 513 464 581 c 257
 339 611 l 257
EndSplineSet
PickledDataWithLists: "(dp1
S'com.adobe.type.autohint'
p2
(S'data'
S'<data>\\n  <hintSetList>\\n    <hintset pointTag=\"hr00\">\\n      <hstem pos=\"-2\" width=\"53\"/>\\n      <hstem pos=\"0\" width=\"64\"/>\\n      <hstem pos=\"109\" width=\"47\"/>\\n      <hstem pos=\"234\" width=\"66\"/>\\n      <hstem pos=\"289\" width=\"44\"/>\\n      <hstem pos=\"370\" width=\"60\"/>\\n      <hstem pos=\"378\" width=\"48\"/>\\n      <vstem pos=\"10\" width=\"131\"/>\\n      <vstem pos=\"16\" width=\"110\"/>\\n      <vstem pos=\"265\" width=\"101\"/>\\n      <vstem pos=\"490\" width=\"131\"/>\\n      <vstem pos=\"670\" width=\"101\"/>\\n      <vstem pos=\"870\" width=\"101\"/>\\n    </hintset>\\n  </hintSetList>\\n  </data>'
Ntp3
s."
EndChar

StartChar: Avagraha
Encoding: 170 3133 170
GlifName: Avagraha_
Width: 778
VWidth: 0
Flags: W
LayerCount: 2
Back
Fore
SplineSet
37 83 m 256
NamedP: "hr00"
 37 51 50 25 78 7 c 256
 105 -11 145 -19 194 -19 c 258
 771 -19 l 257
 771 31 l 257
 252 31 l 258
 227 31 207 36 192 47 c 256
 177 57 169 71 169 89 c 256
 169 106 177 121 193 132 c 256
 210 143 239 153 280 161 c 256
 336 172 375 185 397 202 c 256
 420 221 431 248 431 284 c 256
 431 325 415 358 382 381 c 256
 349 404 303 415 243 415 c 256
 171 415 118 405 84 387 c 256
 51 369 34 342 34 303 c 256
 34 286 41 271 54 259 c 256
 67 246 84 240 103 240 c 258
 210 240 l 257
 210 278 l 257
 192 278 l 258
 185 278 179 281 174 288 c 256
 169 295 166 304 166 314 c 256
 166 329 173 342 186 351 c 256
 200 360 218 365 241 365 c 256
 268 365 290 358 305 343 c 256
 320 329 328 309 328 284 c 256
 328 257 319 237 302 224 c 256
 285 211 254 202 209 195 c 256
 148 186 104 173 77 156 c 256
 50 138 37 114 37 83 c 256
NamedP: "hr00"
EndSplineSet
PickledDataWithLists: "(dp1
S'com.adobe.type.autohint'
p2
(S'data'
S'<data>\\n  <hintSetList>\\n    <hintset pointTag=\"hr00\">\\n      <hstem pos=\"-19\" width=\"50\"/>\\n      <hstem pos=\"240\" width=\"38\"/>\\n      <hstem pos=\"365\" width=\"50\"/>\\n      <vstem pos=\"34\" width=\"132\"/>\\n      <vstem pos=\"37\" width=\"132\"/>\\n      <vstem pos=\"328\" width=\"103\"/>\\n    </hintset>\\n  </hintSetList>\\n  </data>'
Ntp3
s."
EndChar

StartChar: AAMatra
Encoding: 171 3134 171
GlifName: AAMatra_
Width: 720
VWidth: 0
Flags: W
LayerCount: 2
Back
Fore
SplineSet
587 211 m 256
NamedP: "hr00"
 587 186 583 168 575 157 c 256
 567 145 554 139 536 139 c 256
 519 139 505 145 496 156 c 257
 486 166 481 181 481 200 c 256
 481 224 485 242 494 254 c 256
 503 267 517 273 536 273 c 256
 554 273 567 267 575 255 c 256
 583 245 587 230 587 211 c 256
NamedP: "hr00"
379 200 m 256
 379 165 394 137 423 118 c 256
 451 100 488 91 533 91 c 256
 580 91 617 105 645 132 c 256
 674 161 689 202 689 255 c 256
 689 306 672 345 637 372 c 256
 606 397 564 410 510 410 c 258
 -294 410 l 257
 -294 361 l 257
 482 361 l 258
 533 361 565 345 580 312 c 258
 584 303 l 257
 575 309 564 313 551 316 c 256
 544 317 532 317 517 317 c 256
 478 317 446 309 423 293 c 256
 394 273 379 242 379 200 c 256
EndSplineSet
PickledDataWithLists: "(dp1
S'com.adobe.type.autohint'
p2
(S'data'
S'<data>\\n  <hintSetList>\\n    <hintset pointTag=\"hr00\">\\n      <hstem pos=\"91\" width=\"48\"/>\\n      <hstem pos=\"273\" width=\"44\"/>\\n      <hstem pos=\"361\" width=\"49\"/>\\n      <vstem pos=\"379\" width=\"102\"/>\\n      <vstem pos=\"587\" width=\"102\"/>\\n    </hintset>\\n  </hintSetList>\\n  </data>'
Ntp3
s."
EndChar

StartChar: Imatra
Encoding: 172 3135 172
GlifName: Imatra_
Width: 0
VWidth: 0
Flags: W
LayerCount: 2
Back
Fore
SplineSet
26 531 m 257
NamedP: "hr00"
 26 518 22 509 15 502 c 256
 8 496 -2 493 -17 493 c 256
 -32 493 -43 497 -50 505 c 257
 -56 510 -59 519 -59 530 c 256
 -59 541 -55 549 -48 555 c 256
 -39 561 -28 564 -14 564 c 256
 -1 564 8 561 15 554 c 256
 21 549 25 541 26 531 c 257
NamedP: "hr00"
240 498 m 256
 240 537 217 566 170 587 c 256
 133 603 85 611 26 611 c 256
 -33 611 -79 605 -111 592 c 256
 -148 577 -166 554 -166 521 c 256
 -166 498 -152 481 -123 466 c 256
 -99 454 -71 447 -40 447 c 256
 -8 447 20 452 44 463 c 256
 73 475 87 492 87 513 c 256
 87 524 85 533 82 540 c 256
 78 549 71 555 62 560 c 257
 80 560 96 555 111 546 c 256
 130 535 140 519 140 500 c 256
 140 465 121 439 83 423 c 256
 58 412 30 406 -1 406 c 256
 -38 406 -75 413 -114 427 c 257
 -114 369 l 257
 -94 364 -56 361 0 361 c 256
 59 361 111 370 154 389 c 256
 211 413 240 449 240 498 c 256
EndSplineSet
PickledDataWithLists: "(dp1
S'com.adobe.type.autohint'
p2
(S'data'
S'<data>\\n  <hintSetList>\\n    <hintset pointTag=\"hr00\">\\n      <hstem pos=\"361\" width=\"45\"/>\\n      <hstem pos=\"447\" width=\"46\"/>\\n      <hstem pos=\"564\" width=\"47\"/>\\n      <vstem pos=\"-166\" width=\"107\"/>\\n      <vstem pos=\"26\" width=\"61\"/>\\n      <vstem pos=\"140\" width=\"100\"/>\\n    </hintset>\\n  </hintSetList>\\n  </data>'
Ntp3
s."
EndChar

StartChar: IIMatra
Encoding: 173 3136 173
GlifName: IIMatra_
Width: 0
VWidth: 0
Flags: W
LayerCount: 2
Back
Fore
SplineSet
26 531 m 257
NamedP: "hr00"
 26 518 22 509 15 502 c 256
 8 496 -2 493 -17 493 c 256
 -32 493 -43 497 -50 505 c 257
 -56 510 -59 519 -59 530 c 256
 -59 541 -55 549 -48 555 c 256
 -39 561 -28 564 -14 564 c 256
 -1 564 8 561 15 554 c 256
 21 549 25 541 26 531 c 257
NamedP: "hr00"
240 498 m 256
 240 535 219 563 178 583 c 256
 143 599 99 608 44 611 c 256
 35 611 27 613 20 617 c 256
 10 624 5 636 5 653 c 256
 5 672 12 685 26 692 c 256
 33 695 45 697 61 697 c 256
 75 697 87 693 97 686 c 256
 109 676 115 662 115 645 c 257
 207 645 l 257
 207 651 l 258
 207 683 194 706 167 721 c 256
 142 735 104 742 52 742 c 256
 11 742 -23 736 -48 724 c 256
 -78 709 -93 686 -93 655 c 256
 -93 640 -91 629 -87 622 c 256
 -82 613 -75 607 -65 603 c 257
 -97 598 -121 589 -138 576 c 256
 -157 562 -166 544 -166 521 c 256
 -166 498 -152 481 -123 466 c 256
 -99 454 -71 447 -40 447 c 256
 -8 447 20 452 44 463 c 256
 73 475 87 492 87 513 c 256
 87 524 85 533 82 540 c 256
 78 549 71 555 62 560 c 257
 80 560 96 555 111 546 c 256
 130 535 140 519 140 500 c 256
 140 465 121 439 83 423 c 256
 58 412 30 406 -1 406 c 256
 -38 406 -75 413 -114 427 c 257
 -114 369 l 257
 -94 364 -56 361 0 361 c 256
 59 361 111 370 154 389 c 256
 211 413 240 449 240 498 c 256
EndSplineSet
PickledDataWithLists: "(dp1
S'com.adobe.type.autohint'
p2
(S'data'
S'<data>\\n  <hintSetList>\\n    <hintset pointTag=\"hr00\">\\n      <hstem pos=\"361\" width=\"45\"/>\\n      <hstem pos=\"447\" width=\"46\"/>\\n      <hstem pos=\"560\" width=\"51\"/>\\n      <hstem pos=\"697\" width=\"45\"/>\\n      <vstem pos=\"-166\" width=\"107\"/>\\n      <vstem pos=\"-93\" width=\"98\"/>\\n      <vstem pos=\"26\" width=\"61\"/>\\n      <vstem pos=\"115\" width=\"92\"/>\\n      <vstem pos=\"140\" width=\"100\"/>\\n    </hintset>\\n  </hintSetList>\\n  </data>'
Ntp3
s."
EndChar

StartChar: UMatra
Encoding: 174 3137 174
GlifName: UMatra_
Width: 329
VWidth: 0
Flags: W
LayerCount: 2
Back
Fore
SplineSet
295 202 m 256
NamedP: "hr00"
 295 265 277 315 241 352 c 256
 204 390 156 409 96 409 c 258
 53 409 l 257
 53 360 l 257
 86 360 112 345 132 316 c 256
 153 287 163 247 163 197 c 256
 163 147 155 106 136 75 c 256
 118 45 93 30 64 30 c 256
 31 30 1 43 -24 66 c 256
 -50 90 -66 120 -73 157 c 257
 -92 91 l 257
 -86 58 -67 32 -34 11 c 256
 -1 -10 39 -21 84 -21 c 256
 148 -21 199 -1 237 40 c 256
 276 81 295 135 295 202 c 256
NamedP: "hr00"
EndSplineSet
PickledDataWithLists: "(dp1
S'com.adobe.type.autohint'
p2
(S'data'
S'<data>\\n  <hintSetList>\\n    <hintset pointTag=\"hr00\">\\n      <hstem pos=\"-21\" width=\"51\"/>\\n      <hstem pos=\"360\" width=\"49\"/>\\n      <vstem pos=\"163\" width=\"132\"/>\\n    </hintset>\\n  </hintSetList>\\n  </data>'
Ntp3
s."
EndChar

StartChar: UUMatra
Encoding: 175 3138 175
GlifName: UUMatra_
Width: 691
VWidth: 0
Flags: W
LayerCount: 2
Back
Fore
SplineSet
560 210 m 256
NamedP: "hr00"
 560 185 556 167 549 156 c 256
 540 144 527 138 510 138 c 256
 493 138 481 143 472 154 c 257
 465 165 461 179 461 198 c 256
 461 225 464 243 469 253 c 256
 477 266 491 272 510 272 c 256
 527 272 540 266 549 254 c 256
 556 244 560 229 560 210 c 256
NamedP: "hr00"
456 352 m 258
 496 352 523 347 537 338 c 257
 548 333 555 321 558 302 c 257
 549 308 536 312 519 314 c 256
 508 315 495 316 478 316 c 256
 444 316 416 305 393 284 c 256
 370 263 359 235 359 198 c 256
 359 165 373 139 400 119 c 256
 427 100 462 90 506 90 c 256
 553 90 591 103 618 130 c 256
 647 160 662 201 662 254 c 256
 662 305 645 344 611 371 c 256
 580 396 537 409 483 409 c 258
 52 409 l 257
 52 360 l 257
 87 360 113 350 132 330 c 256
 157 303 170 259 170 197 c 256
 170 142 161 100 143 71 c 256
 126 44 100 30 66 30 c 256
 33 30 3 43 -22 66 c 256
 -48 90 -64 120 -71 157 c 257
 -90 91 l 257
 -84 58 -65 32 -32 11 c 256
 1 -10 41 -21 86 -21 c 256
 152 -21 204 -1 243 40 c 256
 282 81 302 135 302 202 c 256
 302 231 299 259 291 284 c 256
 283 311 270 333 254 352 c 257
 456 352 l 258
EndSplineSet
PickledDataWithLists: "(dp1
S'com.adobe.type.autohint'
p2
(S'data'
S'<data>\\n  <hintSetList>\\n    <hintset pointTag=\"hr00\">\\n      <hstem pos=\"-21\" width=\"51\"/>\\n      <hstem pos=\"90\" width=\"48\"/>\\n      <hstem pos=\"272\" width=\"44\"/>\\n      <hstem pos=\"352\" width=\"57\"/>\\n      <vstem pos=\"170\" width=\"132\"/>\\n      <vstem pos=\"359\" width=\"102\"/>\\n      <vstem pos=\"560\" width=\"102\"/>\\n    </hintset>\\n  </hintSetList>\\n  </data>'
Ntp3
s."
EndChar

StartChar: RMatra
Encoding: 176 3139 176
GlifName: RMatra_
Width: 247
VWidth: 0
Flags: W
LayerCount: 2
Back
Fore
SplineSet
-12 -120 m 256
NamedP: "hr00"
 -12 -136 -15 -148 -20 -156 c 257
 -26 -163 -35 -167 -47 -167 c 256
 -58 -167 -67 -164 -73 -157 c 256
 -79 -150 -82 -141 -82 -129 c 256
 -82 -113 -80 -102 -76 -95 c 256
 -70 -86 -60 -82 -47 -82 c 256
 -35 -82 -26 -86 -20 -94 c 256
 -15 -100 -12 -109 -12 -120 c 256
NamedP: "hr00"
239 -74 m 256
 239 -1 221 54 184 90 c 256
 145 127 86 146 7 146 c 257
 7 98 l 257
 54 98 87 89 107 71 c 256
 136 45 151 -5 151 -79 c 256
 151 -132 138 -173 112 -200 c 256
 89 -223 59 -235 21 -235 c 256
 -1 -235 -21 -231 -39 -224 c 256
 -61 -215 -72 -204 -72 -191 c 257
 -59 -198 -44 -202 -27 -202 c 256
 -1 -202 21 -197 38 -186 c 256
 57 -173 67 -153 67 -127 c 256
 67 -102 56 -84 35 -71 c 256
 16 -60 -10 -54 -42 -54 c 256
 -80 -54 -108 -62 -127 -77 c 256
 -148 -95 -159 -122 -159 -157 c 256
 -159 -197 -141 -226 -105 -246 c 256
 -76 -262 -37 -271 10 -271 c 256
 78 -271 131 -258 169 -231 c 256
 216 -198 239 -146 239 -74 c 256
EndSplineSet
PickledDataWithLists: "(dp1
S'com.adobe.type.autohint'
p2
(S'data'
S'<data>\\n  <hintSetList>\\n    <hintset pointTag=\"hr00\">\\n      <hstem pos=\"-271\" width=\"36\"/>\\n      <hstem pos=\"-202\" width=\"35\"/>\\n      <hstem pos=\"-82\" width=\"28\"/>\\n      <hstem pos=\"98\" width=\"48\"/>\\n      <vstem pos=\"-159\" width=\"77\"/>\\n      <vstem pos=\"-12\" width=\"79\"/>\\n      <vstem pos=\"151\" width=\"88\"/>\\n    </hintset>\\n  </hintSetList>\\n  </data>'
Ntp3
s."
EndChar

StartChar: RRMatra
Encoding: 177 3140 177
GlifName: RRMatra_
Width: 566
VWidth: 0
Flags: W
LayerCount: 2
Back
Fore
SplineSet
-12 -120 m 256
NamedP: "hr00"
 -12 -136 -15 -148 -20 -156 c 257
 -26 -163 -35 -167 -47 -167 c 256
 -58 -167 -67 -164 -73 -157 c 256
 -79 -150 -82 -141 -82 -129 c 256
 -82 -113 -80 -102 -76 -95 c 256
 -70 -86 -60 -82 -47 -82 c 256
 -35 -82 -26 -86 -20 -94 c 256
 -15 -100 -12 -109 -12 -120 c 256
NamedP: "hr00"
461 -30 m 256
 461 -51 458 -67 451 -77 c 256
 444 -88 433 -93 417 -93 c 256
 402 -93 390 -88 383 -79 c 256
 376 -70 373 -57 373 -40 c 256
 373 -17 376 -1 382 8 c 256
 389 19 400 25 417 25 c 256
 433 25 444 20 451 9 c 257
 458 1 461 -12 461 -30 c 256
239 -74 m 256
 239 -36 234 -3 224 26 c 256
 214 53 198 76 177 95 c 257
 369 95 l 258
 404 95 428 91 441 83 c 256
 449 78 455 67 458 51 c 257
 451 57 439 61 424 62 c 256
 416 63 404 64 389 64 c 256
 356 64 330 56 311 41 c 256
 291 24 281 -3 281 -40 c 256
 281 -68 293 -91 317 -108 c 256
 342 -125 374 -134 413 -134 c 256
 454 -134 487 -122 511 -99 c 256
 537 -74 550 -38 550 9 c 256
 550 54 535 88 505 113 c 256
 477 135 440 146 393 146 c 258
 7 146 l 257
 7 98 l 257
 54 98 87 89 107 71 c 256
 136 45 151 -5 151 -79 c 256
 151 -132 138 -173 112 -200 c 256
 89 -223 59 -235 21 -235 c 256
 -1 -235 -21 -231 -39 -224 c 256
 -61 -215 -72 -204 -72 -191 c 257
 -59 -198 -44 -202 -27 -202 c 256
 -1 -202 21 -197 38 -186 c 256
 57 -173 67 -153 67 -127 c 256
 67 -102 56 -84 35 -71 c 256
 16 -60 -10 -54 -42 -54 c 256
 -80 -54 -108 -62 -127 -77 c 256
 -148 -95 -159 -122 -159 -157 c 256
 -159 -197 -141 -226 -105 -246 c 256
 -76 -262 -37 -271 10 -271 c 256
 78 -271 131 -258 169 -231 c 256
 216 -198 239 -146 239 -74 c 256
EndSplineSet
PickledDataWithLists: "(dp1
S'com.adobe.type.autohint'
p2
(S'data'
S'<data>\\n  <hintSetList>\\n    <hintset pointTag=\"hr00\">\\n      <hstem pos=\"-271\" width=\"36\"/>\\n      <hstem pos=\"-202\" width=\"35\"/>\\n      <hstem pos=\"-134\" width=\"41\"/>\\n      <hstem pos=\"-82\" width=\"28\"/>\\n      <hstem pos=\"25\" width=\"39\"/>\\n      <hstem pos=\"95\" width=\"51\"/>\\n      <vstem pos=\"-159\" width=\"77\"/>\\n      <vstem pos=\"-12\" width=\"79\"/>\\n      <vstem pos=\"151\" width=\"88\"/>\\n      <vstem pos=\"281\" width=\"92\"/>\\n      <vstem pos=\"461\" width=\"89\"/>\\n    </hintset>\\n  </hintSetList>\\n  </data>'
Ntp3
s."
EndChar

StartChar: uni0C46
Encoding: 178 3142 178
GlifName: uni0C46_
Width: 0
VWidth: 0
Flags: W
LayerCount: 2
Back
Fore
SplineSet
263 458 m 256
NamedP: "hr00"
 263 481 255 502 239 521 c 256
 222 541 200 554 171 560 c 257
 -295 560 l 257
 -295 502 l 257
 109 502 l 258
 122 502 131 499 138 492 c 256
 146 485 150 474 150 458 c 256
 150 448 146 439 138 430 c 256
 134 426 126 419 113 410 c 257
 -124 410 l 257
 -124 361 l 257
 166 361 l 258
 192 361 214 369 232 384 c 256
 253 401 263 426 263 458 c 256
NamedP: "hr00"
EndSplineSet
PickledDataWithLists: "(dp1
S'com.adobe.type.autohint'
p2
(S'data'
S'<data>\\n  <hintSetList>\\n    <hintset pointTag=\"hr00\">\\n      <hstem pos=\"361\" width=\"49\"/>\\n      <hstem pos=\"502\" width=\"58\"/>\\n      <vstem pos=\"-295\" width=\"558\"/>\\n      <vstem pos=\"150\" width=\"113\"/>\\n    </hintset>\\n  </hintSetList>\\n  </data>'
Ntp3
s."
EndChar

StartChar: EEMatra
Encoding: 179 3143 179
GlifName: EEMatra_
Width: 0
VWidth: 0
Flags: W
LayerCount: 2
Back
Fore
SplineSet
273 459 m 256
NamedP: "hr00"
 273 488 265 512 250 531 c 256
 234 550 211 560 182 560 c 257
 169 562 161 566 156 571 c 256
 151 577 149 587 149 602 c 256
 149 621 156 634 169 641 c 257
 178 644 189 646 204 646 c 256
 219 646 231 642 241 634 c 256
 252 624 258 610 258 593 c 257
 350 593 l 257
 350 628 337 653 310 668 c 256
 285 683 247 690 195 690 c 256
 154 690 121 684 96 672 c 256
 65 657 50 634 50 603 c 256
 50 593 51 585 54 578 c 256
 57 571 60 565 64 560 c 257
 -291 560 l 257
 -291 502 l 257
 120 502 l 257
 134 495 144 488 149 483 c 256
 156 476 160 468 160 459 c 256
 160 443 156 431 149 422 c 256
 142 414 134 410 124 410 c 258
 -126 410 l 257
 -126 361 l 257
 176 361 l 258
 203 361 226 371 245 390 c 256
 264 409 273 432 273 459 c 256
NamedP: "hr00"
EndSplineSet
PickledDataWithLists: "(dp1
S'com.adobe.type.autohint'
p2
(S'data'
S'<data>\\n  <hintSetList>\\n    <hintset pointTag=\"hr00\">\\n      <hstem pos=\"361\" width=\"49\"/>\\n      <hstem pos=\"502\" width=\"58\"/>\\n      <hstem pos=\"646\" width=\"44\"/>\\n      <vstem pos=\"50\" width=\"99\"/>\\n      <vstem pos=\"160\" width=\"113\"/>\\n      <vstem pos=\"258\" width=\"92\"/>\\n    </hintset>\\n  </hintSetList>\\n  </data>'
Ntp3
s."
EndChar

StartChar: AIMatra
Encoding: 180 3144 180
GlifName: AIMatra_
Width: 795
VWidth: 0
Flags: W
LayerCount: 2
Back
Fore
SplineSet
732 445 m 256
NamedP: "hr00"
 732 469 724 490 708 507 c 256
 691 526 669 535 640 535 c 258
 174 535 l 257
 174 477 l 257
 578 477 l 258
 591 477 600 474 607 469 c 256
 615 464 619 456 619 445 c 256
 619 434 615 426 607 419 c 256
 600 413 591 410 582 410 c 258
 257 410 l 257
 257 360 l 257
 635 360 l 258
 660 360 682 367 701 381 c 256
 722 397 732 418 732 445 c 256
NamedP: "hr00"
241 -249 m 256
 241 -266 236 -277 226 -284 c 256
 218 -290 207 -293 193 -293 c 256
 178 -293 166 -289 158 -282 c 256
 150 -274 146 -263 146 -249 c 256
 146 -236 150 -225 158 -217 c 256
 166 -209 178 -205 193 -205 c 256
 208 -205 219 -209 228 -217 c 256
 237 -225 241 -236 241 -249 c 256
699 -293 m 257
 310 -293 l 257
 315 -288 319 -280 320 -271 c 257
 324 -263 324 -254 324 -245 c 256
 324 -219 309 -199 280 -186 c 256
 257 -176 231 -171 200 -171 c 256
 163 -171 133 -177 110 -188 c 256
 79 -203 63 -229 63 -264 c 256
 63 -290 74 -311 96 -327 c 256
 118 -342 146 -350 181 -350 c 258
 699 -350 l 257
 699 -293 l 257
EndSplineSet
PickledDataWithLists: "(dp1
S'com.adobe.type.autohint'
p2
(S'data'
S'<data>\\n  <hintSetList>\\n    <hintset pointTag=\"hr00\">\\n      <hstem pos=\"-350\" width=\"57\"/>\\n      <hstem pos=\"-205\" width=\"34\"/>\\n      <hstem pos=\"360\" width=\"50\"/>\\n      <hstem pos=\"477\" width=\"58\"/>\\n      <vstem pos=\"63\" width=\"669\"/>\\n      <vstem pos=\"63\" width=\"83\"/>\\n      <vstem pos=\"619\" width=\"113\"/>\\n    </hintset>\\n  </hintSetList>\\n  </data>'
Ntp3
s."
EndChar

StartChar: OMatra
Encoding: 181 3146 181
GlifName: OMatra_
Width: 721
VWidth: 0
Flags: W
LayerCount: 2
Back
Fore
SplineSet
379 361 m 256
NamedP: "hr00"
 379 322 392 291 419 268 c 256
 446 245 481 233 526 233 c 256
 575 233 614 249 644 278 c 256
 674 308 690 347 690 396 c 256
 690 453 669 497 628 526 c 256
 587 555 525 570 444 570 c 256
 399 570 360 565 326 553 c 256
 291 541 265 523 246 501 c 257
 228 523 200 540 161 551 c 256
 121 563 74 569 21 569 c 256
 -68 569 -137 558 -186 535 c 256
 -235 512 -259 481 -259 440 c 256
 -259 414 -250 394 -231 381 c 256
 -214 368 -187 361 -151 361 c 258
 31 361 l 257
 31 409 l 257
 -61 409 l 258
 -80 409 -97 413 -112 420 c 257
 -125 428 -132 437 -132 448 c 256
 -132 467 -118 481 -89 492 c 256
 -61 502 -21 508 30 508 c 256
 93 508 139 501 169 487 c 256
 199 474 214 452 214 422 c 257
 280 422 l 257
 280 451 294 474 323 491 c 256
 352 507 393 515 445 515 c 256
 487 515 521 509 546 496 c 256
 571 483 584 465 584 444 c 257
 577 449 567 453 556 454 c 257
 545 458 530 458 511 458 c 256
 470 458 438 449 415 432 c 256
 391 414 379 390 379 361 c 256
NamedP: "hr00"
588 348 m 256
 588 325 584 309 575 298 c 256
 566 286 553 280 536 280 c 256
 517 280 503 286 494 299 c 256
 485 311 481 329 481 353 c 256
 481 376 485 391 493 400 c 256
 501 409 515 414 536 414 c 256
 552 414 565 408 574 396 c 256
 583 385 588 369 588 348 c 256
EndSplineSet
PickledDataWithLists: "(dp1
S'com.adobe.type.autohint'
p2
(S'data'
S'<data>\\n  <hintSetList>\\n    <hintset pointTag=\"hr00\">\\n      <hstem pos=\"233\" width=\"47\"/>\\n      <hstem pos=\"361\" width=\"48\"/>\\n      <hstem pos=\"414\" width=\"44\"/>\\n      <hstem pos=\"508\" width=\"61\"/>\\n      <hstem pos=\"515\" width=\"55\"/>\\n      <vstem pos=\"-259\" width=\"127\"/>\\n      <vstem pos=\"214\" width=\"66\"/>\\n      <vstem pos=\"379\" width=\"102\"/>\\n      <vstem pos=\"588\" width=\"102\"/>\\n    </hintset>\\n  </hintSetList>\\n  </data>'
Ntp3
s."
EndChar

StartChar: OOMatra
Encoding: 182 3147 182
GlifName: OOMatra_
Width: 745
VWidth: 0
Flags: W
LayerCount: 2
Back
Fore
SplineSet
587 361 m 256
NamedP: "hr00"
 587 334 581 314 572 301 c 256
 562 287 548 280 529 280 c 256
 514 280 502 285 493 296 c 256
 484 306 480 321 480 341 c 256
 480 368 484 387 492 398 c 256
 499 409 511 414 529 414 c 256
 548 414 562 409 572 400 c 256
 582 391 587 378 587 361 c 256
NamedP: "hr00"
380 357 m 256
 380 320 393 290 420 267 c 256
 446 244 481 233 526 233 c 256
 575 233 614 248 644 278 c 256
 674 308 689 347 689 396 c 256
 689 435 674 470 645 501 c 256
 615 532 577 553 531 563 c 257
 525 568 520 574 517 583 c 256
 514 590 512 599 512 609 c 256
 512 622 517 633 527 641 c 256
 537 649 550 653 567 653 c 256
 584 653 597 648 606 639 c 256
 616 629 621 616 621 600 c 257
 713 600 l 257
 713 630 699 654 671 671 c 256
 643 688 605 697 558 697 c 256
 515 697 480 690 453 674 c 256
 427 659 414 637 414 611 c 256
 414 602 415 594 416 587 c 256
 418 580 420 574 422 570 c 257
 386 570 353 563 323 550 c 256
 292 537 266 519 246 495 c 257
 226 518 197 537 159 550 c 256
 120 563 76 569 27 569 c 256
 -62 569 -131 558 -180 537 c 256
 -229 516 -253 486 -253 447 c 256
 -253 418 -243 397 -224 382 c 256
 -205 368 -176 361 -138 361 c 258
 31 361 l 257
 31 409 l 257
 -55 409 l 258
 -74 409 -91 413 -106 420 c 257
 -119 428 -126 437 -126 448 c 256
 -126 467 -112 481 -83 492 c 256
 -55 502 -15 508 36 508 c 256
 97 508 142 500 170 487 c 256
 199 473 213 452 213 422 c 257
 280 422 l 257
 280 451 294 474 323 491 c 256
 352 507 393 515 445 515 c 256
 487 515 521 509 546 496 c 256
 571 483 584 465 584 444 c 257
 576 449 567 453 556 454 c 257
 544 457 529 458 511 458 c 256
 471 458 439 449 415 430 c 256
 392 412 380 388 380 357 c 256
EndSplineSet
PickledDataWithLists: "(dp1
S'com.adobe.type.autohint'
p2
(S'data'
S'<data>\\n  <hintSetList>\\n    <hintset pointTag=\"hr00\">\\n      <hstem pos=\"233\" width=\"47\"/>\\n      <hstem pos=\"361\" width=\"48\"/>\\n      <hstem pos=\"414\" width=\"44\"/>\\n      <hstem pos=\"508\" width=\"61\"/>\\n      <hstem pos=\"515\" width=\"55\"/>\\n      <hstem pos=\"653\" width=\"44\"/>\\n      <vstem pos=\"-253\" width=\"127\"/>\\n      <vstem pos=\"213\" width=\"67\"/>\\n      <vstem pos=\"380\" width=\"100\"/>\\n      <vstem pos=\"414\" width=\"98\"/>\\n      <vstem pos=\"587\" width=\"102\"/>\\n      <vstem pos=\"621\" width=\"92\"/>\\n    </hintset>\\n  </hintSetList>\\n  </data>'
Ntp3
s."
EndChar

StartChar: AuMatra
Encoding: 183 3148 183
GlifName: AuMatra_
Width: 707
VWidth: 0
Flags: W
LayerCount: 2
Back
Fore
SplineSet
379 361 m 256
NamedP: "hr00"
 379 331 391 307 416 289 c 256
 442 270 478 260 523 260 c 256
 569 260 606 271 633 293 c 256
 662 316 676 348 676 390 c 256
 676 432 659 466 624 493 c 256
 590 520 548 534 497 534 c 258
 -238 534 l 257
 -238 474 l 257
 131 474 l 258
 143 474 152 471 158 466 c 257
 163 460 166 453 166 444 c 256
 166 433 164 424 159 419 c 256
 153 412 142 409 126 409 c 258
 -162 409 l 257
 -162 361 l 257
 188 361 l 258
 212 361 232 367 247 379 c 256
 264 392 272 409 272 432 c 256
 272 443 270 453 266 462 c 256
 262 469 256 475 247 479 c 257
 487 479 l 258
 513 479 534 474 550 464 c 256
 562 456 570 445 573 432 c 257
 565 437 553 440 536 442 c 256
 526 443 513 443 497 443 c 256
 460 443 432 438 413 428 c 256
 390 415 379 392 379 361 c 256
NamedP: "hr00"
576 361 m 256
 576 341 572 326 565 316 c 257
 556 306 544 301 527 301 c 256
 510 301 498 305 490 313 c 257
 483 322 479 333 479 348 c 256
 479 369 482 383 488 391 c 256
 495 401 508 406 527 406 c 256
 544 406 557 402 565 394 c 256
 572 386 576 375 576 361 c 256
EndSplineSet
PickledDataWithLists: "(dp1
S'com.adobe.type.autohint'
p2
(S'data'
S'<data>\\n  <hintSetList>\\n    <hintset pointTag=\"hr00\">\\n      <hstem pos=\"260\" width=\"41\"/>\\n      <hstem pos=\"361\" width=\"48\"/>\\n      <hstem pos=\"406\" width=\"37\"/>\\n      <hstem pos=\"474\" width=\"60\"/>\\n      <vstem pos=\"166\" width=\"106\"/>\\n      <vstem pos=\"379\" width=\"100\"/>\\n      <vstem pos=\"576\" width=\"100\"/>\\n    </hintset>\\n  </hintSetList>\\n  </data>'
Ntp3
s."
EndChar

StartChar: Halanth
Encoding: 184 3149 184
GlifName: Halanth_
Width: 0
VWidth: 0
Flags: W
LayerCount: 2
Back
Fore
SplineSet
349 641 m 257
NamedP: "hr00"
 -67 641 l 258
 -93 641 -115 633 -132 617 c 256
 -151 600 -160 581 -160 558 c 256
 -160 544 -156 531 -149 519 c 256
 -142 506 -131 496 -117 488 c 257
 -131 487 -142 482 -150 471 c 256
 -159 459 -164 445 -164 430 c 256
 -164 411 -156 394 -141 381 c 256
 -126 368 -108 361 -86 361 c 258
 60 361 l 257
 60 410 l 257
 12 410 l 258
 1 410 -9 413 -18 419 c 257
 -26 426 -30 433 -30 442 c 256
 -30 449 -26 456 -19 461 c 256
 -10 466 -1 468 10 468 c 258
 206 468 l 257
 206 521 l 257
 7 521 l 258
 -3 521 -12 524 -19 530 c 256
 -26 535 -30 541 -30 550 c 256
 -30 559 -26 567 -17 573 c 256
 -8 580 3 583 16 583 c 258
 349 583 l 257
 349 641 l 257
NamedP: "hr00"
EndSplineSet
PickledDataWithLists: "(dp1
S'com.adobe.type.autohint'
p2
(S'data'
S'<data>\\n  <hintSetList>\\n    <hintset pointTag=\"hr00\">\\n      <hstem pos=\"361\" width=\"49\"/>\\n      <hstem pos=\"468\" width=\"53\"/>\\n      <hstem pos=\"583\" width=\"58\"/>\\n      <vstem pos=\"-164\" width=\"513\"/>\\n    </hintset>\\n  </hintSetList>\\n  </data>'
Ntp3
s."
EndChar

StartChar: uni0C55
Encoding: 185 3157 185
GlifName: uni0C55_
Width: 300
VWidth: 0
Flags: W
LayerCount: 2
Back
Fore
SplineSet
0 599 m 256
NamedP: "hr00"
 0 588 2 578 5 569 c 256
 8 560 13 553 19 548 c 257
 127 549 l 257
 119 552 112 558 106 566 c 257
 101 575 98 586 98 598 c 256
 98 617 105 630 118 637 c 257
 127 640 139 642 154 642 c 256
 168 642 180 638 190 631 c 256
 202 621 208 607 208 589 c 257
 300 589 l 257
 300 624 287 649 260 665 c 256
 235 679 197 686 145 686 c 256
 104 686 70 680 45 668 c 256
 15 653 0 630 0 599 c 256
NamedP: "hr00"
EndSplineSet
PickledDataWithLists: "(dp1
S'com.adobe.type.autohint'
p2
(S'data'
S'<data>\\n  <hintSetList>\\n    <hintset pointTag=\"hr00\">\\n      <hstem pos=\"642\" width=\"44\"/>\\n      <vstem pos=\"0\" width=\"98\"/>\\n      <vstem pos=\"208\" width=\"92\"/>\\n    </hintset>\\n  </hintSetList>\\n  </data>'
Ntp3
s."
EndChar

StartChar: tvam
Encoding: 186 3158 186
GlifName: tvam
Width: 15
VWidth: 0
Flags: W
LayerCount: 2
Back
Fore
SplineSet
317 -225 m 256
NamedP: "hr00"
 317 -242 312 -255 301 -262 c 256
 293 -268 281 -271 266 -271 c 256
 251 -271 238 -267 229 -259 c 257
 222 -251 218 -240 218 -225 c 256
 218 -211 222 -200 229 -192 c 256
 238 -183 251 -178 266 -178 c 256
 282 -178 294 -183 303 -192 c 256
 312 -200 317 -211 317 -225 c 256
NamedP: "hr00"
757 -271 m 257
 389 -271 l 257
 394 -266 398 -258 401 -248 c 256
 403 -239 404 -230 404 -221 c 256
 404 -194 388 -173 357 -159 c 256
 334 -148 306 -143 274 -143 c 256
 235 -143 203 -149 179 -161 c 256
 146 -177 130 -203 130 -240 c 256
 130 -267 142 -289 165 -306 c 256
 188 -322 217 -330 254 -330 c 258
 757 -330 l 257
 757 -271 l 257
EndSplineSet
PickledDataWithLists: "(dp1
S'com.adobe.type.autohint'
p2
(S'data'
S'<data>\\n  <hintSetList>\\n    <hintset pointTag=\"hr00\">\\n      <hstem pos=\"-330\" width=\"59\"/>\\n      <hstem pos=\"-178\" width=\"35\"/>\\n      <vstem pos=\"130\" width=\"627\"/>\\n      <vstem pos=\"130\" width=\"88\"/>\\n      <vstem pos=\"317\" width=\"87\"/>\\n    </hintset>\\n  </hintSetList>\\n  </data>'
Ntp3
s."
EndChar

StartChar: CaNukta
Encoding: 187 3160 187
GlifName: CaNukta_
Width: 711
VWidth: 0
Flags: W
LayerCount: 2
Back
Fore
SplineSet
573 589 m 257
NamedP: "hr00"
 546 549 512 512 471 479 c 256
 426 443 390 425 361 425 c 256
 344 425 330 433 318 450 c 256
 306 467 299 487 299 511 c 257
 189 511 l 257
 189 464 207 428 243 405 c 256
 272 387 310 378 358 378 c 256
 415 378 475 395 538 430 c 256
 591 460 645 502 699 556 c 257
 573 589 l 257
NamedP: "hr00"
670 213 m 256
 671 271 651 320 614 359 c 256
 572 403 512 425 435 425 c 258
 350 425 l 258
 334 425 326 417 326 401 c 256
 326 386 334 378 350 378 c 258
 370 378 l 258
 429 378 471 365 498 338 c 256
 525 312 539 271 539 214 c 256
 539 155 531 113 514 86 c 256
 501 64 482 53 458 53 c 256
 439 53 425 59 415 70 c 257
 407 81 403 94 403 111 c 258
 403 175 l 257
 296 175 l 257
 296 116 l 258
 296 97 292 82 284 71 c 257
 273 59 256 53 233 53 c 256
 211 53 196 65 189 88 c 256
 186 99 184 120 184 149 c 256
 184 185 186 209 191 221 c 256
 200 244 218 256 246 256 c 258
 283 256 l 257
 283 316 l 257
 10 316 l 257
 10 256 l 257
 119 256 l 257
 96 247 80 233 69 214 c 256
 58 195 53 171 53 140 c 256
 53 94 71 58 106 33 c 256
 137 11 176 0 223 0 c 256
 254 0 279 5 300 15 c 256
 319 24 334 36 344 51 c 257
 353 36 366 24 381 16 c 256
 403 4 431 0 465 0 c 256
 528 0 577 17 611 50 c 256
 647 86 668 140 670 213 c 256
EndSplineSet
PickledDataWithLists: "(dp1
S'com.adobe.type.autohint'
p2
(S'data'
S'<data>\\n  <hintSetList>\\n    <hintset pointTag=\"hr00\">\\n      <hstem pos=\"0\" width=\"53\"/>\\n      <hstem pos=\"256\" width=\"60\"/>\\n      <hstem pos=\"378\" width=\"47\"/>\\n      <vstem pos=\"53\" width=\"131\"/>\\n      <vstem pos=\"189\" width=\"110\"/>\\n      <vstem pos=\"296\" width=\"107\"/>\\n      <vstem pos=\"539\" width=\"131\"/>\\n    </hintset>\\n  </hintSetList>\\n  </data>'
Ntp3
s."
EndChar

StartChar: JaNukta
Encoding: 188 3161 188
GlifName: JaNukta_
Width: 700
VWidth: 0
Flags: W
LayerCount: 2
Back
Fore
SplineSet
628 111 m 256
NamedP: "hr00"
 628 146 614 172 585 191 c 256
 560 207 526 216 481 216 c 258
 468 216 l 257
 468 163 l 257
 485 163 497 160 504 155 c 256
 513 148 518 135 518 115 c 256
 518 97 510 82 494 70 c 256
 479 59 460 54 438 54 c 256
 409 54 389 64 379 84 c 256
 373 95 370 115 370 144 c 257
 271 144 l 257
 271 118 267 98 259 84 c 256
 248 64 230 54 203 54 c 256
 184 54 170 61 160 75 c 256
 150 90 145 112 145 139 c 256
 145 186 179 215 246 228 c 256
 295 237 326 251 340 270 c 257
 379 249 422 238 471 238 c 256
 516 238 553 245 584 259 c 256
 621 277 639 303 639 336 c 256
 639 369 622 394 589 411 c 256
 562 426 528 433 488 433 c 256
 458 433 437 432 426 431 c 257
 426 373 l 257
 439 377 451 379 463 379 c 256
 480 379 496 376 509 369 c 256
 523 362 530 352 530 340 c 256
 530 327 524 316 513 309 c 256
 498 300 474 295 443 295 c 256
 417 295 396 301 381 313 c 256
 371 320 361 333 351 350 c 257
 344 375 325 395 295 408 c 256
 268 419 235 425 194 425 c 256
 131 425 85 415 56 395 c 256
 25 375 10 342 10 295 c 257
 136 295 l 257
 136 325 l 258
 136 339 141 351 151 361 c 256
 162 371 176 376 191 376 c 256
 211 376 227 371 238 361 c 256
 248 351 253 337 253 320 c 256
 253 292 222 273 160 263 c 256
 63 247 14 204 14 133 c 256
 14 87 30 52 63 29 c 256
 91 10 129 0 176 0 c 256
 209 0 235 3 255 10 c 256
 281 19 301 35 315 56 c 257
 328 34 347 18 373 9 c 256
 394 2 422 -2 458 -2 c 256
 506 -2 545 8 576 26 c 256
 611 47 628 74 628 111 c 256
NamedP: "hr00"
EndSplineSet
PickledDataWithLists: "(dp1
S'com.adobe.type.autohint'
p2
(S'data'
S'<data>\\n  <hintSetList>\\n    <hintset pointTag=\"hr00\">\\n      <hstem pos=\"0\" width=\"54\"/>\\n      <hstem pos=\"163\" width=\"53\"/>\\n      <hstem pos=\"238\" width=\"57\"/>\\n      <hstem pos=\"376\" width=\"49\"/>\\n      <hstem pos=\"379\" width=\"54\"/>\\n      <vstem pos=\"10\" width=\"126\"/>\\n      <vstem pos=\"14\" width=\"131\"/>\\n      <vstem pos=\"271\" width=\"99\"/>\\n      <vstem pos=\"518\" width=\"110\"/>\\n      <vstem pos=\"530\" width=\"109\"/>\\n    </hintset>\\n  </hintSetList>\\n  </data>'
Ntp3
s."
EndChar

StartChar: RRu
Encoding: 189 3168 189
GlifName: RRu_
Width: 1468
VWidth: 0
Flags: W
LayerCount: 2
Back
Fore
SplineSet
1331 146 m 256
NamedP: "hr00"
 1318 146 1306 151 1296 160 c 256
 1287 169 1283 181 1283 194 c 256
 1283 207 1287 219 1296 229 c 257
 1306 238 1318 243 1331 243 c 256
 1344 243 1356 238 1366 229 c 257
 1375 219 1380 207 1380 194 c 256
 1380 181 1375 169 1366 160 c 256
 1356 151 1344 146 1331 146 c 256
NamedP: "hr00"
168 0 m 256
 195 0 219 6 240 15 c 256
 262 25 279 38 290 55 c 257
 302 38 318 24 338 15 c 256
 359 5 381 0 405 0 c 256
 434 0 460 10 484 31 c 256
 509 53 527 81 540 115 c 257
 547 82 565 54 593 33 c 256
 621 11 653 0 690 0 c 256
 723 0 755 9 784 31 c 256
 812 52 833 81 848 116 c 257
 856 82 873 54 900 33 c 256
 927 11 958 0 991 0 c 256
 1041 0 1084 20 1120 59 c 256
 1156 98 1174 145 1174 200 c 256
 1174 240 1169 274 1159 303 c 256
 1150 332 1136 352 1119 364 c 257
 1283 364 l 258
 1307 364 1328 357 1345 343 c 256
 1362 328 1372 311 1374 291 c 257
 1361 300 1345 304 1325 304 c 256
 1297 304 1272 295 1251 274 c 256
 1230 253 1221 229 1221 200 c 256
 1221 169 1233 143 1258 119 c 256
 1281 96 1310 85 1344 85 c 256
 1374 85 1400 99 1421 126 c 256
 1442 154 1453 187 1453 225 c 256
 1453 280 1436 327 1403 366 c 256
 1370 405 1330 425 1283 425 c 258
 966 425 l 257
 966 364 l 257
 1009 364 l 258
 1037 364 1062 349 1083 318 c 256
 1103 287 1113 249 1113 206 c 256
 1113 166 1100 132 1075 104 c 256
 1050 75 1020 61 985 61 c 256
 965 61 944 72 923 95 c 256
 901 118 882 148 865 185 c 257
 866 213 l 258
 868 271 850 321 815 363 c 256
 781 404 739 425 690 425 c 258
 648 425 l 257
 648 364 l 257
 671 364 l 258
 708 364 740 349 766 320 c 256
 793 290 805 254 805 213 c 256
 805 171 794 135 770 105 c 256
 747 76 717 61 684 61 c 256
 664 61 643 73 620 96 c 256
 597 119 575 151 556 191 c 257
 556 206 l 258
 556 266 541 318 509 361 c 256
 477 404 438 425 393 425 c 258
 344 425 l 257
 344 364 l 257
 393 364 l 258
 421 364 446 349 466 320 c 256
 487 290 496 254 496 213 c 256
 496 167 487 130 470 103 c 256
 452 75 428 61 399 61 c 256
 379 61 363 68 348 83 c 256
 333 98 326 114 326 134 c 258
 326 183 l 257
 265 183 l 257
 265 151 l 258
 265 126 255 105 236 88 c 256
 217 70 195 61 168 61 c 256
 141 61 119 68 100 83 c 256
 81 97 71 114 71 134 c 256
 71 152 79 169 94 185 c 256
 108 201 127 213 150 219 c 256
 177 227 199 240 216 260 c 256
 233 281 241 303 241 328 c 256
 241 355 230 377 209 396 c 256
 187 415 161 425 131 425 c 256
 101 425 75 415 54 396 c 256
 33 377 23 355 23 328 c 258
 23 304 l 257
 83 304 l 257
 83 321 l 258
 83 334 87 346 96 356 c 257
 106 365 118 370 131 370 c 256
 144 370 156 366 166 358 c 257
 175 349 180 339 180 328 c 256
 180 312 174 298 161 285 c 256
 149 272 133 264 114 261 c 256
 84 256 58 242 39 218 c 256
 19 193 10 165 10 134 c 256
 10 97 25 66 56 39 c 256
 87 13 125 0 168 0 c 256
EndSplineSet
PickledDataWithLists: "(dp1
S'com.adobe.type.autohint'
p2
(S'data'
S'<data>\\n  <hintSetList>\\n    <hintset pointTag=\"hr00\">\\n      <hstem pos=\"0\" width=\"61\"/>\\n      <hstem pos=\"85\" width=\"61\"/>\\n      <hstem pos=\"243\" width=\"61\"/>\\n      <hstem pos=\"364\" width=\"61\"/>\\n      <hstem pos=\"370\" width=\"55\"/>\\n      <vstem pos=\"10\" width=\"61\"/>\\n      <vstem pos=\"23\" width=\"60\"/>\\n      <vstem pos=\"180\" width=\"61\"/>\\n      <vstem pos=\"265\" width=\"61\"/>\\n      <vstem pos=\"496\" width=\"60\"/>\\n      <vstem pos=\"805\" width=\"61\"/>\\n      <vstem pos=\"1113\" width=\"61\"/>\\n      <vstem pos=\"1221\" width=\"62\"/>\\n      <vstem pos=\"1380\" width=\"73\"/>\\n    </hintset>\\n  </hintSetList>\\n  </data>'
Ntp3
s."
EndChar

StartChar: LLu
Encoding: 190 3169 190
GlifName: LLu_
Width: 1084
VWidth: 0
Flags: W
LayerCount: 2
Back
Fore
SplineSet
948 146 m 256
NamedP: "hr00"
 935 146 923 151 913 160 c 256
 904 169 899 181 899 194 c 256
 899 207 904 219 913 229 c 257
 923 238 935 243 948 243 c 256
 961 243 973 238 983 229 c 257
 992 219 996 207 996 194 c 256
 996 181 992 169 983 160 c 256
 973 151 961 146 948 146 c 256
NamedP: "hr00"
30 298 m 256
 30 272 36 250 49 231 c 257
 115 231 l 257
 108 239 102 249 98 260 c 256
 93 271 91 283 91 298 c 256
 91 319 100 338 118 354 c 256
 136 369 158 376 183 376 c 256
 206 376 226 368 243 351 c 256
 260 334 268 314 268 291 c 258
 268 255 l 257
 328 255 l 257
 328 291 l 258
 328 314 337 334 356 351 c 256
 375 368 398 376 425 376 c 256
 452 376 475 369 494 355 c 256
 513 341 523 324 523 304 c 256
 523 284 515 262 499 239 c 256
 483 216 460 193 431 170 c 256
 402 147 380 122 364 95 c 256
 348 68 340 40 340 13 c 256
 340 -32 355 -71 388 -104 c 256
 420 -136 459 -151 504 -151 c 256
 568 -151 623 -116 668 -46 c 256
 713 24 735 108 735 206 c 256
 735 256 727 309 711 364 c 257
 899 364 l 258
 922 364 942 357 959 344 c 256
 976 330 987 312 990 291 c 257
 976 300 960 304 941 304 c 256
 913 304 889 295 868 274 c 256
 847 253 838 229 838 200 c 256
 838 170 849 144 870 123 c 256
 892 102 918 91 948 91 c 256
 981 91 1011 104 1034 130 c 256
 1058 157 1069 188 1069 225 c 256
 1069 280 1052 327 1019 366 c 256
 986 405 946 425 899 425 c 258
 620 425 l 257
 656 344 674 271 674 206 c 256
 674 124 657 54 624 -4 c 256
 591 -62 551 -91 504 -91 c 256
 475 -91 451 -81 431 -62 c 256
 411 -43 401 -21 401 6 c 256
 401 28 409 51 425 76 c 256
 441 101 464 123 493 146 c 256
 521 168 543 193 559 219 c 256
 575 246 583 272 583 298 c 256
 583 336 567 369 536 396 c 256
 505 424 468 438 425 438 c 256
 398 438 373 433 351 423 c 256
 330 413 314 400 304 383 c 257
 294 400 277 413 254 423 c 256
 230 433 202 438 170 438 c 256
 129 438 97 425 70 398 c 256
 43 371 30 339 30 298 c 256
EndSplineSet
PickledDataWithLists: "(dp1
S'com.adobe.type.autohint'
p2
(S'data'
S'<data>\\n  <hintSetList>\\n    <hintset pointTag=\"hr00\">\\n      <hstem pos=\"-151\" width=\"60\"/>\\n      <hstem pos=\"91\" width=\"55\"/>\\n      <hstem pos=\"243\" width=\"61\"/>\\n      <hstem pos=\"364\" width=\"61\"/>\\n      <hstem pos=\"376\" width=\"62\"/>\\n      <vstem pos=\"30\" width=\"61\"/>\\n      <vstem pos=\"268\" width=\"60\"/>\\n      <vstem pos=\"340\" width=\"61\"/>\\n      <vstem pos=\"523\" width=\"60\"/>\\n      <vstem pos=\"674\" width=\"61\"/>\\n      <vstem pos=\"838\" width=\"61\"/>\\n      <vstem pos=\"996\" width=\"73\"/>\\n    </hintset>\\n  </hintSetList>\\n  </data>'
Ntp3
s."
EndChar

StartChar: uni0C62
Encoding: 191 3170 191
GlifName: uni0C62_
Width: 0
VWidth: 0
Flags: W
LayerCount: 2
Back
Fore
SplineSet
-581 -105 m 256
NamedP: "hr00"
 -581 -113 -580 -121 -577 -129 c 256
 -574 -136 -570 -143 -565 -150 c 257
 -517 -150 l 257
 -523 -146 -527 -140 -530 -131 c 256
 -533 -124 -535 -115 -535 -105 c 256
 -535 -91 -528 -79 -515 -69 c 256
 -502 -59 -486 -54 -467 -54 c 256
 -450 -54 -435 -59 -423 -70 c 256
 -411 -81 -405 -94 -405 -109 c 258
 -405 -135 l 257
 -361 -135 l 257
 -361 -109 l 258
 -361 -94 -354 -81 -340 -70 c 256
 -327 -59 -310 -54 -290 -54 c 256
 -271 -54 -254 -58 -240 -67 c 256
 -227 -76 -220 -88 -220 -101 c 256
 -220 -116 -226 -132 -237 -147 c 256
 -249 -163 -265 -177 -285 -190 c 256
 -306 -203 -321 -218 -333 -236 c 256
 -344 -253 -351 -271 -351 -289 c 256
 -351 -319 -339 -344 -316 -365 c 256
 -293 -386 -264 -396 -231 -396 c 256
 -184 -396 -145 -373 -112 -327 c 256
 -79 -282 -62 -227 -62 -162 c 256
 -62 -107 -71 -61 -88 -25 c 257
 -133 -25 l 257
 -116 -64 -107 -110 -107 -162 c 256
 -107 -217 -119 -263 -143 -302 c 256
 -168 -341 -197 -360 -231 -360 c 256
 -252 -360 -270 -353 -285 -340 c 256
 -300 -327 -307 -312 -307 -294 c 256
 -307 -281 -302 -266 -290 -251 c 256
 -278 -236 -261 -222 -240 -209 c 256
 -220 -196 -204 -181 -192 -162 c 256
 -181 -144 -175 -125 -175 -105 c 256
 -175 -81 -186 -61 -208 -44 c 256
 -231 -26 -258 -17 -290 -17 c 256
 -311 -17 -328 -20 -343 -26 c 256
 -359 -32 -371 -40 -378 -50 c 257
 -386 -40 -399 -32 -416 -26 c 256
 -433 -20 -454 -17 -477 -17 c 256
 -507 -17 -532 -25 -551 -42 c 256
 -571 -59 -581 -80 -581 -105 c 256
NamedP: "hr00"
EndSplineSet
PickledDataWithLists: "(dp1
S'com.adobe.type.autohint'
p2
(S'data'
S'<data>\\n  <hintSetList>\\n    <hintset pointTag=\"hr00\">\\n      <hstem pos=\"-396\" width=\"36\"/>\\n      <hstem pos=\"-54\" width=\"37\"/>\\n      <vstem pos=\"-581\" width=\"46\"/>\\n      <vstem pos=\"-405\" width=\"44\"/>\\n      <vstem pos=\"-351\" width=\"44\"/>\\n      <vstem pos=\"-220\" width=\"45\"/>\\n      <vstem pos=\"-107\" width=\"45\"/>\\n    </hintset>\\n  </hintSetList>\\n  </data>'
Ntp3
s."
EndChar

StartChar: uni0C63
Encoding: 192 3171 192
GlifName: uni0C63_
Width: 0
VWidth: 0
Flags: W
LayerCount: 2
Back
Fore
SplineSet
-153 -209 m 256
NamedP: "hr00"
 -163 -209 -172 -206 -179 -199 c 256
 -186 -191 -189 -182 -189 -172 c 256
 -189 -165 -186 -158 -179 -152 c 256
 -172 -147 -163 -145 -153 -145 c 256
 -143 -145 -135 -147 -128 -152 c 256
 -121 -158 -118 -165 -118 -172 c 256
 -118 -182 -121 -191 -128 -199 c 256
 -135 -206 -143 -209 -153 -209 c 256
NamedP: "hr00"
-828 -105 m 256
 -828 -113 -827 -121 -824 -129 c 256
 -821 -136 -817 -143 -812 -150 c 257
 -764 -150 l 257
 -770 -146 -774 -140 -777 -131 c 256
 -780 -124 -782 -115 -782 -105 c 256
 -782 -91 -775 -79 -762 -69 c 256
 -749 -59 -733 -54 -714 -54 c 256
 -697 -54 -682 -59 -670 -70 c 256
 -658 -81 -652 -94 -652 -109 c 258
 -652 -135 l 257
 -608 -135 l 257
 -608 -109 l 258
 -608 -94 -601 -81 -587 -70 c 256
 -574 -59 -557 -54 -537 -54 c 256
 -518 -54 -501 -58 -487 -67 c 256
 -474 -76 -467 -88 -467 -101 c 256
 -467 -116 -473 -132 -484 -147 c 256
 -496 -163 -512 -177 -532 -190 c 256
 -553 -203 -568 -218 -580 -236 c 256
 -591 -253 -598 -271 -598 -289 c 256
 -598 -319 -586 -344 -563 -365 c 256
 -540 -386 -511 -396 -478 -396 c 256
 -431 -396 -392 -373 -359 -327 c 256
 -326 -282 -309 -227 -309 -162 c 256
 -309 -133 -314 -100 -325 -62 c 257
 -189 -62 l 258
 -172 -62 -156 -66 -143 -75 c 256
 -130 -84 -123 -96 -120 -109 c 257
 -129 -104 -141 -101 -157 -101 c 256
 -178 -101 -195 -108 -210 -121 c 256
 -225 -134 -233 -150 -233 -169 c 256
 -233 -189 -225 -205 -209 -219 c 256
 -194 -232 -176 -240 -153 -240 c 256
 -128 -240 -106 -232 -88 -215 c 256
 -71 -198 -62 -178 -62 -154 c 256
 -62 -118 -74 -87 -99 -62 c 256
 -124 -37 -154 -25 -189 -25 c 258
 -393 -25 l 257
 -367 -83 -354 -129 -354 -162 c 256
 -354 -217 -366 -263 -390 -302 c 256
 -415 -341 -444 -360 -478 -360 c 256
 -499 -360 -517 -353 -532 -340 c 256
 -547 -327 -554 -312 -554 -294 c 256
 -554 -281 -549 -266 -537 -251 c 256
 -525 -236 -508 -222 -487 -209 c 256
 -467 -196 -451 -181 -439 -162 c 256
 -428 -144 -422 -125 -422 -105 c 256
 -422 -81 -433 -61 -455 -44 c 256
 -478 -26 -505 -17 -537 -17 c 256
 -558 -17 -575 -20 -590 -26 c 256
 -606 -32 -618 -40 -625 -50 c 257
 -633 -40 -646 -32 -663 -26 c 256
 -680 -20 -701 -17 -724 -17 c 256
 -754 -17 -779 -25 -798 -42 c 256
 -818 -59 -828 -80 -828 -105 c 256
EndSplineSet
PickledDataWithLists: "(dp1
S'com.adobe.type.autohint'
p2
(S'data'
S'<data>\\n  <hintSetList>\\n    <hintset pointTag=\"hr00\">\\n      <hstem pos=\"-396\" width=\"36\"/>\\n      <hstem pos=\"-240\" width=\"31\"/>\\n      <hstem pos=\"-145\" width=\"44\"/>\\n      <hstem pos=\"-62\" width=\"37\"/>\\n      <hstem pos=\"-54\" width=\"37\"/>\\n      <vstem pos=\"-828\" width=\"46\"/>\\n      <vstem pos=\"-652\" width=\"44\"/>\\n      <vstem pos=\"-598\" width=\"44\"/>\\n      <vstem pos=\"-467\" width=\"45\"/>\\n      <vstem pos=\"-354\" width=\"45\"/>\\n      <vstem pos=\"-233\" width=\"44\"/>\\n      <vstem pos=\"-118\" width=\"56\"/>\\n    </hintset>\\n  </hintSetList>\\n  </data>'
Ntp3
s."
EndChar

StartChar: Telugu0
Encoding: 193 3174 193
GlifName: Telugu0_
Width: 642
VWidth: 0
Flags: W
LayerCount: 2
Back
Fore
SplineSet
322 29 m 256
NamedP: "hr00"
 287 29 256 51 230 94 c 256
 205 137 192 189 192 250 c 256
 192 309 205 359 230 400 c 256
 256 441 287 461 322 461 c 256
 358 461 389 441 415 400 c 256
 441 359 454 309 454 250 c 256
 454 189 441 137 415 94 c 256
 389 51 358 29 322 29 c 256
NamedP: "hr00"
322 -6 m 256
 397 -6 460 19 512 69 c 256
 565 119 591 179 591 250 c 256
 591 319 565 376 512 425 c 256
 460 473 397 498 322 498 c 256
 249 498 186 474 134 425 c 256
 82 377 56 319 56 250 c 256
 56 179 82 119 134 69 c 256
 186 19 249 -6 322 -6 c 256
EndSplineSet
PickledDataWithLists: "(dp1
S'com.adobe.type.autohint'
p2
(S'data'
S'<data>\\n  <hintSetList>\\n    <hintset pointTag=\"hr00\">\\n      <hstem pos=\"-6\" width=\"35\"/>\\n      <hstem pos=\"461\" width=\"37\"/>\\n      <vstem pos=\"56\" width=\"136\"/>\\n      <vstem pos=\"454\" width=\"137\"/>\\n    </hintset>\\n  </hintSetList>\\n  </data>'
Ntp3
s."
EndChar

StartChar: Telugu1
Encoding: 194 3175 194
GlifName: Telugu1_
Width: 641
VWidth: 0
Flags: W
LayerCount: 2
Back
Fore
SplineSet
264 30 m 257
NamedP: "hr00"
 242 43 226 69 214 109 c 256
 202 150 195 199 195 256 c 256
 195 313 207 361 232 401 c 256
 257 441 287 461 322 461 c 256
 358 461 389 441 414 401 c 256
 439 361 451 313 451 256 c 256
 451 204 445 158 432 118 c 256
 420 79 403 49 380 30 c 257
 436 -5 l 257
 485 24 524 61 552 108 c 256
 581 155 595 204 595 256 c 256
 595 323 568 379 515 426 c 256
 462 474 397 498 322 498 c 256
 247 498 184 474 131 426 c 256
 78 379 51 323 51 256 c 256
 51 204 64 155 92 108 c 256
 119 62 158 25 205 -2 c 257
 264 30 l 257
NamedP: "hr00"
EndSplineSet
PickledDataWithLists: "(dp1
S'com.adobe.type.autohint'
p2
(S'data'
S'<data>\\n  <hintSetList>\\n    <hintset pointTag=\"hr00\">\\n      <hstem pos=\"461\" width=\"37\"/>\\n      <vstem pos=\"51\" width=\"144\"/>\\n      <vstem pos=\"451\" width=\"144\"/>\\n    </hintset>\\n  </hintSetList>\\n  </data>'
Ntp3
s."
EndChar

StartChar: Telugu2
Encoding: 195 3176 195
GlifName: Telugu2_
Width: 641
VWidth: 0
Flags: W
LayerCount: 2
Back
Fore
SplineSet
218 345 m 256
NamedP: "hr00"
 208 345 200 350 193 360 c 256
 186 370 183 382 183 396 c 256
 183 411 186 424 193 434 c 256
 200 445 208 450 218 450 c 256
 228 450 236 445 243 434 c 256
 250 424 253 411 253 396 c 256
 253 382 250 370 243 360 c 256
 236 350 228 345 218 345 c 256
NamedP: "hr00"
233 0 m 258
 338 0 422 23 485 71 c 256
 547 118 578 182 578 261 c 256
 578 333 551 390 497 433 c 256
 443 476 371 498 281 498 c 256
 225 498 180 489 146 470 c 256
 113 452 96 427 96 396 c 256
 96 371 108 348 132 329 c 256
 155 310 184 301 218 301 c 256
 250 301 277 310 300 329 c 256
 322 348 333 371 333 396 c 256
 333 408 330 419 325 429 c 256
 320 440 312 448 302 454 c 257
 339 450 371 430 396 395 c 256
 421 360 433 318 433 268 c 256
 433 206 409 152 360 109 c 256
 310 65 250 44 180 44 c 258
 67 44 l 257
 67 0 l 257
 233 0 l 258
EndSplineSet
PickledDataWithLists: "(dp1
S'com.adobe.type.autohint'
p2
(S'data'
S'<data>\\n  <hintSetList>\\n    <hintset pointTag=\"hr00\">\\n      <hstem pos=\"0\" width=\"44\"/>\\n      <hstem pos=\"301\" width=\"44\"/>\\n      <hstem pos=\"454\" width=\"44\"/>\\n      <vstem pos=\"96\" width=\"87\"/>\\n      <vstem pos=\"253\" width=\"80\"/>\\n      <vstem pos=\"433\" width=\"145\"/>\\n    </hintset>\\n  </hintSetList>\\n  </data>'
Ntp3
s."
EndChar

StartChar: Telugu3
Encoding: 196 3177 196
GlifName: Telugu3_
Width: 641
VWidth: 0
Flags: W
LayerCount: 2
Back
Fore
SplineSet
326 -6 m 256
NamedP: "hr00"
 400 -6 458 7 499 34 c 256
 540 61 561 99 561 148 c 256
 561 168 552 188 534 209 c 256
 517 230 493 247 463 261 c 257
 463 266 l 257
 492 275 515 289 534 309 c 256
 552 328 562 350 562 373 c 256
 562 407 540 436 497 461 c 256
 454 486 401 498 339 498 c 256
 268 498 208 485 158 460 c 256
 108 435 83 405 83 369 c 257
 217 369 l 257
 217 393 227 413 248 430 c 256
 270 447 296 456 326 456 c 256
 353 456 375 448 393 431 c 257
 412 416 422 396 422 373 c 256
 422 346 411 325 388 309 c 256
 365 293 335 285 298 285 c 258
 251 285 l 257
 251 250 l 257
 299 250 l 258
 337 250 368 240 392 221 c 256
 416 202 428 178 428 148 c 256
 428 115 419 89 401 69 c 256
 382 49 357 39 326 39 c 256
 296 39 270 49 249 69 c 256
 228 88 218 112 218 140 c 257
 83 140 l 257
 83 100 107 64 154 36 c 256
 202 7 259 -6 326 -6 c 256
NamedP: "hr00"
EndSplineSet
PickledDataWithLists: "(dp1
S'com.adobe.type.autohint'
p2
(S'data'
S'<data>\\n  <hintSetList>\\n    <hintset pointTag=\"hr00\">\\n      <hstem pos=\"-6\" width=\"45\"/>\\n      <hstem pos=\"250\" width=\"35\"/>\\n      <hstem pos=\"456\" width=\"42\"/>\\n      <vstem pos=\"83\" width=\"135\"/>\\n      <vstem pos=\"422\" width=\"140\"/>\\n      <vstem pos=\"428\" width=\"133\"/>\\n    </hintset>\\n  </hintSetList>\\n  </data>'
Ntp3
s."
EndChar

StartChar: Telugu4
Encoding: 197 3178 197
GlifName: Telugu4_
Width: 641
VWidth: 0
Flags: W
LayerCount: 2
Back
Fore
SplineSet
328 39 m 256
NamedP: "hr00"
 296 39 269 46 246 63 c 256
 224 79 213 99 213 121 c 256
 213 136 223 153 244 170 c 256
 265 187 293 201 328 214 c 257
 362 201 389 187 410 171 c 256
 431 156 441 141 441 126 c 256
 441 102 430 82 408 65 c 256
 386 48 359 39 328 39 c 256
NamedP: "hr00"
328 -6 m 256
 399 -6 460 8 510 33 c 256
 561 59 586 89 586 126 c 256
 586 144 572 163 545 184 c 256
 518 204 481 222 436 239 c 257
 479 255 514 276 541 301 c 256
 568 326 581 352 581 378 c 256
 581 403 566 425 535 446 c 256
 504 468 466 483 419 491 c 257
 393 465 l 257
 411 454 425 441 435 426 c 256
 446 411 451 395 451 378 c 256
 451 351 439 326 415 305 c 256
 390 283 359 270 321 263 c 257
 284 272 253 287 229 309 c 256
 205 330 193 353 193 378 c 256
 193 395 198 412 208 428 c 256
 217 443 229 455 246 465 c 257
 216 491 l 257
 171 480 133 463 104 440 c 256
 75 417 60 393 60 368 c 256
 60 345 74 322 101 299 c 256
 128 276 164 256 209 239 c 257
 166 223 132 206 106 184 c 256
 81 163 68 141 68 121 c 256
 68 86 93 56 144 31 c 256
 195 6 256 -6 328 -6 c 256
EndSplineSet
PickledDataWithLists: "(dp1
S'com.adobe.type.autohint'
p2
(S'data'
S'<data>\\n  <hintSetList>\\n    <hintset pointTag=\"hr00\">\\n      <hstem pos=\"-6\" width=\"45\"/>\\n      <vstem pos=\"60\" width=\"526\"/>\\n      <vstem pos=\"60\" width=\"133\"/>\\n      <vstem pos=\"68\" width=\"145\"/>\\n      <vstem pos=\"441\" width=\"145\"/>\\n      <vstem pos=\"451\" width=\"130\"/>\\n    </hintset>\\n  </hintSetList>\\n  </data>'
Ntp3
s."
EndChar

